<?xml version="1.0" encoding="UTF-8"?>
<svg id="svg2" xmlns="http://www.w3.org/2000/svg" version="1.1" xmlns:cc="http://creativecommons.org/ns#" xmlns:dc="http://purl.org/dc/elements/1.1/" xmlns:inkscape="http://www.inkscape.org/namespaces/inkscape" xmlns:rdf="http://www.w3.org/1999/02/22-rdf-syntax-ns#" xmlns:sodipodi="http://sodipodi.sourceforge.net/DTD/sodipodi-0.dtd" xmlns:svg="http://www.w3.org/2000/svg" viewBox="0 0 270 270">
  <!-- Generator: Adobe Illustrator 29.3.1, SVG Export Plug-In . SVG Version: 2.1.0 Build 151)  -->
  <defs>
    <style>
      .st0 {
        fill: #fff;
      }

      .st1 {
        fill: none;
      }
    </style>
  </defs>
  <sodipodi:namedview id="namedview91" bordercolor="#666666" borderopacity="1" fit-margin-bottom="0" fit-margin-left="0" fit-margin-right="0" fit-margin-top="0" gridtolerance="10" guidetolerance="10" inkscape:current-layer="svg2" inkscape:cx="201.84279" inkscape:cy="91.634643" inkscape:pageopacity="0" inkscape:pageshadow="2" inkscape:window-height="1004" inkscape:window-maximized="1" inkscape:window-width="1280" inkscape:window-x="-8" inkscape:window-y="-8" inkscape:zoom="1.2980983" objecttolerance="10" pagecolor="#ffffff" showgrid="false"/>
  <path id="path6" class="st0" d="M128.5,0c0,.8,0,1.5-.1,2.2v1.2c0,0,4.8,0,4.8,0-.1,4.3-.4,8.3-.9,11.9,1.4,0,2.3,0,2.6,0,.4,0,1.1,0,2.4,0,0-.9,0-2.2.1-3.7,0-1.5.2-3,.3-4.6,0-1.1.2-2.3.3-3.6h.8c1,0,2.4,0,4,.2,0-.2,0-.5,0-.9,0-.4,0-.9,0-1.4V.2c0,0-1.4,0-1.4,0h-2.7c0,0-2.8,0-2.8,0-2.8,0-5.3,0-7.5-.1ZM146.2.4c-.1.9-.3,2.1-.5,3.6-.2,1.5-.4,2.9-.7,4.3s-.5,2.6-.7,3.6c-.2,1-.5,2.2-.8,3.5,1.1.1,1.9.2,2.3.2.4,0,1.2.2,2.4.3.3-2.1.6-4.2,1-6.4.4-2.2.7-4,1-5.5.4,0,.7,0,1,0,.3,0,.6,0,.8,0,.8,0,1.3.2,1.7.4.4.2.6.4.8.6.1.3.2.6.2.9,0,.4-.2.7-.5,1-.3.3-.6.5-1.1.6-.5.1-1,.1-1.5,0-.4,0-.8-.1-1.2-.2l.8,3.3c.2,1,.4,1.7.5,2.3,0,.2.1.6.2,1.1.2,1.1.3,1.8.4,2.2,1.2.1,2.1.2,2.7.3.4,0,1.2.2,2.5.3-.1-.4-.2-.7-.2-.9l-1.1-3.4c-.1-.4-.3-.9-.4-1.3l-.4-1.5c.8-.2,1.4-.4,1.8-.6.5-.2.9-.5,1.2-.8.3-.3.6-.7.8-1.2.2-.4.3-.8.4-1.3,0-.4,0-.9,0-1.3,0-.4-.2-.7-.3-1.1s-.4-.6-.7-.9c-.3-.3-.6-.5-1.1-.8-.4-.2-.9-.4-1.5-.5-.7-.2-1.6-.3-2.5-.4-.8-.1-1.7-.2-2.5-.3-.9,0-1.6-.1-2.2-.2-.6,0-1.3-.2-2.2-.3h0ZM118.9.9c-1.8.3-3.7.6-5.6.9-1.9.3-4,.7-6.2,1l.2,1.2c.1.8.4,2.4.7,4.7.3,2.3.5,4.2.7,5.5,0,.9.2,2.1.3,3.7,1.5-.3,2.4-.4,2.6-.5l2.4-.4v-.5c0,0-.3-1.5-.3-1.5l-.6-4c1.2-.2,2.2-.4,3.2-.6.6,0,1.5-.2,2.7-.4-.1-.8-.3-1.9-.4-3.3-1.1.2-1.9.4-2.4.4l-1.8.3-1.6.2-.3-2.6c1.2-.2,2-.4,2.2-.4l2.2-.4h.8c0-.1.8-.2.8-.2l1-.2c0-.5-.2-1.6-.4-3.3ZM169.6,4.5c-.5.6-.9,1-1.1,1.3l-.9,1-8.6,8.9-1.3,1.3c1.2.3,2.1.6,2.7.7.3,0,1.1.3,2.5.7,1.1-1.3,2.2-2.5,3.2-3.6l5.5,1.5c.1,1.8.2,3.3.2,4.5,1.2.3,2.1.5,2.7.7.3,0,1,.3,2.3.7l-.2-1.7-.8-9.5-.3-4.9c-.9-.2-1.8-.5-2.8-.8-.6-.2-1.5-.4-2.8-.8ZM97.2,5.5c-1.2,0-2.3.3-3.5.6-1.8.6-3.3,1.4-4.5,2.5-1.2,1.1-2,2.3-2.3,3.8-.3,1.4-.3,2.9.2,4.4.3,1.1.8,2,1.5,2.7.6.8,1.4,1.3,2.5,1.8,1.1.4,2.2.6,3.4.6,1.2,0,2.4-.2,3.6-.6,1.2-.4,2.3-.9,3.4-1.6,1-.7,1.8-1.5,2.4-2.4.6-1,.9-2,1-3.2.1-1.1,0-2.3-.4-3.5-.4-1.1-.9-2.1-1.6-2.8-.7-.7-1.5-1.3-2.5-1.7-1-.4-2.1-.6-3.2-.6ZM171.2,8.4c0,.3,0,1.8.2,4.6l-3.4-.9,1.2-1.4c.5-.6,1.2-1.3,1.9-2.2ZM95.8,9.2c.4,0,.8,0,1.1,0,.7.2,1.4.5,1.9,1,.5.5.9,1.2,1.2,1.9.3.8.3,1.6.2,2.4-.1.8-.4,1.5-1,2.1-.5.6-1.2,1-2,1.3-.7.2-1.5.3-2.3.2s-1.4-.5-2-1c-.5-.5-.9-1.1-1.2-1.9-.3-.8-.3-1.6-.2-2.5.1-.8.4-1.5,1-2.2.5-.6,1.2-1,2-1.3.4-.1.8-.2,1.2-.2ZM184.8,9.2l-.8,1.6-1.5,2.9-3.8,7-1.2,2c1,.5,1.8.8,2.1.9.4.2,1.1.5,1.9.9l2-4,2.5-4.7c0,.8,0,1.6.1,2.2,0,1.1.2,2.2.3,3.4l.4,3.7c0,.4,0,1,0,1.8,1.1.5,2,.9,2.7,1.2.8.4,1.6.8,2.5,1.2l1.2-2.4,4.4-8.2,1.7-2.9c-1.1-.5-1.8-.8-2-.9-.5-.2-1.2-.5-2-.9-.4.8-1.1,2.2-2.1,4.2-1,2-1.9,3.6-2.5,4.7v-1.4c0,0-.8-9.8-.8-9.8-1.1-.5-1.9-.8-2.4-1.1-.8-.4-1.8-.8-2.8-1.3h0ZM76.2,13.1l-1.3.7-2.4,1.3-2.4,1.3c-2.5,1.4-4.7,2.6-6.6,3.6.4.7.7,1.3,1,1.9l.6,1.1,4.1-2.4c2.1,3.8,3.8,7.4,5.3,10.8,1.2-.7,2-1.1,2.2-1.2.3-.2,1-.5,2.1-1.1-.5-.8-1-1.9-1.7-3.2-.7-1.3-1.4-2.7-2.1-4.2-.5-1-1-2.1-1.6-3.3l.7-.4c.9-.5,2.1-1.1,3.6-1.8,0-.2-.2-.4-.4-.8-.2-.3-.4-.8-.7-1.3l-.5-1ZM203.9,19.8c-.3,0-.5,0-.8.2-.5.1-.9.4-1.3.7-.4.3-.7.6-.9,1-.2.3-.3.6-.4,1-.1.3-.2.7-.2,1.1,0,.4,0,.9.2,1.4,0,.3.2.7.4,1.3l.8,2.7c0,.2.1.4.1.6,0,.2,0,.4,0,.5,0,.1,0,.2-.2.3-.2.3-.5.5-.9.4-.4,0-.9-.2-1.5-.6-.4-.3-.9-.6-1.3-1.1-.5-.5-1-1.1-1.5-1.8-.4.9-1,2-1.8,3.4,1.4,1.3,2.6,2.2,3.6,2.9.7.4,1.3.8,2,1,.7.2,1.4.4,2.1.4s1.4-.2,2-.5c.6-.3,1.1-.8,1.5-1.4.1-.2.2-.4.3-.7,0-.2.2-.4.2-.7s0-.5,0-.9c0-.3,0-.7-.2-1.1,0-.4-.2-.7-.3-1l-.3-1c-.2-.7-.4-1.2-.5-1.5-.1-.3-.2-.6-.2-.9,0-.2,0-.4,0-.6s0-.3.2-.4c.2-.3.5-.4.9-.4.4,0,.9.2,1.4.5.4.2.7.5,1.2.9.4.4.8.9,1.3,1.5.5-1,.8-1.6,1-2,.2-.4.5-.8.7-1.2-1.1-1-2.2-1.9-3.3-2.6-.5-.3-1.1-.6-1.7-.9-.6-.2-1.1-.4-1.8-.4-.3,0-.6,0-.9,0h0ZM60.4,22c-1,.7-1.5,1.2-1.8,1.3-.4.3-1,.7-1.8,1.3.5.7,1.4,2,2.8,3.8,1.3,1.8,2.3,3.3,3,4.3l-1.3-.6-9.2-4c-.9.7-1.6,1.3-2.1,1.7-.7.5-1.6,1.1-2.5,1.8l1.1,1.4,1.9,2.6,4.5,6.6,1.2,2c.9-.7,1.5-1.2,1.8-1.4.4-.3,1-.7,1.7-1.2l-2.6-3.6-3.1-4.4c.7.4,1.4.7,2.1.9,1,.4,2.1.9,3.2,1.4l3.5,1.4c.3.1.9.4,1.7.8,1-.8,1.7-1.3,2.3-1.8.7-.5,1.4-1.1,2.2-1.6l-1.6-2.2-5.2-7.7-1.8-2.8ZM215.7,26.4c-.5.6-.8,1-1,1.2-.3.3-.5.6-.8,1l-2.6,3-3.8,4.2-2,2.1c1,.8,1.6,1.2,1.8,1.4l1.7,1.4.9-1.1c.4-.5,1.7-1.9,3.8-4.3,1.2-1.3,2.2-2.5,3.2-3.6l.8.5c.2.2.5.3.7.5.2.2.4.3.5.5.1.2.3.4.3.6,0,.2,0,.4,0,.6s-.2.4-.3.6c-.3.4-.8.6-1.3.7-.5,0-1.1-.2-1.7-.6-.3-.2-.5-.5-.8-.8-.1.3-.3.8-.6,1.4-.3.6-.5,1.1-.7,1.4.4.4.7.7,1,1,.9.7,1.8,1.1,2.7,1.4.9.2,1.9.2,2.8-.1.9-.3,1.7-.9,2.3-1.7.3-.4.6-.8.8-1.2.2-.4.3-.9.3-1.3,0-.4,0-.9-.1-1.3-.1-.5-.4-.9-.7-1.3-.3-.4-.8-.9-1.6-1.5-.5-.4-1.2-1-2-1.6-.8-.6-1.4-1.1-1.9-1.4-.5-.4-1.1-.9-1.8-1.5ZM43.9,34.8c-1.2,1.3-2.7,2.7-4.3,4.3-1.8,1.8-3.3,3.3-4.5,4.5l.7.7c.5.5,1.5,1.5,3,3.1,1.5,1.6,2.7,2.8,3.5,3.8.9,1,1.9,2.2,3.2,3.7l1.1-1.1,3.5-3.5c1.5-1.5,2.9-2.9,4.2-4.2-.8-.9-1.6-1.7-2.3-2.6-.5.6-.9,1-1.2,1.3l-1.6,1.7c-.8.9-1.4,1.4-1.7,1.7l-.9.9-1.8-2c.9-.9,1.7-1.8,2.4-2.5.5-.5,1.2-1.2,2.1-2.1-.9-1-1.7-1.8-2.3-2.5-1.2,1.3-2,2.1-2.3,2.4-.8.8-1.5,1.5-2.2,2.2l-1.8-1.9c.5-.6,1-1,1.2-1.3.3-.3.8-.8,1.5-1.6.7-.7,1.6-1.5,2.6-2.5-.2-.2-.4-.4-.6-.6l-.8-.9c-.4-.4-.6-.7-.7-.7l-.2-.3ZM227.2,39.6c-.4,0-.7,0-1.1.1-1.4.3-2.8,1-4,2.1-.8.8-1.4,1.6-1.9,2.4-.4.9-.6,1.9-.6,3,0,1.1.3,2.2.8,3.3.5,1.1,1.3,2.1,2.1,3,.9.9,1.8,1.7,2.9,2.3s2.2,1,3.3,1.2c1.1.1,2.2,0,3.3-.4,1.1-.4,2.1-1,3-1.8.9-.8,1.5-1.7,1.9-2.6.4-.9.6-1.9.5-3,0-1.1-.3-2.1-.8-3.2-.5-1-1.2-2-2-2.8-1.3-1.4-2.7-2.4-4.2-3-1.1-.5-2.3-.7-3.4-.7ZM228.9,43.9c.4,0,.8,0,1.2.2.8.2,1.5.7,2.1,1.3.6.6.9,1.2,1.1,2,.2.7.1,1.5-.2,2.2-.3.7-.7,1.3-1.3,1.8-.6.6-1.3.9-2.1,1.2-.8.2-1.6.3-2.4,0-.8-.2-1.4-.6-2-1.2-.5-.6-.9-1.2-1.1-2s-.2-1.5,0-2.2c.3-.7.7-1.3,1.3-1.8.6-.6,1.3-1,2.2-1.2.4-.1.8-.2,1.2-.2ZM31.3,47.6c-.8,1.1-1.3,1.9-1.8,2.5-.6.9-1.3,1.7-2,2.6.5.6.8,1,1,1.2.2.3.6.9,1.2,1.8s1.3,1.8,1.8,2.5c.5.7,1.2,1.6,1.9,2.5-1.6-.7-2.7-1.3-3.4-1.6-.7-.3-1.5-.6-2.4-.9-.9-.4-1.6-.6-1.9-.8-.3-.1-.8-.4-1.3-.7-.8,1.1-1.4,1.9-1.8,2.4-.5.6-1.1,1.5-1.9,2.6l4,3.3,6,5.1,1.7,1.6c.6-.8,1-1.3,1.2-1.7.2-.2.6-.7,1.2-1.6l-1.2-.9-5-4-2.4-2.1c.4.2.7.4.9.4.2,0,.3.1.4.2l3.2,1.3,5.8,2.5c.6-.8,1-1.3,1.2-1.7.2-.3.6-.8,1.2-1.6l-4-5.4-2.8-3.8c.5.3.8.5,1.1.7.6.4,1.9,1.4,3.9,2.9,2,1.5,3.3,2.6,3.8,3,.5-.7.9-1.3,1.2-1.7.2-.3.7-.9,1.2-1.7-.6-.4-1-.7-1.2-.9-1.1-.8-3.1-2.2-5.9-4.4-1.4-1.1-3.2-2.4-5.1-4ZM243.4,53.8c-.8.5-1.8,1.2-3.1,2-1.3.8-2.6,1.6-3.8,2.3-1.2.7-2.2,1.3-3.2,1.8s-2,1.1-3.2,1.7c.6.9,1.1,1.6,1.3,1.9.2.3.7,1,1.3,2,1.8-1.2,3.6-2.3,5.5-3.5,1.9-1.2,3.5-2.1,4.8-2.9.2.3.4.6.6.8.2.2.3.4.5.7.4.6.7,1.2.8,1.5.1.4.1.7,0,1-.1.3-.3.5-.6.7-.3.2-.7.3-1.1.3-.4,0-.8-.1-1.2-.4-.4-.3-.7-.6-1-1.1-.2-.3-.4-.7-.6-1.1l-2,2.7c-.6.8-1.1,1.5-1.4,1.9-.1.2-.4.5-.7.8-.7.8-1.2,1.4-1.4,1.8.7,1,1.2,1.7,1.5,2.2.2.4.7,1.1,1.4,2.1.3-.4.4-.6.5-.8l1.9-3.1c.2-.4.5-.7.7-1.1l.9-1.3c.7.5,1.2.8,1.7,1,.5.2,1,.3,1.4.3.5,0,.9,0,1.3-.2.4-.1.9-.3,1.3-.6.4-.2.7-.5,1-.8.3-.3.5-.6.6-1,.1-.3.2-.7.2-1.1,0-.4,0-.8-.2-1.3-.1-.5-.3-.9-.6-1.4-.4-.7-.8-1.4-1.3-2.2-.5-.7-.9-1.4-1.4-2.1-.5-.7-.9-1.3-1.3-1.8-.3-.5-.7-1.1-1.2-1.9ZM18.6,65.5l-.7,1.3-1.2,2.4-1.3,2.5c-1.3,2.5-2.4,4.7-3.4,6.5.7.4,1.4.7,1.9,1.1l1.1.6,2.1-4.3c3.9,2.1,7.4,4.1,10.4,6.1.6-1.2,1-2,1.2-2.3.2-.3.5-1,1.1-2.1-.8-.4-1.9-1-3.2-1.7-1.3-.7-2.7-1.5-4.1-2.3-1-.6-2.1-1.2-3.2-1.9l.4-.7c.5-.9,1.1-2.1,1.9-3.4-.2,0-.4-.2-.8-.4-.3-.2-.8-.4-1.3-.7l-1-.6ZM252.7,67.9c-.7.3-1.4.6-2,.9l-1.2.5,2.3,4.2c-4,1.9-7.7,3.5-11.1,4.8.6,1.2,1,2,1.2,2.3.2.3.5,1,1.1,2.1.8-.4,2-.9,3.3-1.6,1.4-.6,2.8-1.3,4.3-1.9,1-.4,2.2-.9,3.4-1.4l.3.7c.5.9,1,2.1,1.7,3.6.2,0,.5-.2.8-.4.4-.2.8-.4,1.3-.6l1-.4-.7-1.3-1.2-2.4-1.2-2.4c-1.3-2.5-2.4-4.7-3.3-6.6ZM12.7,82.1c-.2,0-.4,0-.6,0-.3,0-.7.3-1,.5-.3.2-.7.5-1,.9-.3.4-.6.8-.8,1.3-.3.7-.6,1.5-1,2.3-.3.8-.6,1.5-.8,2.3-.3.8-.5,1.5-.7,2.1-.2.5-.5,1.2-.8,2.1.9.3,2,.8,3.5,1.3s2.8,1.1,4.1,1.6c1.3.5,2.4,1,3.4,1.4s2.1,1,3.2,1.5c.4-1.1.6-1.8.8-2.2.1-.3.4-1.1.8-2.2-2-.7-4-1.5-6.1-2.3-2.1-.8-3.8-1.5-5.2-2.1.1-.3.2-.7.3-.9s.2-.5.2-.8c.3-.7.5-1.2.8-1.5.2-.3.5-.5.8-.6.3,0,.6,0,.9,0,.4.1.7.4.9.7.2.3.4.7.4,1.2,0,.5,0,1-.3,1.5-.1.4-.3.7-.5,1.1h3.4c1,0,1.8,0,2.4,0,.3,0,.6,0,1.1,0,1.1,0,1.9.1,2.3.1.4-1.1.7-2,.9-2.5.1-.4.4-1.2.9-2.3-.5,0-.8,0-.9,0l-3.6.3c-.5,0-.9,0-1.3,0h-1.6c0-.7,0-1.4-.2-1.8-.1-.5-.3-.9-.6-1.3-.3-.4-.6-.7-1-1s-.8-.5-1.2-.7c-.4-.2-.8-.2-1.2-.2-.2,0-.4,0-.6,0ZM245.1,86.2c.4,1.2.7,2.1.9,2.6.1.3.4,1.1.8,2.4,1.7.2,3.3.4,4.8.6l1.8,5.3c-1.4,1.1-2.6,2-3.7,2.7.4,1.1.7,2,.9,2.6,0,.3.3,1,.7,2.2l1.4-1.1,7.5-6,3.9-3c-.3-.8-.6-1.8-.9-2.8-.2-.6-.5-1.5-.9-2.7-.7,0-1.3-.2-1.7-.2l-1.4-.2-12.3-2.1-1.8-.4ZM255.1,92.1l1.8.2c.8.1,1.8.2,3,.3-.2.2-1.5,1.1-3.7,2.7l-1.1-3.3ZM19.8,100.7l-1.8.3-9.5,1.5-4.9.7c-.2.9-.4,1.8-.6,2.9-.1.6-.3,1.5-.6,2.8.6.4,1.1.8,1.4,1.1l1.1.8,9.6,7.8,1.4,1.2c.2-1.2.4-2.1.5-2.7,0-.3.2-1.1.5-2.5-1.4-1-2.7-1.9-3.9-2.8l1.1-5.5c1.8-.3,3.3-.5,4.6-.5.2-1.2.4-2.1.5-2.7,0-.3.2-1.1.5-2.3ZM266.4,102.6c-.8.1-1.5.3-2.2.3l-1.2.2,1,4.7c-4.3.7-8.3,1.2-12,1.5.3,1.4.4,2.2.5,2.5,0,.3.2,1.1.4,2.3.9-.2,2.1-.4,3.6-.6,1.5-.2,3.1-.5,4.7-.7,1.1-.1,2.4-.3,3.7-.4v.8c.3,1,.5,2.3.7,3.9.2,0,.5,0,.9-.1.4,0,.9-.1,1.5-.2h1.1c0-.1-.3-1.5-.3-1.5l-.5-2.7-.5-2.7c-.5-2.8-.9-5.2-1.3-7.3ZM10.8,106.3l-.7,3.4-1.5-1.1c-.6-.5-1.4-1.1-2.4-1.8.3,0,1.8-.2,4.6-.5ZM4.5,118.6c-.2,0-.5,0-.7,0-.5,0-.9.3-1.3.5-.4.2-.7.5-1,.9-.3.4-.5.8-.7,1.2-.2.5-.3,1.2-.3,2.2,0,.7,0,1.5,0,2.5,0,1,0,1.8,0,2.3,0,.6,0,1.4-.2,2.4.7,0,1.3,0,1.6,0,.4,0,.9,0,1.3,0l4,.3,5.6.6,2.9.4c0-1.2.1-2,.1-2.3l.2-2.2h-1.5c-.6,0-2.6-.3-5.8-.5-1.8-.2-3.4-.3-4.8-.5v-.9c0-.3,0-.6,0-.8,0-.3,0-.5,0-.7,0-.2.1-.4.3-.6.1-.2.3-.3.5-.3.2,0,.4-.1.7,0,.5,0,.9.2,1.3.6.3.4.5.9.4,1.7,0,.4,0,.7-.2,1,.3,0,.9-.2,1.6-.3.7-.1,1.2-.2,1.6-.2.1-.5.2-1,.2-1.4,0-1.1,0-2.1-.4-3-.4-.9-.9-1.6-1.8-2.2-.8-.5-1.7-.8-2.7-.9-.2,0-.5,0-.8,0h0ZM269.1,119.5l-1.4.2c-3.2.3-7.9.4-14,.5.1,1.4.2,2.3.3,2.7l.2,2.3c1.3-.1,2.9-.2,4.7-.3s3.8-.2,5.9-.3c1.5,0,3.1,0,4.8,0-.1-1.4-.2-2.2-.2-2.4,0-.4-.1-1.3-.2-2.6ZM261.2,127.9c-.8,0-1.6.2-2.2.4-.9.3-1.8.9-2.6,1.8-.8.8-1.3,1.8-1.7,2.9-.4,1.1-.6,2.3-.6,3.6,0,1.3,0,2.5.4,3.7.3,1.2.8,2.2,1.5,3.1.7.9,1.6,1.6,2.6,2,1,.5,2.2.7,3.5.8,1.2,0,2.2-.1,3.2-.5.9-.4,1.8-.9,2.5-1.8.7-.8,1.3-1.8,1.6-2.8.4-1.1.6-2.2.6-3.4,0-1.9-.3-3.5-.9-5-.7-1.5-1.6-2.6-2.8-3.4-1.2-.8-2.6-1.2-4.3-1.2-.3,0-.6,0-.8,0ZM261.9,132.7c.9,0,1.7.2,2.4.6.7.4,1.3,1,1.7,1.7.4.7.6,1.5.6,2.3,0,.8-.2,1.5-.6,2.2-.4.6-.9,1.1-1.6,1.4-.7.3-1.4.5-2.2.4-.8,0-1.6-.2-2.3-.6-.7-.4-1.3-.9-1.7-1.6-.4-.7-.6-1.5-.6-2.3,0-.8.2-1.5.6-2.2s1-1.2,1.6-1.5c.7-.3,1.4-.5,2.2-.5ZM12,134.9c.1.8.2,1.4.2,1.7l.2,2.3c.1,1.2.2,2,.2,2.3v1.3c0,0-2.7,0-2.7,0-.1-1.3-.2-2.4-.3-3.4,0-.7-.1-1.7-.2-3-1.3,0-2.5,0-3.4,0,.2,1.8.3,2.9.3,3.3,0,1.2.2,2.2.2,3.1h-2.6c0-.8-.2-1.3-.2-1.7,0-.4,0-1.1-.1-2.2,0-1-.1-2.2-.2-3.6-.3,0-.5,0-.8,0h-1.2c-.6,0-.9,0-1,0h-.4c.1,1.7.3,3.8.4,6.1.2,2.5.3,4.6.4,6.3h1c.7-.1,2.1-.2,4.3-.2,2.2,0,3.9,0,5.2,0s3,0,4.9,0v-1.6c-.1,0-.5-4.9-.5-4.9-.1-2.2-.2-4.2-.3-6-1.2,0-2.4,0-3.5,0h0ZM253.8,147.8c-.2,1.1-.4,1.9-.4,2.3,0,.5-.2,1.2-.4,2.1l4.4.9,5.2,1.2c-.8.2-1.5.4-2.2.7-1,.3-2.1.7-3.3,1.1l-3.5,1.2c-.4.1-.9.3-1.8.5-.2,1.2-.4,2.2-.5,2.8-.2.8-.4,1.7-.6,2.7l2.7.6,9.1,2.3,3.2.9c.2-1.2.4-1.9.4-2.2.1-.5.2-1.3.4-2.2-.9-.2-2.4-.5-4.6-1-2.2-.5-3.9-.9-5.2-1.2l1.4-.4,9.5-3c.2-1.1.4-2,.5-2.6.2-.9.4-1.9.6-3l-1.7-.3-3.2-.8-7.8-1.9-2.3-.7ZM10.6,150.6c-.8,0-1.6,0-2.5.2-.8.2-1.7.5-2.4.8-.8.4-1.4.9-1.9,1.4-.5.6-.9,1.2-1.1,1.9-.2.7-.3,1.4-.3,2.2,0,.8.1,1.6.3,2.6.2.9.4,1.8.6,2.7.2,1,.4,1.7.6,2.3.1.6.2,1.3.4,2.2l1.3-.2c.8-.2,2.1-.4,3.9-.7,2.4-.4,4.4-.7,5.9-.9,1-.1,2.4-.3,4.1-.5-.2-.9-.4-1.6-.5-2l-.9-4.4c-.2-1-.4-1.9-.7-2.7-.2-.7-.5-1.2-.7-1.6-.2-.4-.5-.7-.8-1.1-.4-.5-.9-.9-1.4-1.2-.5-.3-1.1-.6-1.8-.8-.7-.2-1.4-.3-2.2-.3ZM10.4,155.3c.4,0,.7,0,1.1,0,.7,0,1.3.3,1.9.6.5.4.9.8,1.2,1.4.3.6.4,1.2.6,1.9,0,.4.2.8.2,1.2l-8.6,1.4c-.2-.7-.4-1.3-.5-1.8-.2-.9-.2-1.7,0-2.2.1-.6.5-1.1,1-1.5.5-.4,1.2-.7,2.1-.9.4,0,.7-.1,1.1-.2h0ZM19.7,186.3c-2.3,0-4.1,1.8-4.1,4s1.8,4,4.1,4,4.1-1.8,4.1-4-1.8-4-4.1-4ZM250,186.3c-2.3,0-4.1,1.8-4.1,4s1.8,4,4.1,4,4.1-1.8,4.1-4-1.8-4-4.1-4ZM233.4,206.3c-.9,1.1-1.4,1.8-1.5,1.9-.3.3-.8,1-1.7,2l1.2.9c2.6,2,6.1,5,10.5,9.1.9-1.1,1.4-1.8,1.7-2.2l1.5-1.8c-1-.8-2.2-1.7-3.6-2.9-1.4-1.2-2.9-2.4-4.5-3.8-1.1-1-2.3-2.1-3.6-3.2ZM38.5,211.1c-.5,0-1,0-1.4.2-.4.2-.8.4-1.2.7-.3.2-.5.5-.7.8-.2.3-.3.6-.4,1-.1.4-.2.9-.2,1.4,0,.3,0,.7,0,1.4v2.8c0,.3,0,.5,0,.7,0,.2,0,.3-.2.4,0,.1-.2.2-.2.3-.3.2-.6.3-1,.1-.4-.2-.8-.5-1.2-1-.3-.4-.6-.9-1-1.4-.3-.6-.6-1.3-.9-2.2-.6.7-1.5,1.6-2.7,2.8,1,1.6,1.8,2.9,2.6,3.8.5.6,1.1,1.1,1.7,1.5.6.4,1.2.8,1.9.9.7.2,1.4.2,2,0,.7-.2,1.3-.5,1.8-.9.2-.2.4-.3.5-.5.1-.2.3-.4.4-.6s.2-.5.2-.8,0-.7.1-1.1c0-.4,0-.8,0-1.1v-1c-.1-.7-.1-1.3-.1-1.6,0-.3,0-.7,0-.9,0-.2,0-.4.2-.6,0-.1.2-.3.3-.4.2-.2.6-.2,1,0,.4.1.8.4,1.2.9.3.3.6.7.9,1.2.3.5.6,1.1.8,1.8.7-.8,1.3-1.4,1.6-1.7.3-.3.7-.6,1-1-.8-1.3-1.6-2.4-2.4-3.4-.4-.5-.9-.9-1.4-1.3-.5-.4-1-.7-1.6-.9s-1.1-.3-1.6-.3ZM228.2,212.6c-.9,1-1.5,1.7-1.6,1.8-.3.3-.9,1-1.8,1.9l1.1.9c2.4,2.2,5.7,5.4,9.9,9.8.9-1,1.5-1.7,1.8-2l1.6-1.7c-1-.9-2.1-1.9-3.4-3.2-1.3-1.2-2.7-2.6-4.2-4.1-1.1-1.1-2.2-2.2-3.3-3.4ZM47.2,218.7c-.5.6-1.1,1.1-1.5,1.6l-.9.9,3.6,3.1c-3,3.2-5.9,6-8.6,8.4,1.1.9,1.7,1.5,1.9,1.7.3.2.9.8,1.8,1.6.6-.7,1.5-1.6,2.5-2.7,1.1-1.1,2.1-2.2,3.3-3.3.8-.8,1.7-1.6,2.7-2.5l.6.5c.8.7,1.7,1.6,2.9,2.7.1-.1.3-.3.6-.6.3-.3.6-.6,1-1l.8-.8-1.1-1-2-1.8-2.1-1.8c-2.1-1.9-4-3.5-5.5-5ZM219.2,221.9c-.7.6-1.4,1.2-2.2,1.9-.5.4-1.2,1-2.2,1.9.2.7.3,1.3.4,1.7l.4,1.3,2.9,12,.4,1.8c.9-.8,1.6-1.5,2.1-1.8.2-.2.9-.8,1.9-1.7-.5-1.6-1-3.2-1.4-4.6l4.3-3.7c1.6.8,2.9,1.6,4,2.3.9-.8,1.6-1.4,2.1-1.8.2-.2.8-.7,1.8-1.5l-1.6-.8-8.5-4.5-4.3-2.4ZM219.1,226.5c.2.1,1.6.9,4,2.3l-2.6,2.3-.5-1.8c-.2-.7-.5-1.7-.8-2.8ZM208.8,231.2c-.7.4-1.4.8-1.9,1.2-.5.3-1.2.7-1.9,1.1l.6,2.2,1,4.4c.2.9.3,1.5.4,1.8,0,.3.1.6.2.9l.5,1.6-4-4.6-3-3.7c-.8.5-1.6,1-2.2,1.3-.6.4-1.4.8-2.2,1.3l1.3,3.9,1.5,5.1.5,1.5c-.9-1.1-1.7-2-2.4-2.7l-3.1-3.4c-.4-.4-1-1.1-1.8-2.1-.7.5-1.4.9-2,1.2-.5.3-1.2.7-2,1.2l2,2.1,5.9,6.2c.6.7,1.1,1.2,1.4,1.5l1.4,1.6c.9-.6,1.7-1,2.4-1.4.6-.4,1.5-.9,2.4-1.4l-1.8-6.5c-.1-.4-.2-.8-.3-1.2l-.6-1.7c.4.6.8,1,1,1.3.2.3.4.5.6.8l3.6,4.1,1,1.2c.9-.6,1.7-1.1,2.5-1.5.7-.4,1.6-.9,2.6-1.5l-.6-2.3-3-13.3ZM64,232.5c-.6.4-1.2.6-1.5.8l-1.2.7-11,5.8-1.7.8c1.1.7,1.8,1.2,2.3,1.5.3.2.9.6,2.1,1.4,1.5-.9,2.9-1.7,4.2-2.4l4.7,3.2c-.4,1.7-.9,3.2-1.3,4.4,1,.7,1.8,1.2,2.3,1.5.2.2.9.6,2,1.3l.4-1.7,2.3-9.2,1.3-4.8c-.8-.5-1.6-1-2.4-1.6-.5-.3-1.3-.9-2.4-1.6ZM64.3,236.8c0,.3-.5,1.7-1.3,4.4l-2.9-2,1.6-.9c.7-.4,1.6-.9,2.6-1.5ZM74.6,239.3c-.4.7-.7,1.4-1,1.9l-.6,1.1,4.4,2c-2,3.9-4,7.3-5.9,10.4,1.3.6,2.1,1,2.3,1.1.3.2,1.1.5,2.2,1.1.4-.8,1-1.9,1.7-3.2.7-1.3,1.4-2.7,2.2-4.1.6-1,1.2-2,1.9-3.2l.7.3c.9.5,2.1,1.1,3.5,1.8,0-.2.2-.4.4-.8.2-.3.4-.8.7-1.3l.5-1-1.3-.6-2.4-1.2-2.5-1.2c-2.6-1.2-4.8-2.3-6.7-3.3ZM181.2,245.9c-.8.3-1.8.7-2.8,1-.6.2-1.5.5-2.7,1,0,.7-.1,1.3-.2,1.7l-.2,1.4-1.7,12.2-.3,1.8c1.2-.4,2.1-.8,2.6-1,.3-.1,1.1-.4,2.4-.9.1-1.7.2-3.3.4-4.7l5.3-2c1.2,1.3,2.1,2.5,2.9,3.6,1.1-.4,2-.8,2.6-1,.3,0,1-.4,2.2-.8l-1.2-1.3-6.3-7.2-3.2-3.8ZM89.6,246.3l-.3.9c-.2.7-.7,2-1.5,4-.8,2-1.4,3.6-1.9,4.8-.5,1.2-1.2,2.7-2,4.4l1.5.5,4.7,1.6c2.1.7,4,1.4,5.7,2,.4-1.1.9-2.1,1.3-3.2-.8-.2-1.3-.4-1.7-.5l-2.2-.7c-1.1-.4-1.9-.6-2.2-.8l-1.2-.4,1-2.5c1.2.4,2.4.7,3.3,1.1.7.2,1.6.5,2.8,1,.5-1.2.9-2.3,1.3-3.1-1.7-.5-2.8-.9-3.2-1-1.1-.4-2.1-.7-2.9-1l1-2.4c.8.2,1.4.4,1.7.5.4.1,1,.4,2.1.7.9.3,2.1.7,3.4,1.2,0-.3.2-.5.3-.8l.5-1.1c.2-.5.3-.8.4-.9v-.3c-1.6-.6-3.5-1.2-5.7-2-2.4-.8-4.4-1.5-6.1-2.1ZM179.4,250.1c.2.2,1.1,1.4,2.9,3.6l-3.3,1.2.2-1.8c0-.8.2-1.7.2-2.9ZM167.3,250.8c-1.3.3-2.1.4-2.3.5l-2.6.5c.1.5.2.8.2,1,0,.4.2,1.1.4,2.1.2,1,.3,1.8.4,2.4l-6,1.2c-.3-1.6-.5-3.5-.8-5.6-1.1.2-1.9.4-2.4.5-.6.1-1.4.3-2.6.5l.2,1.1c.1.5.2,1.1.3,1.6l.3,1.9.7,4.4.8,6.1c1.3-.3,2.1-.4,2.4-.5l2.6-.5-1-6.1,6-1.2c.4,2.3.7,4.4.8,6.1,1.4-.3,2.2-.4,2.6-.5l2.4-.5c-.5-2.5-.9-4.7-1.2-6.6-.3-1.8-.7-4.7-1.2-8.5ZM116.2,253.3c-.9,0-1.7.2-2.5.5-1.6.5-2.8,1.3-3.8,2.4-.9,1.1-1.5,2.5-1.7,4.1-.1,1.1-.1,2.1.1,3.1.2.9.7,1.8,1.5,2.7.8.8,1.7,1.5,2.8,2,1.1.5,2.3.8,3.6,1,1.3.2,2.5.1,3.8,0,1.2-.2,2.3-.6,3.2-1.2.9-.6,1.7-1.4,2.3-2.4.6-1,1-2.1,1.2-3.3.2-1.2,0-2.2-.2-3.2-.3-1-.8-1.9-1.5-2.7-.7-.8-1.7-1.4-2.7-1.9-1.1-.5-2.2-.8-3.4-.9-.9-.1-1.8-.2-2.7,0h0ZM142.9,254.6c-1.8,0-3.7,0-5.7,0-2,0-4.1,0-6.3,0v1.2c0,.8,0,2.4,0,4.8,0,2.4,0,4.2-.2,5.6,0,.9-.1,2.1-.2,3.7,1.6,0,2.4,0,2.6,0h2.4v-6c1.2,0,2.3,0,3.3,0,.6,0,1.5,0,2.7,0,0-.8,0-1.9,0-3.3-1.1,0-1.9,0-2.4,0h-1.8s-1.6,0-1.6,0v-2.6c1.3,0,2.1,0,2.3,0h2.2s.8,0,.8,0h.8s1,0,1,0c0-.5,0-1.6.1-3.3h0ZM117.7,256.6c.2,0,.4,0,.6,0,.8.1,1.5.4,2.1.8.6.5,1,1,1.3,1.8.2.7.3,1.5.2,2.2-.1.8-.4,1.6-.8,2.2-.5.7-1.1,1.2-1.8,1.5-.7.3-1.5.4-2.4.3-.8-.1-1.5-.4-2.1-.8-.6-.5-1.1-1-1.3-1.7-.3-.7-.3-1.4-.2-2.2.1-.8.4-1.6.9-2.3.5-.7,1.1-1.2,1.8-1.5.6-.2,1.2-.4,1.8-.4Z" inkscape:connector-curvature="0"/>
  <path id="path88" class="st0" d="M131.4,94.6c6.8-4.7,15.8-5.5,23.2-1.2,3,1.7,5.4,4,7.1,6.7,3,4.6,60.7,101.3,60.7,101.3l6.3-6.4-57.6-97-1.7-2c-2.5-4-6-7.5-10.4-10-6.4-3.7-13.7-4.7-20.5-3.4l34-57.7-4.8-1-5.3-1.4-53.8,93.4-.7,1.8-1.5,2.7.2.2c-1.6,3.6-2.5,7.5-2.5,11.7,0,6.2,2,11.8,5.3,16.6,1.3,2,2.8,3.8,4.5,5.5h-9.9c-7.5-3.4-12.7-10.7-12.7-19.2s.8-6.6,2.3-9.5c2.5-4.9,58.3-102.7,58.3-102.7l-8.8-2.1-56.1,97.9-.9,2.5c-2.2,4.1-3.5,8.8-3.5,13.8,0,7.3,2.8,14,7.3,19.2H22.2l2.5,8.6h108.4l2.1-.4c5.8-.1,11.6-1.9,16.5-5.2,6.6-4.1,11.5-10.6,13.4-18.2,2.8,3.5,4.4,7.9,4.4,12.7,0,11.7-10,21.3-22.2,21.3l-9.9.8H29.5s2.5,8.6,2.5,8.6h113.4l7.5-1.3c11.9-2.1,21.4-10.8,24.4-21.9l33.9,57.4,6.3-6.4-54.6-92.4-1.7-2c-2.5-4-6-7.5-10.4-10-7.6-4.4-16.4-5-24.2-2.5,1.5-2.6,3.1-5.4,4.7-8.2,0,0,.3-.5.3-.5ZM155.2,123.1c2.6,6.1,2.4,13.5-1.3,19.8-1.8,3.1-4.3,5.6-7.1,7.4-3.4,2-7.4,3.2-11.7,3.2-7.4,0-14-3.5-18-8.9-4.5-6.7-5-15.7-.6-23.2,2.1-3.6,5.1-6.4,8.5-8.2,3-1.5,6.5-2.3,10.1-2.3,8.9,0,16.5,5,20.1,12.2h0Z" inkscape:connector-curvature="0"/>
  <rect id="_x3C_Slice_x3E_" class="st1" x="-9" y="-9.8" width="288" height="288"/>
</svg>