<?xml version="1.0" encoding="UTF-8" standalone="no"?>
<!-- Generator: Adobe Illustrator 12.0.1, SVG Export Plug-In  -->

<svg
   xmlns:dc="http://purl.org/dc/elements/1.1/"
   xmlns:cc="http://creativecommons.org/ns#"
   xmlns:rdf="http://www.w3.org/1999/02/22-rdf-syntax-ns#"
   xmlns:svg="http://www.w3.org/2000/svg"
   xmlns="http://www.w3.org/2000/svg"
   xmlns:sodipodi="http://sodipodi.sourceforge.net/DTD/sodipodi-0.dtd"
   xmlns:inkscape="http://www.inkscape.org/namespaces/inkscape"
   version="1.1"
   width="270.0065"
   height="270"
   viewBox="0 0 270.0065 270"
   enable-background="new 0 0 288 288"
   xml:space="preserve"
   id="svg2"
   inkscape:version="0.48.1 "
   sodipodi:docname="AJAX.svg"><metadata
   id="metadata93"><rdf:RDF><cc:Work
       rdf:about=""><dc:format>image/svg+xml</dc:format><dc:type
         rdf:resource="http://purl.org/dc/dcmitype/StillImage" /></cc:Work></rdf:RDF></metadata><sodipodi:namedview
   pagecolor="#ffffff"
   bordercolor="#666666"
   borderopacity="1"
   objecttolerance="10"
   gridtolerance="10"
   guidetolerance="10"
   inkscape:pageopacity="0"
   inkscape:pageshadow="2"
   inkscape:window-width="1280"
   inkscape:window-height="1004"
   id="namedview91"
   showgrid="false"
   fit-margin-top="0"
   fit-margin-left="0"
   fit-margin-right="0"
   fit-margin-bottom="0"
   inkscape:zoom="1.2980983"
   inkscape:cx="201.84279"
   inkscape:cy="91.634643"
   inkscape:window-x="-8"
   inkscape:window-y="-8"
   inkscape:window-maximized="1"
   inkscape:current-layer="svg2" />
<defs
   id="defs4">
</defs>
<path
   style="fill:#005288;fill-opacity:1;stroke:none"
   d="m 128.46875,0 c -0.028,0.784 -0.085,1.49925 -0.125,2.15625 l -0.0625,1.21875 4.8125,-0.03125 c -0.149,4.338 -0.431,8.30225 -0.875,11.90625 1.405,0.008 2.27075,0.02525 2.59375,0.03125 0.361,0.006 1.144,0.0265 2.375,0.0625 0.017,-0.928 0.054,-2.15525 0.125,-3.65625 0.072,-1.5 0.16925,-3.032 0.28125,-4.625 0.08,-1.112 0.20575,-2.314 0.34375,-3.625 l 0.78125,0 c 1.047,0.017 2.389,0.0855 4,0.1875 0.005,-0.194 0.0132,-0.494 0.0312,-0.875 0.02,-0.38 0.0215,-0.8555 0.0625,-1.4375 l 0.0938,-1.09375 -1.46875,0 -2.71875,-0.0625 L 135.9375,0.125 C 133.0895,0.079 130.60775,0.049 128.46875,0 z m 17.6875,0.40625 c -0.12,0.899 -0.30325,2.107 -0.53125,3.625 -0.228,1.518 -0.4495,2.9495 -0.6875,4.3125 -0.238,1.363 -0.4685,2.56475 -0.6875,3.59375 -0.216,1.027 -0.5005,2.18975 -0.8125,3.46875 1.127,0.129 1.90875,0.195 2.34375,0.25 0.372,0.047 1.1945,0.16975 2.4375,0.34375 0.296,-2.089 0.60975,-4.212 0.96875,-6.375 0.358,-2.163 0.67475,-4.002 0.96875,-5.5 0.377,0.039 0.716,0.06975 1,0.09375 0.282,0.024 0.5505,0.05975 0.8125,0.09375 0.772,0.098 1.3335,0.24025 1.6875,0.40625 0.357,0.164 0.609,0.365 0.75,0.625 0.14,0.261 0.19725,0.559 0.15625,0.875 -0.048,0.375 -0.228,0.72225 -0.5,1.03125 -0.271,0.309 -0.62675,0.52 -1.09375,0.625 -0.467,0.104 -0.98425,0.10025 -1.53125,0.03125 -0.389,-0.049 -0.76025,-0.122 -1.15625,-0.25 l 0.75,3.28125 c 0.228,0.989 0.388,1.73525 0.5,2.28125 0.057,0.247 0.1175,0.6115 0.1875,1.0625 0.178,1.08 0.307,1.82075 0.375,2.21875 1.229,0.141 2.11725,0.2445 2.65625,0.3125 0.424,0.054 1.23775,0.17275 2.46875,0.34375 -0.116,-0.435 -0.201,-0.726 -0.25,-0.875 l -1.0625,-3.4375 c -0.134,-0.429 -0.263,-0.87025 -0.375,-1.28125 L 155.125,10.09375 c 0.786,-0.191 1.39475,-0.401 1.84375,-0.625 0.452,-0.223 0.8645,-0.49875 1.1875,-0.84375 0.323,-0.344 0.567,-0.74125 0.75,-1.15625 0.184,-0.414 0.312,-0.84975 0.375,-1.34375 0.057,-0.441 0.0317,-0.88025 -0.0312,-1.28125 -0.068,-0.401 -0.17075,-0.7485 -0.34375,-1.0625 -0.173,-0.314 -0.4055,-0.602 -0.6875,-0.875 -0.284,-0.271 -0.6255,-0.53 -1.0625,-0.75 -0.44,-0.219 -0.946,-0.376 -1.5,-0.5 -0.736,-0.169 -1.57425,-0.3155 -2.53125,-0.4375 -0.814,-0.103 -1.66725,-0.20525 -2.53125,-0.28125 -0.862,-0.077 -1.5895,-0.14175 -2.1875,-0.21875 -0.575,-0.073 -1.319,-0.1715 -2.25,-0.3125 z M 118.9375,0.875 c -1.786,0.313 -3.65775,0.6135 -5.59375,0.9375 -1.921,0.323 -3.98475,0.67025 -6.21875,1.03125 l 0.1875,1.21875 c 0.139,0.806 0.3685,2.37275 0.6875,4.71875 0.318,2.346 0.5475,4.18325 0.6875,5.53125 0.095,0.911 0.18425,2.14325 0.28125,3.65625 1.549,-0.276 2.438,-0.44075 2.625,-0.46875 l 2.375,-0.375 -0.0625,-0.5 -0.25,-1.46875 -0.5625,-3.96875 c 1.153,-0.232 2.2065,-0.42775 3.1875,-0.59375 0.579,-0.097 1.4835,-0.211 2.6875,-0.375 -0.135,-0.783 -0.2825,-1.88325 -0.4375,-3.28125 -1.066,0.202 -1.88625,0.3515 -2.40625,0.4375 l -1.78125,0.28125 -1.625,0.25 -0.34375,-2.5625 c 1.222,-0.219 1.96575,-0.36425 2.21875,-0.40625 l 2.1875,-0.375 0.78125,-0.125 0.78125,-0.09375 0.96875,-0.15625 c -0.09,-0.521 -0.203,-1.6065 -0.375,-3.3125 z M 169.59375,4.5 c -0.495,0.557 -0.853,0.98625 -1.125,1.28125 l -0.9375,1 -8.625,8.875 -1.34375,1.3125 c 1.232,0.328 2.1355,0.56375 2.6875,0.71875 0.306,0.085 1.12075,0.32775 2.46875,0.71875 1.106,-1.328 2.16825,-2.542 3.15625,-3.625 l 5.46875,1.53125 c 0.143,1.761 0.2075,3.26225 0.1875,4.53125 1.187,0.315 2.0755,0.54875 2.6875,0.71875 0.266,0.076 1.02825,0.29225 2.28125,0.65625 L 176.3125,20.5 175.5625,10.96875 175.25,6.0625 c -0.874,-0.228 -1.82175,-0.466 -2.84375,-0.75 -0.588,-0.164 -1.5405,-0.4425 -2.8125,-0.8125 z m -72.375,1 C 96.05775,5.534 94.896,5.759 93.75,6.125 c -1.792,0.572 -3.289,1.41925 -4.5,2.53125 -1.213,1.115 -1.99975,2.347 -2.34375,3.75 -0.342,1.402 -0.259,2.8895 0.25,4.4375 0.344,1.054 0.84275,1.96575 1.46875,2.71875 0.627,0.753 1.448,1.33925 2.5,1.78125 1.05,0.442 2.19325,0.63375 3.40625,0.59375 1.214,-0.04 2.414,-0.238 3.625,-0.625 1.224,-0.391 2.349,-0.942 3.375,-1.625 1.026,-0.685 1.8485,-1.4835 2.4375,-2.4375 0.588,-0.954 0.92425,-2.02425 1.03125,-3.15625 0.108,-1.13 -0.0162,-2.28075 -0.40625,-3.46875 C 104.22175,9.494 103.68,8.5575 103,7.8125 102.32,7.0695 101.48275,6.50675 100.46875,6.09375 99.45375,5.67975 98.37875,5.464 97.21875,5.5 z M 171.25,8.40625 c 0.005,0.28 0.0715,1.8065 0.1875,4.5625 l -3.375,-0.9375 1.25,-1.375 c 0.524,-0.58 1.1605,-1.333 1.9375,-2.25 z m -75.5,0.75 c 0.37937,-0.02362 0.755,0.01625 1.125,0.09375 0.738,0.155 1.37425,0.49425 1.90625,1.03125 0.53,0.537 0.9385,1.1825 1.1875,1.9375 0.254,0.779 0.3005,1.58525 0.1875,2.40625 -0.114,0.822 -0.43675,1.521 -0.96875,2.125 -0.532,0.602 -1.17575,1.02925 -1.96875,1.28125 -0.744,0.237 -1.50125,0.29425 -2.28125,0.15625 -0.78,-0.138 -1.43875,-0.481 -1.96875,-1 -0.529,-0.517 -0.91025,-1.126 -1.15625,-1.875 -0.268,-0.813 -0.34275,-1.64475 -0.21875,-2.46875 0.124,-0.825 0.43575,-1.54525 0.96875,-2.15625 0.534,-0.612 1.21025,-1.0495 2.03125,-1.3125 0.3895,-0.124 0.77688,-0.195125 1.15625,-0.21875 z m 89.0625,0.09375 -0.75,1.5625 -1.46875,2.875 -3.78125,7 -1.21875,2.03125 c 1.038,0.458 1.75,0.7675 2.125,0.9375 0.445,0.204 1.0975,0.50525 1.9375,0.90625 l 2,-3.96875 2.46875,-4.71875 c 0.026,0.808 0.066,1.561 0.125,2.25 0.067,1.082 0.15925,2.2345 0.28125,3.4375 l 0.375,3.65625 c 0.029,0.375 0.0507,0.9895 0.0937,1.8125 1.145,0.507 2.0415,0.8915 2.6875,1.1875 0.774,0.355 1.616,0.7655 2.5,1.1875 L 193.37495,27 l 4.40625,-8.15625 1.65625,-2.90625 c -1.113,-0.493 -1.79825,-0.79925 -2.03125,-0.90625 -0.505,-0.231 -1.167,-0.5385 -2,-0.9375 -0.369,0.783 -1.088,2.1795 -2.125,4.1875 -1.04,2.01 -1.86175,3.55625 -2.46875,4.65625 l -0.0625,-1.4375 -0.6875,-9.84375 c -1.06,-0.468 -1.8565,-0.82875 -2.4375,-1.09375 -0.814,-0.372 -1.7605,-0.8135 -2.8125,-1.3125 z M 76.25,13.125 l -1.28125,0.71875 -2.375,1.28125 -2.40625,1.34375 c -2.487,1.365 -4.6865,2.5505 -6.5625,3.5625 0.377,0.698 0.73125,1.3435 1.03125,1.9375 l 0.5625,1.125 4.125,-2.4375 c 2.07,3.825 3.83725,7.415 5.28125,10.75 1.223,-0.688 1.968,-1.094 2.25,-1.25 0.316,-0.172 1.00775,-0.546 2.09375,-1.125 -0.456,-0.809 -1.01875,-1.88575 -1.71875,-3.21875 -0.698,-1.333 -1.415,-2.72425 -2.125,-4.15625 -0.495,-1 -1.0165,-2.1115 -1.5625,-3.3125 l 0.6875,-0.375 c 0.916,-0.502 2.1085,-1.08525 3.5625,-1.78125 -0.096,-0.172 -0.22825,-0.43925 -0.40625,-0.78125 -0.179,-0.34 -0.39325,-0.7855 -0.65625,-1.3125 L 76.25,13.125 z m 127.6875,6.625 c -0.26988,0.024 -0.511,0.08275 -0.75,0.15625 -0.478,0.147 -0.90925,0.37625 -1.28125,0.65625 -0.374,0.281 -0.6915,0.618 -0.9375,1 -0.206,0.318 -0.3405,0.62975 -0.4375,0.96875 -0.1,0.338 -0.16625,0.70075 -0.15625,1.09375 0.01,0.394 0.0877,0.87425 0.21875,1.40625 0.064,0.26 0.181,0.6985 0.375,1.3125 L 201.78125,29 c 0.07,0.248 0.113,0.446 0.125,0.625 0.01,0.177 -0.002,0.35175 -0.0312,0.46875 -0.032,0.118 -0.0892,0.2055 -0.15625,0.3125 -0.202,0.313 -0.5045,0.45125 -0.9375,0.40625 -0.43,-0.048 -0.946,-0.24475 -1.5,-0.59375 -0.42,-0.264 -0.86675,-0.62175 -1.34375,-1.09375 -0.478,-0.472 -0.95875,-1.08275 -1.46875,-1.84375 -0.41,0.869 -1.00225,1.99 -1.78125,3.375 1.377,1.279 2.56675,2.226 3.59375,2.875 0.668,0.418 1.34825,0.754 2.03125,1 0.685,0.247 1.37975,0.388 2.09375,0.375 0.714,-0.013 1.36575,-0.19325 1.96875,-0.53125 0.602,-0.339 1.10475,-0.812 1.46875,-1.375 0.141,-0.22 0.2355,-0.43725 0.3125,-0.65625 0.08,-0.218 0.1585,-0.4415 0.1875,-0.6875 0.029,-0.246 0.024,-0.542 0,-0.875 -0.026,-0.333 -0.0693,-0.6825 -0.15625,-1.0625 -0.083,-0.379 -0.18325,-0.71 -0.28125,-1 L 205.56255,27.75 c -0.245,-0.683 -0.42725,-1.19725 -0.53125,-1.53125 -0.108,-0.335 -0.18275,-0.627 -0.21875,-0.875 -0.037,-0.247 -0.026,-0.44275 0,-0.59375 0.026,-0.151 0.0762,-0.28025 0.15625,-0.40625 0.175,-0.268 0.4935,-0.399 0.9375,-0.375 0.442,0.025 0.91325,0.19 1.40625,0.5 0.35,0.22 0.73325,0.5435 1.15625,0.9375 0.423,0.395 0.84825,0.86875 1.28125,1.46875 0.491,-0.964 0.82225,-1.623 1.03125,-2 0.207,-0.376 0.45875,-0.77475 0.71875,-1.21875 -1.106,-1.038 -2.21025,-1.8885 -3.28125,-2.5625 -0.547,-0.345 -1.08825,-0.637 -1.65625,-0.875 -0.568,-0.239 -1.147,-0.3855 -1.75,-0.4375 -0.2995,-0.0255 -0.60512,-0.05525 -0.875,-0.03125 z M 60.40625,21.96875 c -0.962,0.738 -1.547,1.19175 -1.75,1.34375 -0.443,0.331 -1.03525,0.74225 -1.78125,1.28125 0.526,0.687 1.44,1.9655 2.75,3.8125 1.309,1.846 2.33425,3.29875 3.03125,4.34375 l -1.3125,-0.625 -9.15625,-4.03125 c -0.917,0.705 -1.614,1.27425 -2.125,1.65625 -0.715,0.535 -1.56,1.1285 -2.5,1.8125 l 1.0625,1.40625 1.875,2.59375 4.5,6.59375 1.25,2 c 0.896,-0.689 1.51175,-1.16025 1.84375,-1.40625 0.388,-0.291 0.96575,-0.706 1.71875,-1.25 l -2.625,-3.59375 -3.0625,-4.375 c 0.737,0.355 1.44875,0.6645 2.09375,0.9375 1.002,0.443 2.0515,0.918 3.1875,1.375 l 3.46875,1.375 c 0.35,0.149 0.89825,0.402 1.65625,0.75 0.986,-0.758 1.7495,-1.328 2.3125,-1.75 0.678,-0.509 1.42875,-1.054 2.21875,-1.625 l -1.59375,-2.15625 -5.25,-7.65625 -1.8125,-2.8125 z m 155.3125,4.46875 c -0.459,0.57 -0.796,1.002 -1,1.25 -0.269,0.329 -0.5365,0.64575 -0.8125,0.96875 l -2.625,2.96875 -3.78125,4.15625 -2,2.0625 c 0.979,0.768 1.59875,1.2425 1.84375,1.4375 L 209.0625,40.6875 210,39.5625 c 0.408,-0.496 1.66025,-1.92775 3.78125,-4.34375 1.161,-1.327 2.22775,-2.5115 3.21875,-3.5625 l 0.78125,0.53125 c 0.238,0.172 0.4785,0.331 0.6875,0.5 0.216,0.173 0.38525,0.335 0.53125,0.5 0.147,0.164 0.2515,0.3525 0.3125,0.5625 0.059,0.211 0.061,0.422 0,0.625 -0.061,0.203 -0.18075,0.39975 -0.34375,0.59375 -0.33,0.402 -0.76125,0.6415 -1.28125,0.6875 -0.52,0.047 -1.06825,-0.152 -1.65625,-0.625 -0.281,-0.225 -0.533,-0.493 -0.75,-0.75 -0.126,0.318 -0.319,0.8105 -0.625,1.4375 -0.304,0.625 -0.54875,1.073 -0.71875,1.375 0.355,0.403 0.687,0.747 1,1 0.859,0.689 1.76875,1.139 2.71875,1.375 0.949,0.237 1.87625,0.209 2.78125,-0.125 0.909,-0.334 1.6755,-0.88525 2.3125,-1.65625 0.309,-0.375 0.551,-0.81 0.75,-1.25 0.198,-0.438 0.30975,-0.8715 0.34375,-1.3125 0.034,-0.442 0.004,-0.88975 -0.125,-1.34375 -0.131,-0.454 -0.35925,-0.88125 -0.65625,-1.28125 -0.296,-0.4 -0.843,-0.90325 -1.625,-1.53125 -0.541,-0.436 -1.196,-0.9605 -2,-1.5625 -0.805,-0.603 -1.425,-1.0765 -1.875,-1.4375 -0.466,-0.375 -1.08775,-0.89625 -1.84375,-1.53125 z M 43.9375,34.78125 c -1.238,1.257 -2.6775,2.71175 -4.3125,4.34375 -1.773,1.77 -3.27225,3.265 -4.53125,4.5 l 0.6875,0.6875 c 0.502,0.49 1.516,1.52775 3,3.09375 1.483,1.566 2.66025,2.81125 3.53125,3.78125 0.87,0.968 1.9375,2.2095 3.1875,3.6875 l 1.09375,-1.125 3.5,-3.5 c 1.54,-1.537 2.948,-2.94075 4.25,-4.21875 -0.803,-0.867 -1.55225,-1.7265 -2.28125,-2.5625 -0.535,0.606 -0.91825,1.03325 -1.15625,1.28125 l -1.625,1.6875 c -0.83,0.862 -1.38625,1.4175 -1.65625,1.6875 l -0.90625,0.90625 -1.84375,-2 c 0.869,-0.941 1.67525,-1.77 2.40625,-2.5 0.492,-0.491 1.198,-1.18875 2.125,-2.09375 -0.899,-0.972 -1.6795,-1.81125 -2.3125,-2.53125 -1.245,1.314 -2.0165,2.11025 -2.3125,2.40625 -0.832,0.83 -1.5465,1.54725 -2.1875,2.15625 l -1.75,-1.875 c 0.545,-0.586 0.95375,-1.01125 1.21875,-1.28125 0.264,-0.269 0.77025,-0.8015 1.53125,-1.5625 0.692,-0.691 1.561,-1.522 2.625,-2.5 -0.192,-0.187 -0.3865,-0.3695 -0.5625,-0.5625 l -0.8125,-0.90625 c -0.38,-0.412 -0.59625,-0.65075 -0.65625,-0.71875 l -0.25,-0.28125 z M 227.21875,39.625 c -0.36473,0.01289 -0.7035,0.05575 -1.0625,0.125 -1.436,0.275 -2.786,0.9625 -4,2.0625 -0.826,0.75 -1.442,1.5615 -1.875,2.4375 -0.433,0.874 -0.62575,1.874 -0.59375,3 0.031,1.126 0.29975,2.2415 0.84375,3.3125 0.541,1.072 1.265,2.075 2.125,3 0.872,0.936 1.819,1.70775 2.875,2.34375 1.056,0.636 2.15625,1.02525 3.28125,1.15625 1.122,0.132 2.2265,0 3.3125,-0.375 1.088,-0.375 2.09825,-0.9675 3.03125,-1.8125 0.887,-0.804 1.5345,-1.67675 1.9375,-2.59375 0.401,-0.92 0.57425,-1.918 0.53125,-3 -0.039,-1.082 -0.32775,-2.13025 -0.84375,-3.15625 -0.515,-1.026 -1.15275,-1.96875 -1.96875,-2.84375 -1.274,-1.369 -2.68775,-2.377 -4.21875,-3 -1.14975,-0.468 -2.2808,-0.694922 -3.375,-0.65625 z m 1.6875,4.3125 c 0.3995,-0.0019 0.794,0.0755 1.1875,0.1875 0.785,0.226 1.4765,0.65325 2.0625,1.28125 0.554,0.596 0.8975,1.24175 1.0625,1.96875 0.165,0.726 0.11475,1.45625 -0.15625,2.15625 -0.273,0.699 -0.68825,1.30575 -1.28125,1.84375 -0.61,0.552 -1.32,0.9485 -2.125,1.1875 -0.804,0.24 -1.596,0.25825 -2.375,0.03125 -0.778,-0.227 -1.437,-0.644 -2,-1.25 -0.53,-0.569 -0.89475,-1.243 -1.09375,-2 -0.199,-0.757 -0.1925,-1.4975 0.0625,-2.1875 0.258,-0.69 0.69325,-1.2795 1.28125,-1.8125 0.639,-0.578 1.34425,-0.98775 2.15625,-1.21875 0.4055,-0.1155 0.81925,-0.185625 1.21875,-0.1875 z M 31.3125,47.5625 c -0.758,1.057 -1.34725,1.87875 -1.78125,2.46875 -0.636,0.868 -1.29375,1.731 -1.96875,2.625 0.45,0.551 0.792,0.968 1,1.25 0.208,0.28 0.61,0.89175 1.25,1.84375 0.64,0.952 1.25125,1.791 1.78125,2.5 0.53,0.71 1.1745,1.551 1.9375,2.5 C 31.94625,60.009 30.796,59.4705 30.125,59.1875 29.453,58.9025 28.66475,58.601 27.71875,58.25 26.77275,57.898 26.1235,57.641 25.8125,57.5 c -0.311,-0.14 -0.76075,-0.35925 -1.34375,-0.65625 -0.781,1.089 -1.364,1.9125 -1.75,2.4375 -0.465,0.634 -1.1095,1.49275 -1.9375,2.59375 l 4.03125,3.3125 6,5.125 1.6875,1.5625 c 0.554,-0.78 0.9595,-1.34125 1.1875,-1.65625 0.168,-0.228 0.5655,-0.7415 1.1875,-1.5625 l -1.15625,-0.875 -4.96875,-4 -2.375,-2.0625 c 0.433,0.208 0.73125,0.3585 0.90625,0.4375 0.173,0.078 0.3165,0.1375 0.4375,0.1875 l 3.15625,1.28125 5.84375,2.46875 c 0.554,-0.777 0.977,-1.34575 1.25,-1.71875 0.217,-0.295 0.63375,-0.82075 1.21875,-1.59375 L 35.21875,57.375 32.375,53.53125 c 0.455,0.308 0.8125,0.53975 1.0625,0.71875 0.573,0.41 1.864,1.3895 3.875,2.9375 2.011,1.549 3.26825,2.559 3.78125,3 0.484,-0.681 0.87775,-1.25475 1.21875,-1.71875 0.235,-0.319 0.654,-0.87125 1.25,-1.65625 -0.601,-0.411 -0.99275,-0.715 -1.21875,-0.875 -1.085,-0.777 -3.07325,-2.23 -5.90625,-4.375 -1.449,-1.091 -3.155,-2.416 -5.125,-4 z m 212.125,6.28125 c -0.762,0.506 -1.78575,1.168 -3.09375,2 -1.309,0.83 -2.58425,1.62075 -3.78125,2.34375 -1.196,0.721 -2.22825,1.32775 -3.15625,1.84375 -0.928,0.516 -2.0065,1.0755 -3.1875,1.6875 0.649,0.923 1.10175,1.5785 1.34375,1.9375 0.211,0.308 0.65375,0.99225 1.34375,2.03125 1.787,-1.158 3.64625,-2.339 5.53125,-3.5 1.888,-1.163 3.4795,-2.104 4.8125,-2.875 0.219,0.304 0.42875,0.55625 0.59375,0.78125 0.167,0.226 0.32075,0.44025 0.46875,0.65625 0.432,0.636 0.7045,1.16025 0.8125,1.53125 0.107,0.373 0.106,0.69175 0,0.96875 -0.105,0.276 -0.2945,0.47825 -0.5625,0.65625 -0.318,0.211 -0.67875,0.34275 -1.09375,0.34375 -0.416,0.003 -0.83275,-0.12925 -1.21875,-0.40625 -0.389,-0.277 -0.72225,-0.64175 -1.03125,-1.09375 -0.218,-0.322 -0.43075,-0.6855 -0.59375,-1.0625 l -2,2.71875 c -0.603,0.822 -1.06125,1.46425 -1.40625,1.90625 -0.149,0.207 -0.3885,0.4625 -0.6875,0.8125 -0.704,0.844 -1.1795,1.435 -1.4375,1.75 0.702,1.004 1.196,1.71225 1.5,2.15625 0.238,0.352 0.72325,1.06675 1.40625,2.09375 0.253,-0.374 0.42,-0.64725 0.5,-0.78125 l 1.875,-3.0625 c 0.237,-0.382 0.47875,-0.73775 0.71875,-1.09375 l 0.875,-1.28125 c 0.663,0.455 1.2205,0.78175 1.6875,0.96875 0.469,0.186 0.9605,0.26925 1.4375,0.28125 0.473,0.011 0.90575,-0.0495 1.34375,-0.1875 0.437,-0.139 0.86425,-0.347 1.28125,-0.625 0.374,-0.247 0.70675,-0.53075 0.96875,-0.84375 0.263,-0.312 0.46775,-0.63575 0.59375,-0.96875 0.127,-0.336 0.19875,-0.6745 0.21875,-1.0625 0.023,-0.391 -0.0353,-0.8415 -0.15625,-1.3125 -0.119,-0.47 -0.32175,-0.9465 -0.59375,-1.4375 -0.358,-0.658 -0.80775,-1.36725 -1.34375,-2.15625 -0.457,-0.672 -0.9275,-1.3725 -1.4375,-2.0625 -0.512,-0.691 -0.94425,-1.256 -1.28125,-1.75 -0.323,-0.475 -0.744,-1.12425 -1.25,-1.90625 z M 18.625,65.46875 17.96875,66.75 l -1.25,2.375 -1.28125,2.46875 C 14.1325,74.08975 12.996,76.256 12,78.125 c 0.703,0.374 1.3555,0.7325 1.9375,1.0625 l 1.09375,0.625 2.09375,-4.28125 c 3.877,2.057 7.3545,4.0775 10.4375,6.0625 0.632,-1.241 1.01025,-2.0275 1.15625,-2.3125 0.167,-0.317 0.545,-1.01575 1.125,-2.09375 -0.835,-0.425 -1.917,-0.98975 -3.25,-1.71875 C 25.25975,74.74075 23.899,73.9915 22.5,73.1875 21.525,72.6245 20.4445,71.98225 19.3125,71.28125 l 0.375,-0.6875 c 0.48,-0.917 1.1225,-2.0665 1.9375,-3.4375 -0.175,-0.09 -0.41,-0.22025 -0.75,-0.40625 -0.339,-0.185 -0.76725,-0.42375 -1.28125,-0.71875 L 18.625,65.46875 z M 252.71875,67.875 c -0.726,0.339 -1.41425,0.63625 -2.03125,0.90625 l -1.15625,0.5 2.28125,4.1875 c -3.972,1.87 -7.684,3.468 -11.125,4.75 0.64,1.239 1.01425,1.99025 1.15625,2.28125 0.163,0.318 0.5255,1.025 1.0625,2.125 0.843,-0.414 1.95875,-0.9335 3.34375,-1.5625 1.382,-0.631 2.79725,-1.26725 4.28125,-1.90625 1.037,-0.443 2.1965,-0.91925 3.4375,-1.40625 l 0.34375,0.71875 c 0.467,0.924 1.01425,2.1025 1.65625,3.5625 0.177,-0.088 0.4585,-0.214 0.8125,-0.375 0.355,-0.163 0.79675,-0.35775 1.34375,-0.59375 l 1.03125,-0.4375 -0.6875,-1.28125 -1.1875,-2.40625 -1.25,-2.4375 c -1.27,-2.515 -2.3725,-4.729 -3.3125,-6.625 z M 12.6875,82.09375 c -0.189875,0.01825 -0.389,0.04475 -0.5625,0.09375 -0.348,0.096 -0.671,0.25575 -1,0.46875 -0.33,0.215 -0.65575,0.501 -0.96875,0.875 -0.312,0.374 -0.60275,0.83875 -0.84375,1.34375 -0.327,0.673 -0.64175,1.45075 -0.96875,2.34375 -0.278,0.761 -0.5505,1.52875 -0.8125,2.34375 -0.261,0.813 -0.4825,1.5035 -0.6875,2.0625 -0.196,0.537 -0.4725,1.22875 -0.8125,2.09375 0.865,0.307 2.01675,0.7635 3.46875,1.3125 1.452,0.549 2.829,1.06775 4.125,1.59375 1.295,0.526 2.43725,1.0035 3.40625,1.4375 0.969,0.434 2.053,0.95225 3.25,1.53125 0.372,-1.061 0.63425,-1.81075 0.78125,-2.21875 0.127,-0.35 0.40175,-1.086 0.84375,-2.25 -2.005,-0.737 -4.02975,-1.52975 -6.09375,-2.34375 -2.064,-0.814 -3.80075,-1.518 -5.21875,-2.125 0.12,-0.349 0.2275,-0.6735 0.3125,-0.9375 0.085,-0.264 0.16,-0.507 0.25,-0.75 0.262,-0.716 0.512,-1.22725 0.75,-1.53125 0.24,-0.304 0.49425,-0.4845 0.78125,-0.5625 0.288,-0.079 0.60225,-0.07675 0.90625,0.03125 0.36,0.13 0.66025,0.3595 0.90625,0.6875 0.248,0.328 0.372,0.7175 0.375,1.1875 0.004,0.472 -0.09325,0.95775 -0.28125,1.46875 -0.132,0.363 -0.297,0.73975 -0.5,1.09375 L 17.5,91.3125 c 1.028,-0.006 1.809,0.0203 2.375,0.0312 0.258,-0.003 0.63275,0.002 1.09375,0.0312 1.107,0.062 1.87125,0.107 2.28125,0.125 0.404,-1.149 0.691,-1.96675 0.875,-2.46875 0.146,-0.398 0.44,-1.19775 0.875,-2.34375 -0.455,0.019 -0.7795,0.0475 -0.9375,0.0625 l -3.625,0.28125 c -0.453,0.035 -0.8815,0.07475 -1.3125,0.09375 l -1.5625,0.0625 C 17.5415,86.3915 17.46675,85.76225 17.34375,85.28125 17.21975,84.79925 17.022,84.35275 16.75,83.96875 16.479,83.58475 16.15225,83.266 15.78125,83 c -0.371,-0.266 -0.776,-0.48725 -1.25,-0.65625 -0.423,-0.151 -0.839,-0.226 -1.25,-0.25 -0.205,-0.012 -0.403875,-0.01825 -0.59375,0 z M 245.0625,86.25 c 0.415,1.186 0.695,2.05775 0.875,2.59375 0.1,0.296 0.35525,1.09025 0.78125,2.40625 1.737,0.16 3.3475,0.3605 4.8125,0.5625 l 1.8125,5.3125 c -1.394,1.111 -2.64575,2.02075 -3.71875,2.71875 0.4,1.144 0.70725,2.033 0.90625,2.625 0.088,0.26 0.32175,0.99375 0.71875,2.21875 l 1.375,-1.125 7.53125,-5.96875 3.9375,-3.03125 c -0.301,-0.842 -0.6015,-1.755 -0.9375,-2.75 -0.195,-0.572 -0.50425,-1.47275 -0.90625,-2.71875 -0.746,-0.092 -1.31875,-0.16275 -1.71875,-0.21875 l -1.375,-0.1875 L 246.875,86.625 245.0625,86.25 z m 10.03125,5.8125 1.84375,0.21875 c 0.782,0.104 1.76175,0.22275 2.96875,0.34375 -0.232,0.162 -1.46975,1.06975 -3.71875,2.71875 l -1.09375,-3.28125 z m -235.3125,8.59375 -1.75,0.3125 -9.53125,1.5 -4.9375,0.65625 C 3.3985,104.003 3.21,104.972 3,106 c -0.12,0.59 -0.31775,1.50225 -0.59375,2.78125 0.6,0.446 1.057,0.8165 1.375,1.0625 l 1.09375,0.8125 9.625,7.8125 1.40625,1.21875 c 0.236,-1.234 0.41925,-2.1325 0.53125,-2.6875 0.064,-0.307 0.23925,-1.147 0.53125,-2.5 -1.426,-0.984 -2.73525,-1.9225 -3.90625,-2.8125 l 1.125,-5.5 c 1.77,-0.279 3.30975,-0.45025 4.59375,-0.53125 0.227,-1.19 0.40725,-2.0755 0.53125,-2.6875 0.056,-0.269 0.19675,-1.0555 0.46875,-2.3125 z M 266.375,102.5625 c -0.789,0.127 -1.5245,0.25475 -2.1875,0.34375 l -1.21875,0.15625 0.96875,4.65625 c -4.333,0.702 -8.337,1.19475 -12,1.46875 0.268,1.363 0.447,2.189 0.5,2.5 0.065,0.35 0.20225,1.14375 0.40625,2.34375 0.923,-0.165 2.121,-0.36975 3.625,-0.59375 1.503,-0.224 3.05325,-0.45225 4.65625,-0.65625 1.118,-0.141 2.3615,-0.251 3.6875,-0.375 l 0.125,0.75 c 0.188,1.018 0.38175,2.32525 0.59375,3.90625 0.194,-0.034 0.491,-0.067 0.875,-0.125 0.384,-0.057 0.88075,-0.14175 1.46875,-0.21875 l 1.09375,-0.125 -0.28125,-1.40625 -0.46875,-2.65625 -0.53125,-2.6875 c -0.51,-2.764 -0.9455,-5.20125 -1.3125,-7.28125 z m -255.5625,3.78125 -0.6875,3.40625 -1.5,-1.125 c -0.627,-0.472 -1.41725,-1.054 -2.40625,-1.75 0.283,-0.027 1.81175,-0.20125 4.59375,-0.53125 z M 4.46875,118.5625 c -0.2415,0.0178 -0.47975,0.0447 -0.71875,0.0937 -0.477,0.099 -0.89925,0.27 -1.28125,0.5 -0.383,0.231 -0.73325,0.53725 -1.03125,0.90625 -0.297,0.37 -0.5305,0.78 -0.6875,1.25 -0.155,0.471 -0.2525,1.1935 -0.3125,2.1875 -0.04,0.69 -0.06875,1.53625 -0.09375,2.53125 -0.024,0.996 -0.05975,1.77175 -0.09375,2.34375 -0.036,0.592 -0.07525,1.398 -0.15625,2.375 0.737,0.036 1.27075,0.0445 1.59375,0.0625 0.429,0.025 0.85325,0.0627 1.28125,0.0937 l 3.96875,0.34375 5.625,0.625 2.875,0.375 c 0.059,-1.232 0.106,-2.0035 0.125,-2.3125 l 0.15625,-2.21865 -1.46875,-0.0625 c -0.646,-0.036 -2.5875,-0.18775 -5.8125,-0.46875 -1.769,-0.152 -3.3685,-0.321 -4.8125,-0.5 L 3.59375,125.75 c 0.003,-0.29 0.01425,-0.57575 0.03125,-0.84375 0.015,-0.274 0.04375,-0.50675 0.09375,-0.71875 0.05,-0.213 0.14425,-0.42275 0.28125,-0.59375 0.138,-0.17 0.32825,-0.27275 0.53125,-0.34375 0.203,-0.07 0.4345,-0.10875 0.6875,-0.0937 0.524,0.029 0.94025,0.237 1.28125,0.625 0.342,0.386 0.4805,0.9405 0.4375,1.6875 -0.02,0.356 -0.07225,0.71025 -0.15625,1.03125 0.338,-0.084 0.8695,-0.1905 1.5625,-0.3125 0.694,-0.122 1.2145,-0.211 1.5625,-0.25 0.123,-0.521 0.19575,-0.975 0.21875,-1.375 0.064,-1.089 -0.0755,-2.07075 -0.4375,-2.96875 -0.362,-0.899 -0.945,-1.62725 -1.75,-2.15625 -0.805,-0.53 -1.71175,-0.816 -2.71875,-0.875 -0.244,-0.014 -0.5085,-0.0178 -0.75,0 z m 264.625,0.9375 -1.4375,0.15625 c -3.247,0.275 -7.90975,0.44825 -13.96875,0.53125 0.134,1.373 0.24425,2.27575 0.28125,2.71875 l 0.15625,2.28125 c 1.29,-0.109 2.8585,-0.23475 4.6875,-0.34375 1.829,-0.109 3.79825,-0.20825 5.90625,-0.28125 1.513,-0.045 3.1125,-0.0545 4.8125,-0.0625 -0.135,-1.39 -0.20175,-2.20525 -0.21875,-2.40625 -0.037,-0.436 -0.12075,-1.29675 -0.21875,-2.59375 z m -7.9375,8.375 c -0.80484,0.043 -1.554,0.19 -2.25,0.4375 -0.929,0.328 -1.7885,0.921 -2.5625,1.75 -0.776,0.829 -1.34675,1.7955 -1.71875,2.9375 -0.369,1.142 -0.55575,2.33875 -0.59375,3.59375 -0.039,1.269 0.0972,2.5035 0.40625,3.6875 0.306,1.184 0.81725,2.1925 1.53125,3.0625 0.709,0.867 1.583,1.55225 2.625,2.03125 1.044,0.481 2.20575,0.74325 3.46875,0.78125 1.205,0.036 2.2495,-0.14725 3.1875,-0.53125 0.938,-0.379 1.79525,-0.947 2.53125,-1.75 0.736,-0.804 1.268,-1.75375 1.625,-2.84375 0.357,-1.089 0.55775,-2.2495 0.59375,-3.4375 0.056,-1.855 -0.25025,-3.52825 -0.90625,-5.03125 -0.653,-1.502 -1.5905,-2.6465 -2.8125,-3.4375 -1.222,-0.79 -2.63425,-1.201 -4.28125,-1.25 -0.2805,-0.008 -0.57547,-0.0143 -0.84375,0 z m 0.75,4.8125 c 0.862,0.024 1.66025,0.232 2.40625,0.625 0.743,0.393 1.31575,0.95425 1.71875,1.65625 0.403,0.701 0.5885,1.49075 0.5625,2.34375 -0.024,0.808 -0.231,1.52425 -0.625,2.15625 -0.397,0.635 -0.936,1.09425 -1.625,1.40625 -0.69,0.315 -1.446,0.4605 -2.25,0.4375 -0.826,-0.026 -1.60075,-0.21275 -2.34375,-0.59375 -0.746,-0.381 -1.32275,-0.928 -1.71875,-1.625 -0.397,-0.697 -0.5865,-1.45925 -0.5625,-2.28125 0.024,-0.772 0.231,-1.5095 0.625,-2.1875 0.394,-0.678 0.952,-1.15175 1.625,-1.46875 0.67,-0.318 1.3905,-0.49275 2.1875,-0.46875 z M 12,134.90625 c 0.106,0.798 0.1575,1.37875 0.1875,1.71875 l 0.21875,2.3125 c 0.1,1.186 0.1625,1.96475 0.1875,2.34375 l 0.09375,1.28125 -2.75,0.0312 c -0.138,-1.266 -0.2445,-2.4145 -0.3125,-3.4375 -0.046,-0.691 -0.1175,-1.68475 -0.1875,-2.96875 -1.335,0.02 -2.4705,0.0433 -3.4375,0.0312 0.168,1.792 0.25325,2.8985 0.28125,3.3125 0.078,1.167 0.1525,2.1855 0.1875,3.0625 l -2.59375,0.0312 c -0.082,-0.791 -0.1585,-1.376 -0.1875,-1.75 -0.027,-0.376 -0.053,-1.09025 -0.125,-2.15625 -0.064,-0.972 -0.12125,-2.189 -0.15625,-3.625 -0.269,0.018 -0.5495,0.0292 -0.8125,0.0312 L 1.375,135.156 c -0.565,0.006 -0.909,0.002 -1,0 l -0.375,0 c 0.131,1.749 0.2855,3.7715 0.4375,6.0625 0.167,2.486 0.30425,4.59175 0.40625,6.34375 l 1,-0.0625 c 0.706,-0.045 2.1385,-0.10125 4.3125,-0.15625 2.173,-0.056 3.90575,-0.0937 5.21875,-0.0937 1.314,0 2.95425,0.0327 4.90625,0.0937 l -0.125,-1.5625 -0.34375,-4.90625 c -0.144,-2.16 -0.23875,-4.15675 -0.34375,-5.96875 -1.188,0.017 -2.35275,0.018 -3.46875,0 z M 253.75,147.75 c -0.202,1.104 -0.3585,1.88125 -0.4375,2.28125 -0.093,0.473 -0.21225,1.1615 -0.40625,2.0625 l 4.375,0.9375 5.21875,1.25 c -0.787,0.218 -1.5225,0.43625 -2.1875,0.65625 -1.047,0.329 -2.12725,0.68875 -3.28125,1.09375 l -3.53125,1.25 c -0.359,0.12 -0.95,0.29225 -1.75,0.53125 -0.226,1.213 -0.39525,2.15775 -0.53125,2.84375 -0.165,0.824 -0.3615,1.71225 -0.5625,2.65625 l 2.65625,0.5625 9.0625,2.28125 3.25,0.90625 c 0.221,-1.185 0.35825,-1.90725 0.40625,-2.15625 0.107,-0.539 0.2435,-1.26125 0.4375,-2.15625 -0.857,-0.165 -2.402,-0.51725 -4.625,-1.03125 -2.223,-0.515 -3.92925,-0.931 -5.15625,-1.25 l 1.375,-0.375 9.53125,-3.03125 c 0.206,-1.124 0.376,-2.005 0.5,-2.625 0.173,-0.868 0.385,-1.874 0.625,-3 L 267,151.125 l -3.15625,-0.75 -7.8125,-1.9375 L 253.75,147.75 z m -243.125,2.8125 c -0.806,-0.016 -1.63575,0.0507 -2.46875,0.21875 -0.848,0.175 -1.65325,0.45475 -2.40625,0.84375 -0.753,0.39 -1.369,0.85525 -1.875,1.40625 -0.507,0.552 -0.889,1.19525 -1.125,1.90625 -0.235,0.712 -0.31625,1.4305 -0.28125,2.1875 0.037,0.76 0.13975,1.649 0.34375,2.625 0.179,0.851 0.389,1.75775 0.625,2.71875 0.237,0.961 0.4375,1.74675 0.5625,2.34375 0.13,0.618 0.24925,1.3295 0.40625,2.1875 l 1.3125,-0.25 c 0.789,-0.16 2.0965,-0.41175 3.9375,-0.71875 2.408,-0.403 4.38325,-0.7175 5.90625,-0.9375 1.022,-0.146 2.37875,-0.28675 4.09375,-0.46875 -0.218,-0.928 -0.38375,-1.61425 -0.46875,-2.03125 l -0.875,-4.40625 c -0.209,-0.997 -0.4355,-1.88825 -0.6875,-2.65625 -0.23,-0.689 -0.4695,-1.21275 -0.6875,-1.59375 -0.219,-0.378 -0.4915,-0.74075 -0.8125,-1.09375 -0.429,-0.474 -0.9035,-0.89275 -1.4375,-1.21875 -0.534,-0.328 -1.1275,-0.563 -1.8125,-0.75 -0.685,-0.188 -1.442,-0.2955 -2.25,-0.3125 z m -0.25,4.78125 c 0.361125,-0.0186 0.72975,-0.003 1.09375,0.0312 0.727,0.072 1.347,0.273 1.875,0.625 0.529,0.35 0.9325,0.823 1.1875,1.375 0.255,0.555 0.43775,1.1975 0.59375,1.9375 0.091,0.434 0.17375,0.843 0.21875,1.25 l -8.59375,1.375 c -0.201,-0.7 -0.35875,-1.2885 -0.46875,-1.8125 -0.187,-0.894 -0.22075,-1.65075 -0.09375,-2.21875 0.128,-0.567 0.464,-1.066 1,-1.5 0.537,-0.437 1.246,-0.72625 2.125,-0.90625 0.3585,-0.073 0.701375,-0.13763 1.0625,-0.15625 z m 9.34375,30.96875 c -2.254979,0 -4.09375,1.80609 -4.09375,4.03125 0,2.22516 1.838771,4.03125 4.09375,4.03125 2.254979,0 4.0625,-1.80609 4.0625,-4.03125 0,-2.22516 -1.807521,-4.03125 -4.0625,-4.03125 z m 230.25,0 c -2.25498,0 -4.09375,1.80609 -4.09375,4.03125 0,2.22516 1.83877,4.03125 4.09375,4.03125 2.25498,0 4.09375,-1.80609 4.09375,-4.03125 0,-2.22516 -1.83877,-4.03125 -4.09375,-4.03125 z m -16.53125,20 c -0.869,1.105 -1.371,1.75025 -1.5,1.90625 -0.274,0.344 -0.82225,1.01925 -1.65625,2.03125 l 1.15625,0.875 c 2.555,1.999 6.06625,5.0195 10.53125,9.0625 0.859,-1.093 1.4055,-1.80525 1.6875,-2.15625 L 245.125,216.25 c -1.013,-0.793 -2.216,-1.74925 -3.625,-2.90625 -1.406,-1.16 -2.916,-2.4365 -4.5,-3.8125 -1.134,-0.992 -2.3185,-2.07275 -3.5625,-3.21875 z M 38.5,211.125 c -0.501,0.01 -0.96825,0.085 -1.40625,0.25 -0.439,0.168 -0.8415,0.41875 -1.1875,0.71875 -0.288,0.249 -0.52975,0.5135 -0.71875,0.8125 -0.19,0.3 -0.3355,0.622 -0.4375,1 -0.102,0.384 -0.1635,0.85725 -0.1875,1.40625 -0.012,0.267 -0.011,0.73 0,1.375 l 0.03125,2.78125 c -10e-4,0.258 -0.0225,0.48125 -0.0625,0.65625 -0.041,0.173 -0.09325,0.30125 -0.15625,0.40625 -0.063,0.102 -0.153,0.19725 -0.25,0.28125 -0.284,0.247 -0.62925,0.287 -1.03125,0.125 -0.402,-0.163 -0.816,-0.48275 -1.25,-0.96875 -0.328,-0.37 -0.64275,-0.8525 -0.96875,-1.4375 -0.324,-0.587 -0.63325,-1.3155 -0.90625,-2.1875 -0.64,0.721 -1.51625,1.633 -2.65625,2.75 0.96,1.608 1.824,2.87625 2.625,3.78125 0.521,0.585 1.06825,1.073 1.65625,1.5 0.59,0.424 1.2485,0.7525 1.9375,0.9375 0.69,0.184 1.35725,0.18925 2.03125,0.0312 0.675,-0.16 1.27125,-0.46525 1.78125,-0.90625 0.198,-0.172 0.363,-0.34325 0.5,-0.53125 0.138,-0.189 0.278,-0.397 0.375,-0.625 0.097,-0.228 0.181,-0.51575 0.25,-0.84375 0.069,-0.328 0.1,-0.6735 0.125,-1.0625 0.026,-0.388 0.04325,-0.7555 0.03125,-1.0625 l -0.0625,-1 c -0.042,-0.726 -0.0565,-1.272 -0.0625,-1.625 -0.006,-0.349 -0.0037,-0.65725 0.03125,-0.90625 0.035,-0.247 0.08825,-0.4255 0.15625,-0.5625 0.068,-0.138 0.16725,-0.276 0.28125,-0.375 0.244,-0.211 0.58,-0.23975 1,-0.0937 0.421,0.145 0.7995,0.438 1.1875,0.875 0.273,0.309 0.58,0.72275 0.875,1.21875 0.295,0.499 0.5655,1.08425 0.8125,1.78125 0.74,-0.788 1.2565,-1.35125 1.5625,-1.65625 0.306,-0.303 0.65625,-0.61475 1.03125,-0.96875 -0.768,-1.304 -1.56725,-2.431 -2.40625,-3.375 -0.426,-0.482 -0.896,-0.9235 -1.375,-1.3125 -0.479,-0.385 -1.0005,-0.659 -1.5625,-0.875 -0.562,-0.216 -1.09075,-0.3225 -1.59375,-0.3125 z m 189.75,1.5 c -0.938,1.043 -1.45775,1.6645 -1.59375,1.8125 -0.299,0.323 -0.9165,0.95525 -1.8125,1.90625 l 1.09375,0.9375 c 2.415,2.162 5.72525,5.417 9.90625,9.75 0.928,-1.033 1.53975,-1.70025 1.84375,-2.03125 l 1.5625,-1.6875 c -0.96,-0.86 -2.1115,-1.90525 -3.4375,-3.15625 -1.328,-1.249 -2.72975,-2.61775 -4.21875,-4.09375 -1.067,-1.067 -2.18075,-2.2145 -3.34375,-3.4375 z m -181.09375,6.03125 c -0.547,0.573 -1.06025,1.0925 -1.53125,1.5625 l -0.875,0.875 3.625,3.125 c -3.011,3.161 -5.887,5.952 -8.625,8.375 1.053,0.923 1.6955,1.4715 1.9375,1.6875 0.267,0.24 0.87625,0.796 1.78125,1.625 0.632,-0.684 1.47425,-1.57325 2.53125,-2.65625 1.055,-1.082 2.13525,-2.1855 3.28125,-3.3125 0.802,-0.784 1.7095,-1.63525 2.6875,-2.53125 l 0.59375,0.53125 c 0.776,0.695 1.733,1.59175 2.875,2.71875 0.133,-0.144 0.32375,-0.349 0.59375,-0.625 0.268,-0.275 0.61125,-0.61925 1.03125,-1.03125 l 0.78125,-0.75 -1.09375,-0.96875 -2,-1.8125 -2.0625,-1.84375 c -2.109,-1.889 -3.95725,-3.53775 -5.53125,-4.96875 z m 172.09375,3.25 c -0.668,0.601 -1.3905,1.2425 -2.1875,1.9375 -0.456,0.397 -1.1845,1.022 -2.1875,1.875 0.204,0.711 0.3355,1.27225 0.4375,1.65625 l 0.375,1.3125 2.875,11.96875 0.375,1.8125 c 0.946,-0.841 1.6375,-1.47175 2.0625,-1.84375 0.238,-0.206 0.8755,-0.75525 1.9375,-1.65625 -0.532,-1.638 -0.991,-3.1555 -1.375,-4.5625 l 4.28125,-3.71875 c 1.576,0.837 2.90075,1.6105 3.96875,2.3125 0.914,-0.813 1.61675,-1.43175 2.09375,-1.84375 0.209,-0.182 0.79325,-0.68925 1.78125,-1.53125 l -1.5625,-0.78125 -8.53125,-4.53125 -4.34375,-2.40625 z m -0.15625,4.5625 c 0.241,0.147 1.56475,0.9245 3.96875,2.3125 l -2.625,2.28125 -0.5,-1.75 c -0.206,-0.748 -0.48975,-1.70275 -0.84375,-2.84375 z m -10.3125,4.78125 c -0.707,0.425 -1.3615,0.81625 -1.9375,1.15625 -0.509,0.302 -1.1525,0.67 -1.9375,1.125 l 0.59375,2.1875 1.03125,4.375 c 0.204,0.884 0.33325,1.455 0.40625,1.75 0.073,0.294 0.14275,0.592 0.21875,0.875 l 0.5,1.625 -3.96875,-4.625 -3.03125,-3.65625 c -0.82,0.501 -1.585,0.95075 -2.25,1.34375 -0.616,0.365 -1.356,0.8045 -2.25,1.3125 l 1.28125,3.875 1.53125,5.09375 0.46875,1.53125 c -0.927,-1.071 -1.73525,-1.9565 -2.40625,-2.6875 l -3.125,-3.375 c -0.397,-0.424 -1.0075,-1.1255 -1.8125,-2.0625 -0.743,0.456 -1.40075,0.8525 -1.96875,1.1875 -0.505,0.297 -1.179,0.68825 -2,1.15625 l 2.03125,2.0625 5.9375,6.21875 c 0.612,0.652 1.07625,1.16425 1.40625,1.53125 l 1.40625,1.5625 c 0.93,-0.569 1.72125,-1.0325 2.40625,-1.4375 0.646,-0.381 1.4545,-0.8745 2.4375,-1.4375 l -1.8125,-6.5 c -0.115,-0.393 -0.22675,-0.77525 -0.34375,-1.15625 l -0.5625,-1.6875 c 0.437,0.574 0.75675,1.01025 0.96875,1.28125 0.211,0.268 0.413,0.503 0.625,0.75 l 3.625,4.0625 1.03125,1.1875 c 0.915,-0.561 1.737,-1.08025 2.5,-1.53125 0.724,-0.426 1.5855,-0.90775 2.5625,-1.46875 L 211.75,244.59375 208.78125,231.25 z M 64,232.53125 c -0.648,0.375 -1.17925,0.64775 -1.53125,0.84375 l -1.1875,0.65625 -11.03125,5.75 -1.6875,0.78125 c 1.06,0.693 1.8395,1.21325 2.3125,1.53125 0.261,0.175 0.94675,0.6495 2.09375,1.4375 1.48,-0.913 2.86925,-1.7205 4.15625,-2.4375 l 4.71875,3.15625 c -0.429,1.716 -0.85625,3.179 -1.28125,4.375 1.022,0.668 1.7895,1.17825 2.3125,1.53125 0.231,0.153 0.89975,0.61075 1.96875,1.34375 l 0.375,-1.71875 2.3125,-9.25 1.28125,-4.75 c -0.756,-0.488 -1.5595,-1.035 -2.4375,-1.625 -0.504,-0.338 -1.288,-0.877 -2.375,-1.625 z m 0.3125,4.21875 c -0.084,0.266 -0.51025,1.725 -1.28125,4.375 L 60.125,239.15625 61.71875,238.25 c 0.685,-0.387 1.55975,-0.875 2.59375,-1.5 z m 10.28125,2.59375 c -0.366,0.702 -0.70825,1.3555 -1.03125,1.9375 l -0.59375,1.0625 4.375,2 c -2.006,3.86 -3.9915,7.32925 -5.9375,10.40625 1.27,0.599 2.05275,0.95475 2.34375,1.09375 0.325,0.156 1.05525,0.5115 2.15625,1.0625 0.415,-0.832 0.9775,-1.89075 1.6875,-3.21875 0.711,-1.327 1.43275,-2.69875 2.21875,-4.09375 0.55,-0.973 1.189,-2.02525 1.875,-3.15625 l 0.71875,0.34375 c 0.942,0.456 2.09,1.06575 3.5,1.84375 0.087,-0.174 0.22525,-0.412 0.40625,-0.75 0.182,-0.34 0.42975,-0.76825 0.71875,-1.28125 L 87.5625,245.625 86.25,245 l -2.4375,-1.1875 -2.5,-1.1875 c -2.557,-1.238 -4.80475,-2.33525 -6.71875,-3.28125 z m 106.625,6.5625 c -0.843,0.321 -1.754,0.67025 -2.75,1.03125 -0.572,0.211 -1.47275,0.52775 -2.71875,0.96875 -0.071,0.738 -0.1435,1.2915 -0.1875,1.6875 l -0.15625,1.375 -1.65625,12.15625 -0.3125,1.84375 c 1.185,-0.448 2.05875,-0.77075 2.59375,-0.96875 0.296,-0.107 1.09025,-0.41 2.40625,-0.875 0.105,-1.714 0.24825,-3.27175 0.40625,-4.71875 l 5.34375,-1.96875 c 1.17,1.337 2.134,2.5295 2.875,3.5625 1.144,-0.434 2.00375,-0.75075 2.59375,-0.96875 0.262,-0.094 0.99475,-0.3815 2.21875,-0.8125 l -1.1875,-1.28125 -6.28125,-7.25 -3.1875,-3.78125 z M 89.5625,246.34375 89.25,247.25 c -0.229,0.661 -0.715,2.001 -1.5,4 -0.785,1.998 -1.4325,3.58825 -1.9375,4.78125 -0.505,1.195 -1.16375,2.6865 -1.96875,4.4375 l 1.53125,0.5 4.6875,1.5625 c 2.072,0.7 3.98575,1.36875 5.71875,1.96875 0.443,-1.088 0.8665,-2.14625 1.3125,-3.15625 -0.785,-0.21 -1.32725,-0.36475 -1.65625,-0.46875 l -2.25,-0.6875 c -1.146,-0.363 -1.888,-0.628 -2.25,-0.75 l -1.21875,-0.40625 1,-2.53125 c 1.237,0.359 2.36075,0.7325 3.34375,1.0625 0.663,0.225 1.61575,0.53975 2.84375,0.96875 0.494,-1.215 0.9295,-2.253 1.3125,-3.125 -1.742,-0.537 -2.81975,-0.865 -3.21875,-1 -1.119,-0.378 -2.1035,-0.72625 -2.9375,-1.03125 L 93.03125,251 c 0.773,0.231 1.35875,0.382 1.71875,0.5 0.361,0.119 1.0375,0.37075 2.0625,0.71875 0.933,0.315 2.0825,0.729 3.4375,1.25 0.087,-0.252 0.18125,-0.508 0.28125,-0.75 L 101,251.59375 c 0.212,-0.515 0.339,-0.794 0.375,-0.875 L 101.5,250.375 c -1.688,-0.555 -3.6105,-1.22375 -5.8125,-1.96875 -2.388,-0.808 -4.448,-1.4805 -6.125,-2.0625 z m 89.84375,3.78125 c 0.173,0.22 1.134,1.4115 2.875,3.5625 l -3.3125,1.1875 0.1875,-1.8125 c 0.08,-0.772 0.168,-1.7475 0.25,-2.9375 z m -12.125,0.65625 c -1.278,0.264 -2.06975,0.41575 -2.34375,0.46875 l -2.625,0.5 c 0.112,0.486 0.17975,0.83425 0.21875,1.03125 0.075,0.371 0.205,1.06775 0.375,2.09375 0.17,1.023 0.293,1.8315 0.375,2.4375 L 157.25,258.5 c -0.27,-1.612 -0.51,-3.501 -0.75,-5.625 -1.116,0.23 -1.924,0.411 -2.375,0.5 -0.576,0.113 -1.43075,0.25775 -2.59375,0.46875 l 0.21875,1.0625 c 0.105,0.518 0.2125,1.062 0.3125,1.625 l 0.3125,1.9375 0.6875,4.375 0.75,6.0625 c 1.253,-0.259 2.05,-0.436 2.375,-0.5 l 2.5625,-0.46875 -1,-6.09375 6.03125,-1.1875 c 0.396,2.317 0.67875,4.354 0.84375,6.125 1.365,-0.28 2.22975,-0.431 2.59375,-0.5 l 2.40625,-0.46875 c -0.51,-2.55 -0.8955,-4.7245 -1.1875,-6.5625 -0.291,-1.841 -0.67325,-4.67275 -1.15625,-8.46875 z m -51.03125,2.5 c -0.86113,0.0604 -1.67825,0.22475 -2.46875,0.46875 -1.58,0.486 -2.828,1.28725 -3.75,2.40625 -0.922,1.119 -1.49975,2.48075 -1.71875,4.09375 -0.148,1.098 -0.112,2.1185 0.125,3.0625 0.235,0.945 0.746,1.8435 1.5,2.6875 0.754,0.845 1.66925,1.521 2.78125,2 1.11,0.48 2.3035,0.80175 3.5625,0.96875 1.275,0.168 2.527,0.14875 3.75,-0.0312 1.224,-0.18 2.302,-0.5785 3.25,-1.1875 0.947,-0.608 1.7205,-1.401 2.3125,-2.375 0.591,-0.974 0.98925,-2.0765 1.15625,-3.3125 0.16,-1.179 0.0995,-2.2265 -0.1875,-3.1875 -0.287,-0.958 -0.79825,-1.85025 -1.53125,-2.65625 -0.733,-0.804 -1.65675,-1.44325 -2.71875,-1.90625 -1.061,-0.462 -2.181,-0.7795 -3.375,-0.9375 -0.932,-0.1225 -1.82637,-0.15413 -2.6875,-0.0937 z m 26.625,1.3125 c -1.818,0.045 -3.68825,0.0598 -5.65625,0.0937 -1.954,0.03 -4.07275,0.0718 -6.34375,0.0937 l 0,1.21875 c 0.014,0.816 0.01,2.41625 -0.0312,4.78125 -0.043,2.367 -0.0913,4.2105 -0.15625,5.5625 -0.044,0.915 -0.121,2.14525 -0.25,3.65625 1.575,-0.041 2.434,-0.0585 2.625,-0.0625 l 2.4375,-0.0312 0,-0.5 0,-1.46875 0.0312,-4.03125 c 1.173,-0.057 2.256,-0.0788 3.25,-0.0937 0.587,-0.008 1.4785,-0.018 2.6875,0 -0.012,-0.794 5e-4,-1.88025 0.0625,-3.28125 -1.086,0.038 -1.88025,0.0555 -2.40625,0.0625 l -1.84375,0.0312 -1.625,-0.0312 0.0625,-2.5625 c 1.244,-0.036 1.995,-0.0575 2.25,-0.0625 l 2.21875,-0.0312 0.78125,0 0.8125,-0.0312 0.96875,0.0312 c -0.007,-0.526 0.032,-1.63575 0.125,-3.34375 z m -25.21875,2.03125 c 0.20794,8.3e-4 0.4105,0.0345 0.625,0.0625 0.814,0.108 1.525,0.39175 2.125,0.84375 0.6,0.455 1.03525,1.038 1.28125,1.75 0.245,0.712 0.2945,1.462 0.1875,2.25 -0.108,0.813 -0.38075,1.558 -0.84375,2.25 -0.462,0.694 -1.0655,1.181 -1.8125,1.5 -0.746,0.317 -1.547,0.4225 -2.375,0.3125 -0.778,-0.104 -1.48,-0.38575 -2.125,-0.84375 -0.643,-0.455 -1.09375,-1.02575 -1.34375,-1.71875 -0.252,-0.694 -0.32575,-1.43775 -0.21875,-2.21875 0.114,-0.848 0.401,-1.59125 0.875,-2.28125 0.473,-0.692 1.09275,-1.20725 1.84375,-1.53125 0.5625,-0.24375 1.15744,-0.37748 1.78125,-0.375 z"
   id="path6"
   inkscape:connector-curvature="0" />








































<path
   d="m 131.439,94.55875 c 6.772,-4.685 15.805,-5.459 23.249,-1.196 2.979,1.709 5.38,4.036 7.134,6.739 3.007,4.628 60.703,101.305 60.703,101.305 l 6.27,-6.443 -57.647,-97.019 -1.729,-2.039 c -2.505,-3.998 -5.98,-7.463 -10.357,-9.97 -6.433,-3.686 -13.697,-4.666 -20.548,-3.394 l 33.99,-57.743 -4.778,-1.016 -5.302,-1.4 -53.833,93.442 -0.661,1.802 -1.526,2.665 0.211,0.22 c -1.582,3.586 -2.478,7.519 -2.478,11.657 0,6.153 1.972,11.845 5.288,16.597 1.258,1.981 2.759,3.822 4.496,5.48 h -9.901 c -7.511,-3.425 -12.726,-10.743 -12.726,-19.233 0,-3.4 0.835,-6.617 2.322,-9.471 2.545,-4.889 58.306,-102.67 58.306,-102.67 l -8.798,-2.111 -56.081,97.909 -0.918,2.502 c -2.247,4.143 -3.537,8.848 -3.537,13.842 0,7.337 2.789,14.028 7.345,19.233 H 22.25 l 2.487,8.589 h 108.437 l 2.116,-0.356 c 5.837,-0.135 11.569,-1.93 16.49,-5.193 6.614,-4.115 11.497,-10.581 13.377,-18.18 2.754,3.549 4.396,7.939 4.396,12.694 0,11.745 -9.957,21.3 -22.201,21.323 l -9.949,0.753 -107.898,0.002 2.487,8.589 h 113.411 l 7.462,-1.263 c 11.881,-2.092 21.404,-10.755 24.397,-21.935 l 33.882,57.362 6.27,-6.444 -54.597,-92.429 -1.732,-2.042 c -2.504,-3.998 -5.978,-7.46 -10.354,-9.969 -7.603,-4.357 -16.377,-4.975 -24.246,-2.5 1.49,-2.62 3.058,-5.374 4.677,-8.217 l 0.277,-0.472 z m 23.729,28.516 c 2.65,6.132 2.427,13.469 -1.29,19.779 -1.816,3.089 -4.277,5.571 -7.09,7.412 -3.408,2.032 -7.414,3.229 -11.713,3.229 -7.409,0 -13.962,-3.507 -18.006,-8.862 -4.477,-6.662 -5.006,-15.665 -0.571,-23.197 2.116,-3.592 5.094,-6.365 8.497,-8.249 3.031,-1.486 6.452,-2.341 10.081,-2.341 8.87,0 16.522,5.014 20.092,12.229 z"
   id="path88"
   style="fill:#005288;fill-opacity:1;stroke:none"
   inkscape:connector-curvature="0" />
<rect
   id="_x3C_Slice_x3E__2_"
   width="288"
   height="288"
   x="-9"
   y="-9.78125"
   style="fill:none" />
</svg>