<?xml version="1.0" encoding="UTF-8"?>
<svg xmlns="http://www.w3.org/2000/svg" version="1.1" xmlns:xlink="http://www.w3.org/1999/xlink" viewBox="0 0 1271.3 221.6">
  <!-- Generator: Adobe Illustrator 29.3.1, SVG Export Plug-In . SVG Version: 2.1.0 Build 151)  -->
  <defs>
    <style>
      .st0 {
        fill: #24767c;
      }

      .st1 {
        fill: #5d5d5d;
      }

      .st2 {
        fill: #70ccd7;
      }

      .st3, .st4 {
        fill: #fff;
      }

      .st5 {
        fill: #28b56e;
      }

      .st6 {
        fill: #febd21;
      }

      .st7 {
        fill: #28777d;
      }

      .st8 {
        display: none;
      }

      .st9 {
        fill: url(#linear-gradient);
      }

      .st4 {
        filter: url(#outer-glow-1);
      }
    </style>
    <linearGradient id="linear-gradient" x1="153" y1="216" x2="50.4" y2="38.2" gradientUnits="userSpaceOnUse">
      <stop offset="0" stop-color="#fff"/>
      <stop offset="0" stop-color="#e3f5f7"/>
      <stop offset=".2" stop-color="#c0e8ed"/>
      <stop offset=".3" stop-color="#a3dee5"/>
      <stop offset=".5" stop-color="#8cd6de"/>
      <stop offset=".6" stop-color="#7cd0da"/>
      <stop offset=".8" stop-color="#72cdd7"/>
      <stop offset="1" stop-color="#70ccd7"/>
    </linearGradient>
    <filter id="outer-glow-1" x="25.2" y="67" width="169.9" height="132" filterUnits="userSpaceOnUse">
      <feOffset dx="0" dy="0"/>
      <feGaussianBlur result="blur" stdDeviation="5"/>
      <feFlood flood-color="#231f20" flood-opacity=".2"/>
      <feComposite in2="blur" operator="in"/>
      <feComposite in="SourceGraphic"/>
    </filter>
  </defs>
  <g id="background" class="st8">
    <rect class="st0" width="1365.3" height="221.6"/>
  </g>
  <g id="sky">
    <path class="st9" d="M208.2,172.8v-.2c11.3-21.8,5.9-45.3-4-66.6-13.5-30.4-33.3-57.9-57.6-80.6-18-17.6-39.6-23.9-60.6-7.1-28.3,24.1-49.5,55.8-65.3,89.3-4,8.9-7.9,17.9-10.3,27.3-1.3,5.2-2,10.5-2,15.7l1.7,14.2c3.1,12.6,10.2,24.2,21.2,32,16.7,11.9,38.3,14.6,58.3,16.7,9.4,1,18.9,1.1,28.4.5l26.6-3.2c1.8-.3,3.7-.7,5.5-1,23.8-4.6,46.7-14.3,58-37.1Z"/>
  </g>
  <g id="ocean">
    <g>
      <path class="st7" d="M26.4,106.2v-4.2s-1.4-2.8-1.4-2.8v-.4c-.5,1-1,2.1-1.5,3.1l1.4,2.6,1.5,1.7Z"/>
      <path class="st7" d="M209.9,120.4c-1.6-4.9-3.6-9.7-5.8-14.4-2.3-5.3-4.9-10.5-7.6-15.6-.3,1.6-.5,3.2-.5,3.9-.2.8-.8,6-1.2,7s-2.3,3.1-2.5,3.8c-.2.8-.8,3.8-1.1,4.5s-3.2,1.7-3.1,2.6c0,.9.2,3.1.2,3.1l-2.5,2.1s-.1,2.9-.6,4c-.4,1.1-1,2.3-1,2.3l2.9-.2s.9-2.4,1.6-3c.8-.6,2.8-3.4,2.8-3.4,0,0-1.2,2.4-1.2,2.7s-1.4,2.1-1.8,2.8c-.4.7-.6,1.8-.6,1.8l-3.6-.3-7,5.5c.7-.9,7.2-13.2,7.4-14.7.2-1.5.6-4.8.7-5.8s-.1-2.2.7-2.6c.8-.4,2.7-3.6,3.6-4.2.9-.6,1.9-2.7,2-3.5,0-.8,1.2-5.3,1.6-5.8.3-.3,1.3-2.2,2.3-3.8-2-3.7-4.1-7.4-6.3-11l-1.1.5s-3.2-3.1-3.2-3.4c0-.3-2.5-2.4-2.5-2.4l.5-3.1-1.2-2.9v-.3c-4-5.8-8.2-11.4-12.7-16.8-1.3-.8-2.6-1.6-3.4-1.8-1.7-.4-3.1.8-6.7,1.2-3.7.4-4.7-1.1-6.3-1.2-1.6-.2-3.1-3.4-5.1-3.1s-2.3,1.3-3.5,1.5c-1.2.2-.3,1-1.6,1.1-1.3.2-5.3.2-5.8.4-.5.2-2.4-1.1-2.4-1.1l-3.6-.5s-4,0-4.7-.3c-.7-.3-2.4-3.2-2.4-3.2l-2.1-1.1-1.1-1.6-2.8.5-2-1.3-2.5-1.3s-2.7.7-3.9.9c-1.2.2-2.5-.2-2.5-.2l-1.4.7h-.9c0-.1-1,1.2-1,1.2l-4.7,1-4.3-2.7-2.1.3-1.3-1.5-2.5-.4s-1.6-1.9-3.4-2.6c-1.8-.7-6.9.5-8.1.3-1.2-.2-2.1-1.9-3.4-1.9-1,0-2.8.7-4.4,1-.6.7-1.3,1.3-1.9,2l2.6,1.8,2.2,1.1,1.6,3-2.2-1.8-1.8-1.2h-1.2s-1.3-1-1.3-1l-1.4,1.3-.4,1.8.6,3.6.7,2.8v3.1c.1,0,1.4,2.6,1.4,2.6l-1.1,1.2-.5,2.8-.6-2.9v-2.5s-.7-3.2-.7-3.2l-.5-1.6v-4c-.1,0-.9-2.7-.9-2.7l-.3-.2c-3,3.4-5.8,6.8-8.6,10.4l1.9,3.7.9,2.8-.2,3.1v2c0,0,0,2.7,0,2.7l2.1,5,1.7,1.7-2.9-.8-1-2.9-.8.7-.8,1.7.9.7-2.2,2.5.7,3.2v5.1c0,0-.3,2-.3,2l-.5,3.4,5.6,10.1-7.6-4.1.2,3.4-3.7,5.3-3.6,2.7,4-5,1.5-3.7.4-2.3.4-2.5-.4-1,1.1-3.3.5-2.7-2.7-4.2-.4,5.9-3.2-1.1v-3.7c0,0,3-5.2,3-5.2l2.1-2.7v-1.4c0,0,3.1-2.6,3.1-2.6l1.6-4.7-1.7-3.3-.3-2.7.3-5.2v-2.4c-6.7,8.5-12.8,17.4-18.4,26.6l2.3,2.8.9,2.6.8,5.2.8,3.2-3-3.8-1.4-2.6-.4-3.1-.4-2-.2-1c-3.5,5.8-6.8,11.8-9.9,17.8l.4.6-.4,2.2,2.8,4.3,1.3,2.5v-6.5c0,0,1.3-7.8,1.3-7.8,0,0,1.4,4.4,1.3,6.4,0,2,.7,8.7.7,8.7l.6,4.2-3.3,5.5,3.7,6.2s-2.5,9.6-2.9,14.8l.4,3.1c-.4-.3-.5-1.5-.4-3.1l-1.5-12.8-9.7-16.7c-4,8.7-7.8,17.6-10.1,27-1,4-1.7,8.1-1.9,12.3l193.2-11.8c-.4-2.7,7.6-11.9,8.2-14.9ZM65.4,73.5v-4.2c.1,0-1.4-4.7-1.4-4.7l.4-2.3-1.1-2.9-.4-1.9.7-4.2,1.1,3.8-.3,2.7.8,3.1-.2,1.6,1.6,3.7v4c0,0,0,2.2,0,2.2l.4,4.2-1.7-5ZM100,45.5l.7,2.4.9,3.2.2,1.4.6,1.5v2.7c0,0,.9,1.8.9,1.8l.2,5.8.9,2,.4-2.9,1.5-2.1.2-4.6-1.6-5.1-.7-2.6,1.3-2.9.2,2.9v2s1.4,5.1,1.4,5.1l.9,2.2-.5,3.9-1.3,1.2-1,.5v2.1c0,0,.7,1.8.7,1.8l-.6,3.6.3,1.4.9,2-.6,3.4.7,2.4,1-3.7.3-2.4.7-6.9.9,7.7.5,2,.5-7.4v-2.4s-1.5-4.3-1.5-4.3v-4.9c0,0,.4-5.5.4-5.5l1.1,4.7,1.5,1.9-1,4.7,1.1,1.9-.7,2.6.7,1.7-.8,7.2-.7,4.2-1.8,1.8-.7,2.8-.3,4.4.4,1.6-.5,3.2,1.2,3.5,1.6,2.4,1.2,12.1-2.3,2.7-2-.8-.5-12-.5-5.7-.4-2.7-1.2-4.5v-3.1c0,0,0-2,0-2l.9-5.3-.5-1.8.7-3.9-1.3-3.2-1.4-4.3-.3-3.8-.5-5.1-1.9-3.7v-3.8c0,0-.7-4.2-.7-4.2v-.9ZM90.1,47.7l1.3,9.2.3,4.1-.4,2.6,1.2,2.8.2,2.5,3.2,6.1-.7,4.4.9,6.9,1.3,6.8-.6,7.3-2.1-9.1.9-5.8-1.4-2.6-.3-6-1.7-2.2-.6-8.1-1-1.3v-3.8s-.8-1.4-.8-1.4v-2.4s.7-4,.7-4l-1.1-1.1.8-4.7ZM84.9,44.3l-.6,3.7-.2,3.3,1.7,4.9-.5,5.9,1.2,2.1.3,2.9.8,3.9,2.6,4.9-.3,7.4,1.4,5.9.5,3.6,1.1,2.8.4,3.7v5.2c0,0-1.5,1.7-1.5,1.7l-.4-.8v-4.5c.1,0,.4-4.1.4-4.1l-1.2-1.8-.3-2.6.3-3.3-3-3.9-.2-3.6.7-4.6-1.7-3.2.5-3.8-1.1-3.5-1.4-3.1-.2-3.2-1.6-4.1v-3.3s.4-1.3.4-1.3v-2.5c0,0-1.1-1.9-1.1-1.9l1.1-2.8.9.9.8-1.1ZM77.7,37.3l2.8.5,3.5-1.6-1.5,2.8-1.3.4-.5,2.5-1,.8-.3,1.6-.6,3.3-.4-4.3.9-2.2-.8-1.7-1.6.8-.7,2.7-.6-3.1,2.1-2.4ZM72,43.6l.9,2.1v2.4s.6,1.1.6,1.1l-.2,1.9,1,2.9.9,2.1,1.1-2.5.7-4.2-2-3.3-.9-2.3,3.5,5.4.2,1.8,2.1,3.4-.4,2.2v1.8c0,0-.2,2.8-.2,2.8l1.3,2.1-.6,3.4-2.3-3.9-1.1-2.5v2.3c.1,0,1.3,1.1,1.3,1.1l-.7,3.8,1.3,2.8-1.2,6.9-2.5-5v-2.3c0,0,0-6,0-6v-4.6s-.4-3.1-.4-3.1l-2.7-5v-2.8s-.9-1.9-.9-1.9l1-3.1ZM79.9,111.2l-4.1-1.7.7-4.1-1-4.9v-4s-1-.9-1-.9l-.4-2.6-1.3-3-.8-3.1-.5-1.4.6-3.5,1.2,2.3.9.9v1.1c0,0,1.6,4.3,1.6,4.3l.8,4.1.7,1.2v2.1s.8,2.3.8,2.3l1,2.7.5,2.5.7,2.9-.5,2.9ZM83.1,106.5l-2.9-4.3.5-2.4-1.3-5.5-.7-8.4.9-5.1,2.1,3,.9,3.9-.2,5.2.8,4.4.3,4.2,1.5-.8.4-5.9-1.2-8.5-.6-3.8-1-2.9.4-4.9-.7-4,1.5,3.8,1,3,.2,5,1.7,4.2.9,7.5,1.4,11.5-1.6-.8-2.7-1.7-1.8,3.3ZM96.9,136.8v.3c-.2-.1-.2-.2,0-.3l.6-11.2-6.4-2.2-.5-3.6-4-2.9,1.8-2.5.9-5.2,2.1,5.5,1,1.3,1.6,3.1,1.5,1.7v-4.2s-1.4-2.8-1.4-2.8l.3-2.4-.3-4c0-.3,0-.6.3-.9l2.7-3.3-1.3,8.4-.4,2.2,2.8,4.3,1.3,2.5v-6.5c0,0,1.3-7.8,1.3-7.8,0,0,1.4,4.4,1.3,6.4,0,2,.7,8.7.7,8.7l.6,4.2-1.9,3,13.4,8.3s-16.7-1-18.3-.1ZM115.6,92.1v1.4c-.1,0-1.3,1.7-1.3,1.7l-.4,2.6,1.2,1.3,1.1,3.8v2.2s-.8,2.7-.8,2.7l-.4-4.6-2.6-4.2.3-3.7-1.2-2.5v-2.7c0,0-.2-3.4-.2-3.4l1.5-6.8.3.5,2.3-2.7.7,3.3.4,5.1-1,1.8v4.3ZM117.1,50l-4,3.6-2,.9,1.5-3,2.1-1.9.6-5.9,4.4-1.2,2.4,3.4,1.5,3.4.2,1.4-.3,2.6,3.6,3.8.7,2.9,1.6,2.2,1.1,1.5-3.7-3.9-1.6-1.6-2.8-1-1.1-1.6-1-5.7-2.2,1.3-1-1.3ZM123.8,92.8l-.5,3.1-1.6,7.2-2.4,2.7-.4-1.8.2-2.9-.6-1.8,1.8-10.7,1.6,4.2.5-4.2.3-3.8-1.2-3.7,1-3.7,1.3-4.4v2.5c0,0,.3,4.5.3,4.5l.5,5.3v4c0,0,.9.8.9.8l-1.6,2.9ZM130,107l-1.4,2.1h-.3c0,0-1.5-1.4-1.5-1.4l.8-4.2-.4-2,1.1-4.7.2,3.5.8.8v2.7c-.1,0,.7-2.4.7-2.4l.5-4.8-.4-6v-3.6c0,0,.2-1.1.2-1.1l.9-2.2,1.2-1.9-.6-.8v-5.7c0,0,1-3,1-3l.6,3.9.5,2.1v4s0,2.1,0,2.1l.5,3.1-.6,3.4-1.5,2.8-.3,3-.7,5.5.2,1.6-1.6,3.1ZM140.7,109.5l-.9.6.5,2.2.2,2.3-.3,1.1-1.1,3.4-2.4,5.5-1.2,4.7v2.6c0,0,.7-2.6.7-2.6l1-.5,1.4-3.2-.5,4.8-1.1,1.7-.7,4.3-1.8.8h-.3c0,0-.6-2.5-.6-2.5l-.4-3.5.8-1.5,1.2-5.4.8-2.9-.5-3.1.6-3.4,1.5-2.8.7-2,1.4-3.8,1.2-1.8,1.9-3.5v3.2s-1.9,5.3-1.9,5.3ZM136.9,94.2l.2,2.1.2,2.2.9-2.1c.9-2.1,1.3-4.5,1.3-4.5l.8-1.1.4-2.6,2.2-2.1,3.5-7.2-3.1,9-1.6,1.6.6.6-.6,1.7-1.4,2.2-1,3.1h-.3c-.3.1-1.2,4.2-1.2,4.2l-1.6,5-.7.8-.6,3.2-1.5,1.5v.3c-.1,0-.7,3.2-.7,3.2l-.8-1.4,1.5-5.8v-4.9c.1,0,1.8-5,1.8-5l.3-4.7.2-4.3v-2.4c0,0,1.9-2.8,1.9-2.8l.7-3.9,2.4-2.4.6-1.9-.7-4,.7-2.6,1.8-1.1.4-1.4-.8-3.5.8-1.6-.8-4.1,2-2,.5-2.3-.3-2.9,1.7-2.3,4.3,3.2,1.1-1.1h1.9c0,0-.6,3.8-.6,3.8l-3.8,4.5-1.5,1.3-.6,2.5-3.5,5.6-.5,1.8-1.1,1.9.7,2.4,1.6-1.8,3.9-3.5-1.8,2.9-1.4,2.6-2,1.6-1.3,1.1-1,1.5-1.8,6.2-.3,4.1-2.3,2.9.9,2.3ZM154.7,87.4l-1.2,2.8-1.2,6.8-2.1,8.1s-.8.8-1.5,1.5c0,0-.3-1-.5-1.6s.5-3,.6-3.7c.1-.8,1.1-5.6,1.2-6.7,0-1.1.8-2,.9-2.6.1-.6,1-4.1,1-4.1l1.9-1.1,1.3-1.7-.4,2.3ZM171.2,117.8c-.4,1.1-1.9.4-2.3.6-.4.2-7.3,9.5-7.4,9.8,0,0,2-7.9-.4-9.6-2.4-1.8-3.8.8-3.9.3s-1.5-1.2-1.5-1.2c0,0,.4-2.6,1.2-8.3.7-5.7,1-7.2,1.4-9.4.4-2.2.7-6.9.6-9.7,0-2.8,1.2-7.2,1.2-7.2l-1.5-2.2.3-1.9-.4-1.7s.4-2.1-.2-3.6c-.6-1.5,1.5-7.1,1.5-7.1,0,0,.3,1.8,0,3.7-.3,1.9.2,4,.4,5.1s-.1,2.8-.1,2.8c0,0,0,1.3-.3,2.1s.9,2.2.9,2.2l1.1-1.2s-.3,2.5-.1,3.4c.2.9-.2,2.7-.5,3.3-.3.5,0,3.1.5,4.3s.2,2.6,0,3.8c-.3,1.2-.9.4-.7.9.2.5-1.1,9.2-1.2,9.5,0,.3-1,2.2-1,3s-1.5,8.7-1.5,8.7c0,0,3.5-2.9,4-5.3.5-2.4,1.9-2.5,3.1-7.2,1.2-4.7,2.1-7.9,2.8-8.3.6-.4,1.4-4.1,1.8-4.3.4-.3.9-3.1.9-3.1h.4c.4,0,1.1-3.3,1.4-4.5.3-1.2.2-2.3.2-2.6,0-.3-.2-1.3.1-1.7.3-.5.8-3,.8-3l.5,3.3s-.8,1.4-.8,2.4c0,1,.6,1.5.6,1.7,0,.2-1,4.8-1,4.8l-1.4,1.6-.9,3.7-1,1.6s.3.9.5,1.4c.2.5-.5,2.4-.8,3.4-.3,1-2.6,2.6-2.9,4.3-.3,1.6.3,2.6,1.3-.2,1-2.7,3.5-4,3.6-4.5,0-.5,1.7-2.9,3-4.1,1.2-1.3,1.4-4.1,1.6-4.6s2.5-2.7,2.6-3,.8-2.6.9-3.4c.1-.7,4.3-3.8,3.8-2.9-.5.9-.4,4.9-.5,5.5,0,.6-1.1,2.4-1.2,2.9s-1.2,2.5-1.5,4.8-1.4,4.4-1.4,4.7c0,.3-2,8.6-2.3,9.5s-2.4,3.3-2.5,3.5-1.4,2.3-1.9,3.3ZM174.9,121.4s1.2-5.5,1.1-6.6c0-1,1.2-4,1.5-4.9.3-1,1-1.1,2-1.8s2.2-2.6,2.5-3.6c.4-1,0-3.5-.2-4.2-.3-.7,1.3-4,1.6-5,.4-1,2.2-6.2,2.3-6.9.1-.7.3-4.8.4-5.3,0-.2.6-.7,1.2-1.1l-2.2-2.4-1.6-1.6-2.8-1-1.1-1.6-3.2-4.4-1-1.3-4,3.6-2,.9-5.3,5,6.8-8,2.1-1.9-.2-1.3,5.2-5.9,2.4,3.4,1.5,3.4.2,1.4-.3,2.6,3.6,3.8.7,2.9,1.5,2c.8-.5,1.5-1,1.5-1l.4,1.6s-1.7,3.7-2,4.3-.6,2.8-.6,3.4c0,.6-1.8,2.4-.3,1.9,1.5-.5,4.9-2.9,4.8-2.3-.1.6-2.2,5.1-2.6,5.6-.4.5-1,3.5-1.2,4.7-.1,1.2-1.5,2.6-2.1,3.8-.5,1.2-2.7-.5-2.7-.5l.5,2.2v3.3c-.1,0-1.4,3.1-1.4,3.1l-1.2,1.2-1.5,2.7-1.8,2.1s0,1.7-.4,2.4c-.3.7-2.2,1.1-2.2,1.1ZM201.7,108.6c-.7,1-1.5,5.2-1.5,5.2l-.8.4s-1,1.5-1.7,1.6-1.2,1.9-1.3,3c-.1,1.1-.6,4-.9,3.5-.4-.5-2,.4-2.9,1.3,0,0,.4-4,.8-4.6s1.3-1.6,1.7-2.5,1.2-2.2,1.4-2.8c.2-.6,1.4-2.5,1.6-3.5.2-1.1,4.2-2.7,3.5-1.6Z"/>
    </g>
    <g>
      <path class="st5" d="M192.6,123.5c.9-.9,2.5-1.8,2.9-1.3.4.5.8-2.4.9-3.5.1-1.1.6-2.8,1.3-3s1.7-1.6,1.7-1.6l.8-.4s.8-4.2,1.5-5.2-3.3.6-3.5,1.6c-.2,1.1-1.4,2.9-1.6,3.5-.2.6-1,1.9-1.4,2.8-.4.9-1.3,1.9-1.7,2.5-.4.6-.8,4.6-.8,4.6Z"/>
      <path class="st5" d="M177.5,129.8c.7-.9,7.2-13.2,7.4-14.7.2-1.5.6-4.8.7-5.8.1-1-.1-2.2.7-2.6s2.7-3.6,3.6-4.2c.9-.6,1.9-2.7,2-3.5,0-.8,1.2-5.3,1.6-5.8s2.2-3.9,2.2-3.9l.6,1.2-.5,3.9s-.8,6-1.2,7c-.4,1-2.3,3.1-2.5,3.8-.2.8-.8,3.8-1.1,4.5-.3.7-3.2,1.7-3.1,2.6,0,.9.2,3.1.2,3.1l-2.5,2.1s-.1,2.9-.6,4-1,2.3-1,2.3l2.9-.2s.9-2.4,1.6-3c.8-.6,2.8-3.4,2.8-3.4,0,0-1.2,2.4-1.2,2.7,0,.3-1.4,2.1-1.8,2.8-.4.7-.6,1.8-.6,1.8l-3.6-.3-7,5.5Z"/>
      <path class="st5" d="M174.9,121.4s1.9-.4,2.2-1.1.4-2.4.4-2.4l1.8-2.1,1.5-2.7,1.2-1.2,1.2-3.1v-3.3c.1,0-.4-2.2-.4-2.2,0,0,2.2,1.7,2.7.5.5-1.2,1.9-2.6,2.1-3.8.1-1.2.8-4.2,1.2-4.7s2.5-5,2.6-5.6-3.3,1.8-4.8,2.3.3-1.2.3-1.9.2-2.9.6-3.4,2-4.3,2-4.3l-.4-1.6s-2.9,1.7-2.9,2.2-.3,4.6-.4,5.3-2,5.9-2.3,6.9c-.4,1-1.9,4.3-1.6,5,.3.7.6,3.2.2,4.2-.4,1-1.6,2.9-2.5,3.6s-1.7.9-2,1.8-1.6,3.9-1.5,4.9c0,1-1.1,6.6-1.1,6.6Z"/>
      <path class="st5" d="M161.6,128.2c0-.3,6.9-9.6,7.4-9.8.4-.2,1.8.5,2.3-.6.4-1.1,1.7-3.2,1.9-3.3s2.2-2.6,2.5-3.5c.3-.9,2.2-9.2,2.3-9.5s1.2-2.4,1.4-4.7c.3-2.3,1.4-4.3,1.5-4.8s1.1-2.4,1.2-2.9c0-.6,0-4.6.5-5.5.5-.9-3.6,2.1-3.8,2.9s-.8,3-.9,3.4-2.4,2.5-2.6,3-.4,3.3-1.6,4.6c-1.2,1.3-2.9,3.6-3,4.1s-2.6,1.8-3.6,4.5c-1,2.7-1.6,1.8-1.3.2s2.6-3.2,2.9-4.3c.3-1,.9-2.9.8-3.4s-.5-1.4-.5-1.4l1-1.6.9-3.7,1.4-1.6s.9-4.7,1-4.8-.7-.7-.6-1.7.8-2.4.8-2.4l-.5-3.3s-.5,2.5-.8,3-.1,1.4-.1,1.7,0,1.4-.2,2.6c-.3,1.2-1,4.5-1.4,4.5h-.4s-.6,2.9-.9,3.1c-.4.3-1.1,3.9-1.8,4.3s-1.6,3.5-2.8,8.3c-1.2,4.7-2.6,4.8-3.1,7.2-.5,2.4-4,5.3-4,5.3,0,0,1.5-7.9,1.5-8.7,0-.8.9-2.7,1-3s1.4-8.9,1.2-9.5.4.3.7-.9c.3-1.2.5-2.7,0-3.8-.5-1.2-.9-3.7-.5-4.3.3-.5.7-2.4.5-3.3-.2-.9.1-3.4.1-3.4l-1.1,1.2s-1.2-1.4-.9-2.2.3-2.1.3-2.1c0,0,.3-1.7.1-2.8-.2-1.1-.6-3.1-.4-5.1.3-1.9,0-3.7,0-3.7,0,0-2.1,5.5-1.5,7.1.6,1.5.2,3.6.2,3.6l.4,1.7-.3,1.9,1.5,2.2s-1.2,4.4-1.2,7.2c0,2.8-.2,7.5-.6,9.7-.4,2.2-.7,3.8-1.4,9.4-.7,5.7-1.2,8.3-1.2,8.3,0,0,1.4.7,1.5,1.2s1.5-2.1,3.9-.3c2.4,1.8.4,9.6.4,9.6Z"/>
      <path class="st5" d="M148.7,106.5c.7-.7,1.5-1.5,1.5-1.5l2.1-8.1,1.2-6.8,1.2-2.8.4-2.3-1.3,1.7-1.9,1.1s-.8,3.5-1,4.1-.8,1.5-.9,2.6-1,5.9-1.2,6.7-.8,3.2-.6,3.7c.1.5.5,1.6.5,1.6Z"/>
      <path class="st5" d="M133.2,111.9l1.5-1.5.6-3.2.7-.8,1.6-5s.8-4.1,1.2-4.2h.3c0,0,1-3.2,1-3.2l1.4-2.2.6-1.7-.6-.6,1.6-1.6,3.1-9-3.5,7.2-2.2,2.1-.4,2.6-.8,1.1s-.4,2.4-1.3,4.5l-.9,2.1-.2-2.2-.2-2.1-.9-2.3,2.3-2.9.3-4.1,1.8-6.2,1-1.5,1.3-1.1,2-1.6,1.4-2.6,1.8-2.9-3.9,3.5-1.6,1.8-.7-2.4,1.1-1.9.5-1.8,3.5-5.6.6-2.5,1.5-1.3,3.8-4.5.6-3.7h-1.9c0,0-1.1,1-1.1,1l-4.3-3.2-1.7,2.3.3,2.9-.5,2.3-2,2,.8,4.1-.8,1.6.8,3.5-.4,1.4-1.8,1.1-.7,2.6.7,4-.6,1.9-2.4,2.4-.7,3.9-1.8,2.8v2.4c0,0-.3,4.3-.3,4.3l-.3,4.7-1.7,5v4.9c-.1,0-1.6,5.8-1.6,5.8l.8,1.4.6-3.2v-.3Z"/>
      <polygon class="st5" points="128.6 109.2 130 107 131.5 103.9 131.3 102.2 132 96.8 132.2 93.8 133.7 91 134.3 87.6 133.8 84.5 133.8 82.4 133.8 78.3 133.3 76.3 132.7 72.4 131.6 75.4 131.6 81.1 132.3 81.9 131.1 83.8 130.2 85.9 130 87.1 129.9 90.7 130.4 96.6 129.9 101.4 129.1 103.9 129.2 101.2 128.5 100.4 128.2 96.8 127.1 101.5 127.5 103.5 126.8 107.8 128.2 109.1 128.6 109.2"/>
      <polygon class="st5" points="134.2 137.1 133.6 134.6 133.2 131.1 134 129.6 135.1 124.3 135.9 121.4 135.4 118.3 136 114.8 137.5 112.1 138.1 110.1 139.5 106.2 140.7 104.5 142.6 101 142.6 104.2 140.7 109.5 139.8 110.1 140.3 112.3 140.4 114.6 140.2 115.7 139.1 119.2 136.7 124.7 135.6 129.3 135.5 131.9 136.3 129.3 137.3 128.8 138.6 125.6 138.1 130.4 137.1 132.1 136.4 136.3 134.6 137.1 134.2 137.1"/>
      <polygon class="st5" points="119.2 105.6 121.7 103 123.3 95.8 123.8 92.8 125.4 89.9 124.6 89.1 124.5 85.1 124 79.8 123.8 75.2 123.7 72.8 122.4 77.2 121.5 80.9 122.6 84.6 122.3 88.4 121.8 92.6 120.2 88.4 118.4 99.1 119 100.9 118.8 103.8 119.2 105.6"/>
      <polygon class="st5" points="115.3 107.8 116.2 105.1 116.2 102.9 115 99.1 113.8 97.8 114.3 95.2 115.5 93.5 115.6 92.1 115.5 87.9 116.5 86 116.1 81 115.5 77.7 113.1 80.4 112.8 79.9 111.3 86.7 111.4 90.1 111.5 92.8 112.7 95.3 112.4 99 115 103.2 115.3 107.8"/>
      <polygon class="st5" points="107.2 103.6 106.7 97.9 106.2 95.1 105 90.6 105.1 87.5 104.9 85.5 105.8 80.2 105.3 78.4 106 74.5 104.7 71.3 103.3 67 103 63.2 102.5 58.1 100.6 54.4 100.6 50.6 99.8 46.3 100 45.5 100.7 47.8 101.6 51 101.9 52.5 102.4 54 102.5 56.7 103.3 58.5 103.6 64.3 104.4 66.3 104.9 63.4 106.4 61.3 106.6 56.7 105 51.6 104.3 49 105.6 46.1 105.8 49 105.8 51 107.2 56.1 108.1 58.3 107.6 62.2 106.3 63.4 105.4 63.9 105.4 66 106.1 67.8 105.5 71.4 105.8 72.9 106.7 74.9 106 78.3 106.8 80.7 107.8 77 108.1 74.6 108.9 67.7 109.7 75.4 110.2 77.4 110.7 70 110.7 67.6 109.2 63.3 109.3 58.4 109.6 53 110.7 57.7 112.3 59.6 111.3 64.3 112.3 66.2 111.6 68.8 112.4 70.4 111.6 77.6 110.9 81.8 109.1 83.6 108.4 86.5 108.1 90.9 108.5 92.5 107.9 95.7 109.1 99.2 110.8 101.6 112 113.7 109.7 116.4 107.6 115.6 107.2 103.6"/>
      <polygon class="st5" points="96.8 100.3 97.4 93.1 96.1 86.3 95.2 79.3 96 75 92.8 68.9 92.5 66.4 91.3 63.6 91.8 61 91.5 56.9 90.1 47.7 89.3 52.4 90.4 53.5 89.8 57.5 89.7 60 90.5 61.4 90.5 65.2 91.5 66.5 92.1 74.6 93.8 76.8 94.2 82.8 95.6 85.4 94.7 91.2 96.8 100.3"/>
      <polygon class="st5" points="93.3 104.5 93.4 99.3 93 95.6 91.9 92.8 91.3 89.2 90 83.2 90.3 75.9 87.6 71 86.8 67.1 86.5 64.2 85.2 62.1 85.8 56.1 84 51.3 84.3 48 84.9 44.3 84 45.4 83.2 44.6 82.1 47.4 83.1 49.3 83.2 51.7 82.7 53.1 82.8 56.3 84.3 60.4 84.5 63.6 85.9 66.6 87 70.1 86.5 74 88.2 77.2 87.5 81.7 87.6 85.3 90.6 89.1 90.3 92.4 90.7 95.1 91.9 96.8 91.6 100.9 91.5 105.4 91.9 106.2 93.3 104.5"/>
      <polygon class="st5" points="89.2 105.7 87.8 94.2 86.9 86.7 85.2 82.5 85.1 77.5 84 74.5 82.5 70.7 83.2 74.8 82.8 79.6 83.7 82.5 84.4 86.3 85.6 94.8 85.1 100.7 83.6 101.5 83.3 97.3 82.4 92.9 82.6 87.7 81.7 83.8 79.6 80.8 78.7 85.8 79.4 94.3 80.7 99.8 80.1 102.2 83.1 106.5 84.9 103.2 87.6 104.9 89.2 105.7"/>
      <polygon class="st5" points="77.4 77.4 78.6 70.5 77.3 67.7 77.9 63.9 76.7 62.8 76.6 60.5 77.7 63 80 66.8 80.6 63.5 79.3 61.4 79.5 58.6 79.5 56.8 79.9 54.6 77.7 51.1 77.5 49.3 74 43.9 74.9 46.2 76.9 49.5 76.3 53.7 75.2 56.2 74.3 54.1 73.3 51.1 73.4 49.2 72.9 48.2 72.9 45.7 72 43.6 71.1 46.7 71.9 48.6 71.9 51.4 74.6 56.4 75.1 59.4 75 64.1 75 70.1 74.9 72.4 77.4 77.4"/>
      <polygon class="st5" points="80.4 108.3 79.9 111.2 75.9 109.5 76.6 105.4 75.6 100.4 75.7 96.4 74.7 95.5 74.3 93 73 89.9 72.2 86.8 71.7 85.4 72.3 81.9 73.5 84.1 74.3 85.1 74.4 86.2 76 90.5 76.7 94.6 77.4 95.8 77.5 97.9 78.3 100.3 79.2 102.9 79.8 105.5 80.4 108.3"/>
      <path class="st5" d="M32.1,140.7c-1.8-1.4,2.5-17.9,2.5-17.9l-3.7-6.2,3.3-5.5-.6-4.2s-.8-6.7-.7-8.7c0-2-1.3-6.4-1.3-6.4l-1.3,7.8v6.5c0,0-1.3-2.5-1.3-2.5l-2.8-4.3.4-2.2-.4-.6-1.2,2.4v.4s1.4,2.8,1.4,2.8v4.2s-1.6-1.7-1.6-1.7l-1.4-2.6-2.9,6.1,9.7,16.7,1.9,15.9Z"/>
      <path class="st5" d="M96.9,137.1c-1.8-1.4,18.3-.2,18.3-.2l-13.4-8.3,1.9-3-.6-4.2s-.8-6.7-.7-8.7c0-2-1.3-6.4-1.3-6.4l-1.3,7.8v6.5c0,0-1.3-2.5-1.3-2.5l-2.8-4.3.4-2.2,1.3-8.4-2.7,3.3c-.2.2-.3.6-.3.9l.3,4-.3,2.4,1.4,2.8v4.2s-1.6-1.7-1.6-1.7l-1.6-3.1-1-1.3-2.1-5.5-.9,5.2-1.8,2.5,4,2.9.5,3.6,6.4,2.2-.6,11.5Z"/>
      <polygon class="st5" points="84 36.2 80.5 37.8 77.7 37.3 75.6 39.8 76.2 42.8 76.9 40.1 78.5 39.2 79.3 41 78.4 43.2 78.8 47.5 79.4 44.3 79.6 42.7 80.6 41.8 81.2 39.4 82.5 39 84 36.2"/>
      <polygon class="st5" points="57 68.7 56.2 70.4 57.2 71.1 55 73.6 55.7 76.8 55.8 81.9 55.4 83.9 55 87.3 60.6 97.3 53 93.2 53.2 96.6 49.6 102 45.9 104.7 50 99.7 51.5 96 51.9 93.7 52.3 91.2 51.9 90.2 53 86.9 53.5 84.2 50.8 80 50.4 85.9 47.2 84.8 47.3 81.1 50.2 75.9 52.3 73.1 52.3 71.7 55.4 69.1 57 64.4 55.2 61.1 54.9 58.4 55.2 53.1 55.1 50.7 55.4 50.4 57.3 54.2 58.1 57 57.9 60.1 57.8 62.2 57.8 64.9 60 69.9 61.7 71.6 58.8 70.8 57.8 67.9 57 68.7"/>
      <polyline class="st5" points="36.9 77.3 39.2 80.1 40 82.6 40.8 87.8 41.6 91 38.6 87.3 37.2 84.7 36.8 81.6 36.4 79.6 36.1 78.5"/>
      <polygon class="st5" points="67.2 78.5 65.4 73.5 65.6 69.3 64.1 64.6 64.5 62.2 63.3 59.3 62.9 57.4 63.6 53.2 64.7 57.1 64.4 59.7 65.2 62.8 65.1 64.4 66.6 68 66.7 72.1 66.7 74.3 67.2 78.5"/>
      <polygon class="st5" points="70.1 38 67.5 36.1 64 40.1 64.3 40.2 65 43 65.1 46.9 65.6 48.6 66.3 51.8 66.3 54.3 66.9 57.1 67.3 54.3 68.4 53.2 67.1 50.5 67 47.4 66.3 44.6 65.7 41 66.1 39.2 67.4 38 68.7 39 70 39 71.8 40.2 74 42 72.4 39 70.1 38"/>
      <path class="st5" d="M189.6,78.3l-1.1.5s-3.2-3.1-3.2-3.4-2.5-2.4-2.5-2.4l.5-3.1-1.2-2.9v-.3s3.8,5.7,3.8,5.7"/>
      <polygon class="st5" points="164.1 79.2 170.9 71.2 173 69.3 172.8 68 178 62.1 180.4 65.6 181.9 69 182.1 70.5 181.8 73 185.4 76.9 186.1 79.7 187.7 81.9 188.8 83.4 185.2 79.5 183.6 78 180.8 77 179.7 75.4 176.5 71 175.5 69.7 171.5 73.3 169.4 74.2 164.1 79.2"/>
      <polygon class="st5" points="112.5 51.5 114.6 49.6 115.2 43.7 119.6 42.4 122 45.9 123.5 49.3 123.7 50.8 123.4 53.3 127 57.2 127.7 60 129.3 62.2 130.4 63.7 126.8 59.8 125.2 58.3 122.4 57.3 121.3 55.7 120.3 50 118.1 51.3 117.1 50 113.1 53.6 111 54.5 112.5 51.5"/>
    </g>
    <g>
      <path class="st2" d="M82.4,212.3c-1.1,0-2.3,0-3.4,0,3.6.5,7.1.8,10.6,1.2,1.1.1,2.2.2,3.2.3-.3,0-.6-.1-.9-.2-3.1-.7-6.3-1.3-9.5-1.4Z"/>
      <path class="st2" d="M127,211.7c-4,.6-7.8,1.8-11.7,2.7,7.8-.3,15.5-1.1,23.2-2.3-.8-.2-1.6-.3-2.4-.5-3-.4-6-.3-9,0Z"/>
      <path class="st2" d="M178.2,144.9c-2.4-.7-4.8-1.6-7.2-2.3-3.1-.8-6.3-1.1-9.6-1-10.7.4-20.7,4.9-31.4,5.6-3.6.2-7.3.1-10.8-.5-.8-.1-1.6-.3-2.4-.5,1.5.5,3,1,4.4,1.4,2.9.9,5.8,1.7,8.8,2,4.4.5,8.9,0,13.2-.8,5.8-1.1,11.5-3,17.3-3.9,4-.7,8-1,12-.7,2.9.2,5.7.7,8.5,1.6,2.4.7,4.8,1.6,7.2,2.3,3,.8,6,1,9.1.8,5.1-.4,10-2,15-3.1.7-.2,1.5-.3,2.3-.4,0-1.1,0-2.2-.1-3.2-5.6.4-10.8,2-16.3,3.2-6.7,1.4-13.4,1.7-19.9-.3Z"/>
      <path class="st2" d="M75.3,211.9c3.7-.5,7.4-.6,11.2,0,3.1.4,6.1,1.2,9.2,1.8,1.4.3,2.8.5,4.2.7,2.9.1,5.8.2,8.8.2,3.8-.4,7.4-1.3,11.1-2.3,6.4-1.7,12.9-2.4,19.4-1,.6.1,1.1.3,1.7.4.3,0,.6,0,.9-.1-4.1-.9-8.1-2.4-12.3-3-3-.4-6.1-.3-9.1.2-4.8.7-9.3,2.3-14,3.1-3.8.7-7.8.9-11.7.5-3.1-.3-6.2-1-9.2-1.7-3.1-.7-6.3-1.3-9.5-1.3-.2,0-.4,0-.5,0v-.8c1.5,0,3,.1,4.5.3,3.1.4,6.1,1.1,9.2,1.8,3.2.7,6.4,1.2,9.7,1.1,4.9,0,9.6-1.2,14.3-2.4,6.4-1.7,13.1-2.5,19.6-1.1,4,.9,7.8,2.2,11.8,2.8,2-.4,4-.7,6-1.1,5.6-1.1,11.1-2.4,16.4-4.2-.7.2-1.4.3-2.1.5-7.8,2.1-15.7,3.7-23.8,2.6-4.9-.7-9.5-2.7-14.4-3.4-3.2-.5-6.5-.3-9.7.3-4.7.8-9.3,2.4-14,3.2-3.7.6-7.5.8-11.3.4-3-.3-6-1-9-1.6-2.3-.5-4.7-1-7.1-1.3v-.3c.2,0,.4,0,.5,0,3.1.3,6.1,1,9.1,1.7,3.1.7,6.3,1.3,9.5,1.4,4.7,0,9.4-.9,14-2.1,6.6-1.8,13.4-2.8,20.2-1.5,4.9.9,9.6,2.9,14.6,3.3,9.3.8,17.9-2.7,26.9-4.4,2.4-.9,4.8-1.9,7.1-2.9-4.8.3-9.5,1.4-14.1,2.6-7.5,2-15.5,3.5-23.3,2.2-4.9-.8-9.5-2.8-14.5-3.4-3.2-.4-6.5-.1-9.7.4-4.8.8-9.4,2.5-14.2,3.2-3.7.6-7.5.7-11.2.3-2.9-.3-5.8-1.1-8.7-1.7-2-.5-4.1-.9-6.1-1.1v-.6c0,0,.2,0,.2,0,3,.3,5.9,1,8.8,1.7,3.1.7,6.2,1.3,9.4,1.4,4.6.1,9.2-.7,13.6-1.9,6.8-1.8,13.7-3.2,20.7-1.8,4.9,1,9.6,2.9,14.6,3.4,3.8.3,7.5,0,11.3-.6,5.3-.9,10.4-2.6,15.7-3.6,3-.6,6-.9,9-1,1.3-.7,2.7-1.3,4-2.1-6.2,0-12.3,1.4-18.2,3-7.5,2-15.4,3.2-23.2,1.9-4.9-.8-9.5-2.9-14.5-3.5-8.4-1-16.3,2.7-24.5,3.8-3.5.5-7.1.5-10.6.1-3-.3-5.9-1.1-8.8-1.7-2.5-.6-5-1.1-7.5-1.3v-.3c.4,0,.8,0,1.2,0,3,.3,5.9.9,8.7,1.6,3,.7,6,1.4,9.1,1.5,4.5.2,8.9-.5,13.3-1.6,4.2-1.1,8.3-2.2,12.6-2.5,2.9-.2,5.8-.1,8.7.3,5,.8,9.7,2.9,14.8,3.5,3.7.4,7.5.1,11.1-.4,5.3-.8,10.3-2.5,15.6-3.6,4.1-.8,8.3-1.3,12.5-1.2,1.1-.6,2.2-1.3,3.2-1.9-6.8-.1-13.5,1.6-20.2,3.3-7.3,1.8-15,2.9-22.5,1.5-4.9-1-9.6-3-14.7-3.4-8.5-.7-16.3,2.9-24.6,3.9-3.5.4-7.1.5-10.6,0-2.9-.4-5.7-1.2-8.6-1.8-3.1-.7-6.3-1.2-9.5-1.2v-.7c1.4,0,2.8,0,4.1.2,3,.3,5.9,1,8.9,1.7,2.9.7,5.8,1.3,8.8,1.4,4.3.2,8.6-.5,12.8-1.5,4.3-1.1,8.6-2.3,13-2.7,3-.3,6-.2,8.9.4,5,.9,9.6,2.9,14.6,3.5,3.6.4,7.2.2,10.8-.3,5.4-.8,10.5-2.5,15.8-3.6,4.6-1,9.3-1.5,13.9-1.2.9-.6,1.8-1.2,2.6-1.8-7-.2-13.9,1.7-20.7,3.4-7.4,1.8-15.1,2.8-22.6,1.3-4.9-1-9.6-3.1-14.7-3.4-8.5-.6-16.4,3-24.8,4-3.5.4-7,.4-10.5-.1-2.9-.4-5.7-1.2-8.5-1.8-3.1-.7-6.3-1.2-9.5-1.2-1,0-2,0-3,.1v-.6c2.3-.1,4.5-.1,6.7,0,3,.3,5.9.9,8.8,1.6,2.9.7,5.8,1.4,8.8,1.5,4.2.3,8.3-.3,12.4-1.2,4.5-1,8.8-2.4,13.3-2.9,3-.3,6.1-.3,9.2.2,5,.8,9.7,2.9,14.7,3.6,3.5.5,7,.4,10.5,0,5.3-.7,10.3-2.2,15.5-3.4,5-1.1,10.1-1.8,15.1-1.6.8-.6,1.6-1.2,2.4-1.9-2.2,0-4.3,0-6.5.3-5.3.6-10.4,2.2-15.6,3.4-7.2,1.7-14.7,2.4-21.9.8-5-1.1-9.7-3.2-14.9-3.4-8.6-.4-16.6,3.3-25.1,4.2-3.4.3-6.8.2-10.1-.3-2.8-.5-5.5-1.2-8.3-1.9-3.1-.7-6.3-1.1-9.6-1.1-1.7,0-3.5.2-5.2.4v-.8c3.1-.4,6.3-.5,9.4-.2,3,.3,5.8.9,8.7,1.6,2.8.7,5.7,1.4,8.6,1.6,4,.3,8.1-.2,12-1.1,4.5-1,8.9-2.4,13.5-3,3.1-.4,6.3-.4,9.3.1,5,.8,9.8,2.9,14.8,3.6,3.5.5,7,.4,10.4,0,5.3-.6,10.4-2.2,15.6-3.4,5.1-1.2,10.3-1.9,15.5-1.7.8-.7,1.5-1.3,2.3-2-2.7-.1-5.5,0-8.2.4-5.4.7-10.6,2.4-15.9,3.5-7.1,1.5-14.4,2.2-21.5.5-5-1.2-9.7-3.2-14.9-3.4-8.6-.3-16.6,3.4-25.2,4.2-3.3.3-6.7.2-10-.4-2.8-.5-5.5-1.2-8.3-1.9-3.1-.7-6.3-1.1-9.5-1.1-2.3,0-4.6.3-6.8.6v-.6c3.5-.5,7-.7,10.5-.4,3,.2,5.8.9,8.7,1.6,2.8.7,5.6,1.4,8.4,1.7,3.9.4,7.7,0,11.5-.8,4.7-.9,9.2-2.5,14-3.1,3.2-.4,6.5-.5,9.7,0,5.1.7,9.8,2.8,14.8,3.7,8.7,1.5,17.2-.9,25.6-3,5.7-1.4,11.6-2.3,17.5-1.9.7-.7,1.4-1.4,2-2.1,0,0-.1,0-.2,0-3.7-.4-7.4-.2-11.1.3-5.4.8-10.6,2.4-15.9,3.6-7.1,1.5-14.5,2-21.6.2-5.1-1.3-9.8-3.2-15.1-3.3-8.7-.2-16.7,3.7-25.3,4.3-3.2.2-6.5,0-9.7-.5-2.7-.5-5.4-1.3-8.1-1.9-3.1-.7-6.3-1.1-9.5-1-2.1,0-4.1.3-6.2.6v-.6c3.3-.5,6.6-.6,9.8-.4,2.9.2,5.8.8,8.7,1.5,2.8.7,5.5,1.4,8.3,1.7,3.8.4,7.6,0,11.3-.6,4.7-.9,9.2-2.5,14-3.2,3.2-.5,6.5-.6,9.8-.2,5.1.6,9.8,2.7,14.9,3.7,8.5,1.6,17-.5,25.2-2.6,6.9-1.7,14-2.9,21.1-2,.5-.6,1-1.1,1.5-1.7-1.6-.4-3.3-.8-5-1-3.9-.4-7.8-.2-11.6.4-5.4.9-10.6,2.6-16,3.6-6.9,1.4-14.1,1.7-21,0-5.1-1.3-10-3.3-15.4-3.4-8.7,0-16.8,3.8-25.5,4.4-3.2.2-6.4,0-9.6-.6-2.7-.5-5.3-1.3-7.9-1.9-3.1-.7-6.2-1.1-9.4-1.1-1,0-2.1,0-3.1.2v-.3c5.1-.3,10,.1,15,1.4,2.7.7,5.3,1.4,8.1,1.8,3.6.5,7.3.2,10.9-.4,4.8-.8,9.5-2.5,14.3-3.3,3.3-.5,6.6-.7,10-.4,5.2.5,9.9,2.6,14.9,3.7,8.4,1.8,16.9-.1,25.1-2.2,7.7-2,15.7-3.3,23.7-2,.9.2,1.9.4,2.8.6.2-.3.5-.6.7-.9-4.3-1.1-8.5-2.7-12.9-3.1-3.9-.4-7.8,0-11.6.6-5.5.9-10.8,2.7-16.2,3.7-6.9,1.3-13.9,1.5-20.7-.3-5.2-1.4-10.1-3.3-15.6-3.3-8.7,0-16.8,3.9-25.4,4.4-3.2.2-6.4,0-9.5-.7-2.6-.5-5.2-1.3-7.8-1.9-1.8-.4-3.7-.7-5.5-.8v-.5c2.9.2,5.6.8,8.4,1.5,2.6.7,5.3,1.4,8,1.8,3.6.5,7.2.3,10.8-.3,4.8-.8,9.4-2.4,14.2-3.2,3.4-.6,6.8-.8,10.2-.5,5.2.5,10,2.6,15.1,3.7,8.1,1.8,16.4.2,24.3-1.9,8-2.1,16.3-3.7,24.6-2.3,3.5.6,6.8,1.8,10.2,2.7.4-.5.8-1.1,1.2-1.6-2.7,0-5.5-.1-8.2-.7-5.2-1.1-10-3.2-15.3-3.6-4.1-.3-8.3.1-12.3.9-5.4,1-10.7,2.8-16.2,3.7-6.9,1.2-13.6,1.2-20.4-.8-2.4-.7-4.8-1.5-7.2-2.1-2.8-.7-5.6-1-8.5-1-8.8.2-16.9,4.2-25.7,4.4-3.1,0-6.1-.2-9.1-.8-1.3-.3-2.7-.6-4-1v-.9c2.4.6,4.8,1.3,7.3,1.6,3.5.5,7.1.3,10.6-.2,4.8-.7,9.4-2.4,14.2-3.2,3.5-.6,7-.9,10.5-.6,5.3.5,10.1,2.6,15.2,3.7,8,1.8,16.3.4,24.2-1.6,8.2-2.2,16.6-4,25.1-2.5,5,.8,9.8,3,14.8,3.7,1.9.3,3.8.3,5.7.2.8-1.1,1.5-2.2,2.2-3.4-5.6,1.1-11.2,1.5-16.8.2-5.2-1.2-10-3.2-15.4-3.5-4.2-.2-8.4.3-12.5,1.1-5.4,1.1-10.7,2.8-16.2,3.7-6.8,1.1-13.5.9-20.2-1-2.4-.7-4.8-1.6-7.3-2.2-2.9-.7-5.8-1-8.7-.9-4.4.2-8.7,1.3-13,2.4-4.1,1.1-8.4,1.9-12.7,2-2.3,0-4.5-.1-6.7-.5v-.9c.4,0,.8.1,1.1.2,3.3.5,6.7.4,10,0,4.9-.7,9.6-2.3,14.4-3.3,3.5-.7,7-1,10.6-.8,5.3.4,10.2,2.5,15.3,3.7,7.9,1.9,16,.7,23.8-1.3,8.4-2.1,16.9-4.2,25.6-2.9,5.1.8,9.9,3,15,3.7,3.2.5,6.5.3,9.8-.1,1.5-.2,3.1-.5,4.6-.9.5-.9,1-1.9,1.5-2.9v-.2c.4-.7.8-1.3,1.1-2-2.6.5-5.2,1.2-7.7,1.9-6.2,1.8-12.6,2.6-19,1.1-4.8-1.2-9.3-3.2-14.3-3.5-9.3-.5-17.8,3.4-26.7,5-6.3,1.1-12.5.8-18.5-1.1-2.3-.7-4.5-1.6-6.8-2.2-2.7-.7-5.4-.9-8.1-.8-4.2.3-8.2,1.5-12.2,2.6-3.8,1.1-7.6,1.9-11.6,1.9-2.6,0-5.2-.3-7.8-.9v-.6c.8.2,1.6.4,2.4.5,3.1.6,6.1.5,9.2,0,4.5-.7,8.7-2.3,13-3.2,3.3-.7,6.7-1.2,10-1,5.1.3,9.5,2.3,14.4,3.6,7.1,2,14.4.9,21.5-1,7.9-2.1,15.9-4.5,24.2-3.3,4.8.7,9.1,2.9,13.9,3.7,2.9.5,5.9.4,8.8,0,4.7-.7,9.1-2.4,13.8-3.3.6-.1,1.2-.2,1.8-.3.3-.7.6-1.4.9-2.2-2.6.5-5.3,1.2-7.9,2-6.3,1.7-12.8,2.6-19.2.9-4.9-1.3-9.4-3.3-14.5-3.5-9.4-.4-18.1,3.6-27.3,5.1-6.3,1-12.5.6-18.6-1.3-2.3-.7-4.5-1.6-6.8-2.1-2.8-.7-5.6-.9-8.5-.7-4.3.3-8.4,1.6-12.6,2.8-3.7,1-7.6,1.7-11.5,1.8-2.3,0-4.6-.2-6.8-.7v-.6c.5.1,1,.2,1.5.3,3,.6,6.1.6,9.1.2,4.5-.6,8.7-2.2,13.2-3.2,3.5-.8,7-1.3,10.6-1.1,5.2.2,9.7,2.3,14.6,3.6,7.2,2,14.5,1.1,21.7-.8,4.8-1.3,9.6-2.8,14.6-3.4,3.4-.4,6.8-.5,10.1,0,4.8.7,9.3,2.9,14,3.7,2.9.5,5.9.5,8.8,0,4.8-.7,9.2-2.4,13.9-3.3.6-.1,1.2-.2,1.8-.3.2-.6.5-1.3.7-1.9-2.2.5-4.5,1.1-6.7,1.7-6.3,1.7-12.9,2.4-19.3.8-4.9-1.2-9.5-3.3-14.6-3.5-9.6-.4-18.5,3.7-27.8,5.1-6.3.9-12.6.6-18.7-1.3-2.4-.8-4.7-1.6-7.1-2.2-2.8-.7-5.6-.9-8.5-.7-4.6.4-8.8,1.8-13.2,2.9-3.6.9-7.3,1.6-11.1,1.6-2.6,0-5.1-.3-7.6-.9v-.4c.6.2,1.2.3,1.8.4,3,.6,6,.7,9,.3,4.6-.6,8.9-2.1,13.4-3.2,3.5-.8,7.1-1.3,10.7-1.2,5.3.2,9.9,2,14.9,3.5,7.2,2.1,14.5,1.4,21.7-.4,5-1.3,10-2.8,15.2-3.5,3.3-.4,6.7-.5,10.1-.1,4.9.6,9.4,2.7,14.3,3.7,3,.6,6,.6,9,.2,4.8-.6,9.2-2.3,13.9-3.3.3,0,.6-.1.9-.2.2-.5.3-1,.5-1.6-1.4.3-2.7.7-4.1,1.1-6.4,1.7-13,2.4-19.5.8-2.3-.6-4.6-1.4-6.9-2.1-2.7-.8-5.4-1.3-8.2-1.4-9.8-.3-18.8,3.9-28.4,5.2-6.4.9-12.6.4-18.7-1.6-2.4-.8-4.7-1.6-7.1-2.2-2.9-.7-5.9-.9-8.8-.6-4.7.4-9,1.9-13.5,3-3.6.9-7.2,1.5-10.9,1.5-2.8,0-5.5-.4-8.2-1.1-.3,0-.5-.1-.8-.2v-.5c1.1.3,2.2.6,3.3.9,2.9.6,5.8.7,8.7.4,4.6-.5,9-2,13.5-3.1,3.6-.9,7.3-1.4,11-1.4,2.8,0,5.6.5,8.2,1.2,2.4.7,4.8,1.6,7.2,2.3,7.2,2.1,14.4,1.5,21.6-.2,5.1-1.2,10.1-2.9,15.4-3.6,3.5-.5,7.1-.6,10.6-.2,5,.6,9.5,2.8,14.4,3.8,3,.6,6,.6,9,.3,4.2-.5,8.3-1.9,12.4-2.9,0-.3.2-.7.3-1-.4,0-.7.2-1.1.3-6.5,1.7-13.1,2.3-19.6.5-2.3-.6-4.6-1.5-6.9-2.2-2.8-.8-5.6-1.2-8.5-1.3-9.9-.1-19.1,4.1-28.8,5.3-6.5.8-12.7.2-18.8-1.9-2.4-.8-4.8-1.7-7.3-2.2-3-.6-6.1-.8-9.2-.4-4.7.5-9.1,2-13.7,3.1-3.6.9-7.3,1.4-11.1,1.4-3.7,0-7.1-1-10.6-2v-.7c1.8.5,3.5,1,5.3,1.4,2.9.6,5.9.7,8.9.5,4.5-.4,8.8-1.8,13.2-3,3.8-1,7.7-1.6,11.6-1.5,5.5,0,10.3,2,15.5,3.6,7.3,2.2,14.6,1.6,21.9,0,5.3-1.2,10.3-2.9,15.7-3.6,3.6-.5,7.2-.7,10.8-.3,5.1.6,9.7,2.8,14.6,3.8,3,.6,6,.6,9.1.3,3.1-.4,6-1.2,9-1.9,0-.2.1-.5.2-.7-5.4,1-10.8,1.1-16.2-.4-2.4-.6-4.7-1.5-7.1-2.2-2.9-.8-5.8-1.3-8.8-1.3-10.2,0-19.7,4.2-29.7,5.4-6.6.7-12.8,0-19.1-2-2.5-.8-4.9-1.7-7.5-2.2-3.2-.7-6.4-.7-9.6-.4-4.9.6-9.4,2.2-14.2,3.2-3.6.8-7.2,1.3-10.9,1.2-4.4-.1-8.4-1.5-12.6-2.6v-.6c0,0,0,0,.1,0,2.4.6,4.8,1.4,7.2,2,2.8.6,5.7.8,8.6.6,4.7-.4,9.2-1.8,13.7-2.9,3.8-1,7.8-1.6,11.8-1.6,3,0,5.9.4,8.7,1.2,2.5.7,5,1.6,7.5,2.4,7.4,2.2,14.8,1.8,22.2.2,5.4-1.2,10.6-2.9,16.1-3.7,3.7-.5,7.5-.8,11.3-.4,5.2.6,9.9,2.8,15,3.8,3.1.7,6.2.7,9.3.4,1.5-.2,2.9-.4,4.3-.7.2-1,.4-2,.6-3-.3,0-.6.1-.9.2-6.7,1.5-13.4,2-20,0-2.4-.7-4.7-1.6-7.1-2.2-3-.8-6.1-1.2-9.2-1.2-10.5,0-20.2,4.4-30.6,5.4-3.7.4-7.3.4-11-.2-2.8-.4-5.6-1.3-8.3-2.1-2.5-.8-5-1.7-7.7-2.1-3.4-.6-6.8-.6-10.2-.2-4.9.6-9.5,2.2-14.3,3.2-3.7.8-7.5,1.3-11.3,1.1-2-.1-3.9-.4-5.8-.9v-.9c.3,0,.6.1.9.2,3,.6,6,.8,9,.6,4.6-.3,9.1-1.6,13.5-2.8,4.1-1,8.3-1.8,12.6-1.8,5.8,0,11,2,16.5,3.6,7.4,2.2,14.8,1.9,22.3.4,5.6-1.1,11.1-2.9,16.8-3.8,3.9-.6,7.8-.9,11.8-.4,5.3.6,10.1,2.8,15.3,3.9,3.1.6,6.2.7,9.3.4,2.9-.3,5.8-.9,8.6-1.7,0-.6.2-1.2.2-1.9-.5.1-.9.2-1.4.3-6.7,1.5-13.4,2-20,0-2.4-.7-4.8-1.6-7.2-2.2-2.9-.8-5.9-1.2-8.9-1.2-10.6,0-20.4,4.4-30.9,5.5-3.7.4-7.4.4-11-.2-2.9-.4-5.6-1.2-8.4-2.1-2.6-.8-5.2-1.7-7.9-2.2-3.4-.6-6.8-.6-10.3-.1-4.9.6-9.6,2.3-14.4,3.3-3.6.8-7.4,1.2-11.1,1-1.7,0-3.4-.4-5.1-.8v-.6c2.9.7,5.8.9,8.7.7,4.6-.3,9-1.4,13.4-2.6,4.2-1.1,8.5-1.9,12.8-2,3.1,0,6.2.3,9.2,1.1,2.6.7,5.1,1.6,7.6,2.4,2.9.9,5.9,1.6,9,1.8,4.5.3,9-.2,13.4-1.1,5.7-1.1,11.1-2.9,16.8-3.8,3.9-.6,7.9-.9,11.8-.5,5.4.5,10.2,2.7,15.4,3.9,3,.7,6.1.8,9.2.5,3.3-.3,6.4-1,9.5-1.8,0-.8.1-1.6.2-2.5-1.3.3-2.7.7-4.1,1-6.7,1.5-13.4,1.9-20,0-2.4-.7-4.8-1.6-7.3-2.3-3.1-.8-6.2-1.1-9.4-1.1-10.5.3-20.4,4.6-30.8,5.5-3.7.3-7.4.3-11.1-.4-2.8-.5-5.6-1.3-8.3-2.2-2.6-.9-5.2-1.7-7.9-2.2-3.5-.6-7.1-.5-10.6,0-4.9.7-9.5,2.3-14.3,3.3-3.6.7-7.2,1.1-10.9.9-.8,0-1.5-.1-2.3-.2v-.6c1.9.3,3.8.4,5.8.3,9-.4,17.3-4.4,26.3-4.6,3.1,0,6.2.3,9.2,1,2.6.6,5.1,1.6,7.7,2.4,2.9.9,5.9,1.6,8.9,1.8,4.4.3,8.8-.1,13.2-.9,5.8-1.1,11.4-3,17.3-3.9,4-.6,8-1,12-.6,2.8.2,5.6.9,8.3,1.7,2.4.8,4.8,1.6,7.2,2.2,3,.7,6.1.8,9.2.6,4.1-.3,7.9-1.4,11.8-2.4,0-1,0-2.1,0-3.1-3,.7-6,1.5-9.1,2.1-6.6,1.4-13.2,1.7-19.7-.2-2.4-.7-4.8-1.6-7.2-2.3-3.1-.8-6.3-1.2-9.5-1.1-10.7.3-20.6,4.8-31.2,5.6-3.6.3-7.3.2-10.9-.4-2.8-.5-5.6-1.3-8.3-2.2-2.6-.9-5.3-1.8-8-2.2-3.6-.6-7.2-.5-10.8,0-5,.8-9.8,2.5-14.7,3.4-2.5.5-5,.7-7.5.8v-.3s0,0,0,0c9-.3,17.3-4.4,26.3-4.6,3.2-.1,6.3.2,9.4.9.2,0,.3,0,.5.1-1-.3-2-.6-3.1-1-2.6-.9-5.3-1.8-8.1-2.2-3.6-.6-7.4-.4-11,.2-4.7.8-9.3,2.4-14,3.3v-.6c6.1-1.3,12-3.3,18.2-3.6,3.2-.2,6.5,0,9.6.8,2.7.6,5.3,1.5,7.9,2.4,2.9.9,5.8,1.7,8.9,2.1,4.3.5,8.7,0,13-.6,5.9-1,11.6-2.9,17.4-4,4.1-.7,8.2-1.1,12.3-.9,2.9.2,5.8.7,8.5,1.6,2.5.7,4.9,1.7,7.3,2.3,3,.8,6,1,9.1.8,5.1-.4,9.8-1.9,14.8-3,3.1-.7,6.3-1.2,9.5-1.3,0-.7-.1-1.4-.2-2.2-1.6-.1-3.3-.1-4.9,0-5.8.3-11.2,2.1-16.8,3.3-6.6,1.4-13.1,1.5-19.6-.4-2.4-.7-4.8-1.7-7.2-2.3-3.2-.8-6.5-1.1-9.8-1-10.7.5-20.7,4.9-31.4,5.6-3.7.2-7.4,0-11.1-.6-2.8-.5-5.5-1.4-8.2-2.3-2.7-.9-5.3-1.8-8.1-2.2-3.7-.6-7.6-.3-11.3.3-2.6.4-5.2,1.1-7.8,1.8v-.6c4.1-1,8.2-2,12.5-2.2,3.2-.2,6.5,0,9.6.8,2.7.6,5.4,1.6,8,2.4,2.9.9,5.8,1.7,8.7,2.1,4.2.5,8.5.2,12.7-.5,6.1-1,11.9-3,17.9-4,4.1-.7,8.2-1.1,12.3-.9,2.9.2,5.7.7,8.5,1.6,2.4.7,4.8,1.7,7.3,2.3,2.9.8,5.9,1,8.9.8,5-.3,9.8-1.8,14.7-2.9,4.9-1.1,9.8-1.7,14.8-1.4,0-.6-.1-1.2-.2-1.7-2.6-.3-5.1-.4-7.7-.2-5.8.4-11.3,2.2-16.9,3.4-6.5,1.3-12.9,1.3-19.3-.7-2.5-.8-4.9-1.7-7.4-2.3-3.2-.8-6.5-1-9.8-.8-10.8.6-21,5.1-31.8,5.7-3.6.2-7.2,0-10.7-.8-2.8-.6-5.6-1.5-8.4-2.5-2.7-.9-5.4-1.7-8.2-2.1-3.8-.5-7.6-.2-11.3.5-1.4.3-2.8.6-4.2.9v-.6c3-.7,5.9-1.3,8.9-1.5,3.4-.2,6.7,0,10,.8,2.7.6,5.3,1.5,7.9,2.4,2.8.9,5.7,1.8,8.7,2.1,4.3.5,8.6.3,12.9-.4,5.9-.9,11.6-2.8,17.5-4,4.3-.8,8.6-1.3,13-1.1,2.9.2,5.8.7,8.6,1.6,2.4.7,4.8,1.7,7.3,2.3,2.9.8,5.9,1,8.9.9,5.1-.3,10-1.8,15-2.9,4.8-1.1,9.8-1.7,14.7-1.5.8,0,1.6.1,2.4.2,0-.6-.2-1.3-.3-1.9-2.6-.3-5.2-.4-7.8-.2-5.8.4-11.3,2.3-17,3.4-6.5,1.3-13,1.3-19.3-.7-2.4-.8-4.8-1.7-7.2-2.3-3.3-.9-6.7-1.1-10.1-.9-10.9.7-21,5.2-31.9,5.7-3.6.2-7.2,0-10.7-.8-2.8-.6-5.5-1.5-8.3-2.4-2.8-.9-5.6-1.8-8.5-2.2-3.9-.5-7.8-.2-11.7.6-.9.2-1.9.4-2.8.6v-.4c2.5-.6,4.9-1,7.5-1.2,3.3-.2,6.6,0,9.9.6,2.8.5,5.5,1.5,8.1,2.4,2.8,1,5.7,1.8,8.6,2.3,4.3.7,8.7.4,13-.3,6-.9,11.8-2.8,17.7-4,4.2-.8,8.5-1.3,12.8-1.1,3,.1,6,.6,8.9,1.4,2.4.7,4.7,1.6,7.1,2.3,2.9.8,5.9,1.2,8.9,1.1,5-.2,9.7-1.6,14.5-2.8,5-1.2,10-1.9,15.1-1.6,1,0,2,.1,3,.2-.1-.7-.2-1.3-.4-2-2.3-.2-4.6-.2-6.8,0-5.8.5-11.3,2.3-17,3.4-6.6,1.3-13,1.2-19.3-.9-2.5-.8-4.9-1.7-7.4-2.3-3.4-.8-6.8-.9-10.3-.7-10.9.8-21.1,5.3-32.1,5.7-3.6.1-7.2-.2-10.7-1-2.8-.6-5.5-1.6-8.1-2.5-2.8-.9-5.6-1.7-8.6-2.1-4-.4-8.1,0-12,.8-.8.2-1.5.3-2.3.5l-5.3,78.2c.7.1,1.5.2,2.2.3Z"/>
      <path class="st2" d="M156.7,125.4c-13.8,0-27.3,7.9-46.3,2.4-18.9-5.5-31.6,0-31.6,0v.9c3-.8,6.2-1.5,9.4-1.8,3.5-.3,7-.2,10.5.4,2.8.5,5.5,1.4,8.3,2.4,2.9,1,5.8,1.9,8.8,2.5,4.2.7,8.4.6,12.6,0,6.1-.8,11.9-2.7,17.9-4,4.4-.9,9-1.5,13.5-1.4,3.1,0,6.1.5,9,1.4,2.4.7,4.8,1.7,7.2,2.4,2.8.8,5.7,1.3,8.7,1.2,5-.1,9.8-1.5,14.7-2.7,2.3-.6,4.7-1,7.1-1.3h2.6c-5.7.7-11.1,2.5-16.6,3.6-6.5,1.2-12.9,1.1-19.2-1-2.5-.8-4.9-1.8-7.4-2.4-3.4-.8-7-.9-10.5-.6-5.9.5-11.6,2.1-17.4,3.5-4.9,1.2-9.9,2.1-14.9,2.2-3.5,0-7.1-.2-10.5-1-2.8-.7-5.6-1.6-8.3-2.6-2.8-1-5.7-1.8-8.7-2.1-4.1-.4-8.3,0-12.4.9-1.5.3-2.9.7-4.4,1.1v1.4c2.7-.7,5.5-1.3,8.3-1.5,3.5-.3,7-.2,10.4.5,2.8.6,5.5,1.5,8.2,2.4,2.9,1,5.8,1.9,8.8,2.3,4.2.6,8.4.5,12.6-.1,6.1-.8,11.9-2.8,17.9-4,4.4-.9,8.9-1.5,13.4-1.3,3,.1,6,.6,8.9,1.5,2.4.7,4.8,1.7,7.2,2.4,2.9.8,5.9,1.2,8.9,1,5.1-.2,9.8-1.6,14.7-2.8,4.7-1.1,9.6-1.8,14.5-1.7-.3-1.4-.7-2.8-1.1-4.3-3.1.2-6.3.9-9.6,2.3-17.7,7.6-31.4-2.1-45.2-2.2Z"/>
      <path class="st2" d="M207.7,130.2c-5.8.5-11.3,2.4-17.1,3.5-6.6,1.3-12.9,1.1-19.3-1-2.4-.8-4.8-1.7-7.2-2.3-3.4-.8-6.8-.9-10.3-.7-11,.8-21.3,5.4-32.4,5.7-3.6,0-7.2-.2-10.7-1-2.8-.7-5.6-1.7-8.3-2.6-2.8-.9-5.7-1.7-8.6-2.1-4-.4-8,0-11.9.8-1.2.2-2.3.5-3.4.8v1.4c2.4-.6,4.9-1,7.4-1.3,3.4-.3,6.9-.1,10.3.6,2.7.6,5.4,1.5,8,2.4,2.9,1,5.8,1.9,8.8,2.3,4.2.6,8.5.4,12.7-.2,6.1-.9,11.9-2.8,17.9-4,4.3-.9,8.8-1.4,13.2-1.2,3,.1,5.9.7,8.8,1.5,2.4.7,4.8,1.7,7.3,2.4,7.9,2.2,15.6.1,23.4-1.8,5-1.2,10.2-1.9,15.4-1.7.4,0,.9,0,1.3.1-.1-.6-.2-1.2-.4-1.8-1.6,0-3.3,0-4.9.1Z"/>
    </g>
  </g>
  <g id="Roads">
    <path class="st0" d="M204.1,106.1c-.6-1.3-1.2-2.6-1.8-3.9L8.5,149.4c-.4,18.4,7.5,36.6,22.9,47.6,15.3,10.9,34.6,14,53.1,16.1l128-83.5c-1.8-8-4.8-15.9-8.4-23.5Z"/>
    <path class="st6" d="M204.1,106.1c-1.1-2.5-2.3-4.9-3.4-7.4L8.6,147c-1.1,19.2,6.7,38.5,22.8,49.9,5.6,4,11.7,6.9,18.1,9.1l158.6-90.7c-1.2-3.1-2.5-6.2-3.9-9.2Z"/>
    <path class="st1" d="M9.1,142s0,0,0,0c-1.6,11.1,0,22.5,4.3,32.6l17.6-6.4,8.8,2.5-23.8,9.2s0,0,0,0c1.4,2.4,3,4.8,4.7,7,0,0,.1.1.2.2.5.6,1,1.3,1.6,1.9,0,0,.2.2.2.3,1.2,1.3,2.5,2.6,3.8,3.8.2.2.3.3.5.5.5.4,1,.9,1.5,1.3.2.2.4.3.6.5.7.6,1.4,1.1,2.1,1.6.9.7,1.9,1.3,2.9,1.9.2.1.4.3.6.4.9.6,1.9,1.1,2.9,1.7.2,0,.3.2.5.3.9.5,1.8.9,2.7,1.4.2,0,.4.2.6.3,1,.5,2,.9,3,1.3.2.1.5.2.7.3.9.4,1.9.8,2.9,1.1.1,0,.2,0,.3.1,1,.4,2.1.7,3.1,1.1.3,0,.6.2.9.3,1,.3,2,.6,3.1.9.2,0,.5.1.7.2.9.2,1.7.5,2.6.7.3,0,.6.2.9.2,1,.2,2,.5,3,.7.3,0,.7.1,1.1.2.8.2,1.7.3,2.5.5.3,0,.6.1.8.2l143.9-86.9c-.4-1.5-.9-3-1.4-4.4,0,0,0,0,0,0-.5-1.4-1-2.9-1.6-4.3,0,0,0,0,0-.1-.6-1.4-1.1-2.8-1.7-4.2,0,0,0-.1,0-.2-.6-1.4-1.3-2.8-1.9-4.3-.9-1.9-1.7-3.8-2.6-5.7,0,0,0,0,0,0-.9-1.9-1.8-3.7-2.8-5.6L9.1,142ZM56.1,164.3l-8.2-2.3,26-9.5,7.3,2.1-25.1,9.7ZM97.3,148.3l-6.7-1.9,19.3-7,6,1.7-18.6,7.2ZM132.2,134.8l-5.4-1.5,12.6-4.6,5,1.4-12.1,4.7ZM160.5,123.9l-4.4-1.2,10.1-3.7,4,1.1-9.7,3.8ZM186.4,113.8l-3.4-1,6.7-2.4,3.2.9-6.5,2.5Z"/>
  </g>
  <g id="highway_shield_shape" class="st8">
    <path class="st3" d="M-696.1-56c-1.1,90.8,0,214.1-.4,309.5,0,7.5,0,14.1,0,21.3,0,4.4-.1,4,4.4,4.1,4.5,0,8.6,0,13.3,0,103.5-.3,231.2.6,330.7-.3.5-.5.6-1.1.6-1.9,0-5.2,0-25,0-52.6,0-80.3,0-173.3,0-254.7,0-7.6,0-14.3,0-21.6,0-4.4.2-4.1-4.4-4.2-30.9,0-60.4,0-92.3,0-77.3.4-180.4-.8-251.9.5h0ZM-425.4,172.8c-11.3,22.8-34.2,32.5-58,37.1-19.9,4-40.3,5.7-60.5,3.7-20-2.1-41.6-4.8-58.3-16.7-19.5-13.8-26.8-39.2-20.9-61.9,2.3-9.5,6.2-18.5,10.3-27.3,15.7-33.5,36.9-65.2,65.3-89.3,21-16.8,42.6-10.5,60.6,7.1,24.3,22.7,44.1,50.2,57.6,80.6,9.9,21.2,15.4,44.7,4.1,66.6v.2Z"/>
    <path class="st3" d="M-62.5-56c-1.1,90.8,0,214.1-.4,309.5,0,7.5,0,14.1,0,21.3,0,4.4-.1,4,4.4,4.1,4.5,0,8.6,0,13.3,0,103.5-.3,231.2.6,330.7-.3.5-.5.6-1.1.6-1.9,0-5.2,0-25,0-52.6,0-80.3,0-173.3,0-254.7,0-7.6,0-14.3,0-21.6,0-4.4.2-4.1-4.4-4.2-30.9,0-60.4,0-92.3,0-77.3.4-180.4-.8-251.9.5h0ZM208.2,172.8c-11.3,22.8-34.2,32.5-58,37.1-19.9,4-40.3,5.7-60.5,3.7-20-2.1-41.6-4.8-58.3-16.7-19.5-13.8-26.8-39.2-20.9-61.9,2.3-9.5,6.2-18.5,10.3-27.3,15.7-33.5,36.9-65.2,65.3-89.3,21-16.8,42.6-10.5,60.6,7.1,24.3,22.7,44.1,50.2,57.6,80.6,9.9,21.2,15.4,44.7,4.1,66.6v.2Z"/>
  </g>
  <g id="_x38_3">
    <path id="text1964" class="st4" d="M107.2,150.7c0,4.5-.9,8.8-2.7,12.8-1.8,4-4.3,7.5-7.3,10.6-3.1,3-6.6,5.4-10.6,7.2-4,1.8-8.3,2.6-12.8,2.6s-8.8-.9-12.8-2.6c-4-1.8-7.6-4.2-10.6-7.2-3.1-3-5.5-6.6-7.3-10.6-1.8-4-2.7-8.3-2.7-12.8,0-4.7,1-8.9,2.9-12.7,2-3.8,4.7-7.1,8.4-10.1-4.8-5.1-7.2-11.1-7.2-17.9,0-3.8.8-7.4,2.3-10.8,1.6-3.4,3.7-6.4,6.4-9,2.7-2.6,5.8-4.6,9.3-6.1,3.5-1.5,7.3-2.2,11.3-2.2,3.9,0,7.7.7,11.3,2.2,3.6,1.5,6.8,3.5,9.5,6.1,2.7,2.6,4.8,5.6,6.5,9,1.6,3.4,2.4,7,2.4,10.8,0,3.4-.7,6.6-2,9.6-1.3,3-3.2,5.7-5.7,8.3,3.8,2.9,6.7,6.3,8.6,10.2,1.9,3.9,2.9,8,2.9,12.6h0ZM87.6,109.6c0-3.2-1.3-6-4-8.3-2.7-2.3-5.9-3.4-9.8-3.4-3.8,0-7.1,1.1-9.8,3.4-2.7,2.3-4,5.1-4,8.3,0,2.9,1.3,5.5,4,7.6,2.7,2.1,5.9,3.2,9.8,3.2,3.8,0,7.1-1.1,9.8-3.2,2.7-2.1,4-4.6,4-7.6h0ZM91.7,151c0-2.1-.5-4-1.5-5.8-1-1.8-2.3-3.4-3.9-4.7-1.6-1.3-3.5-2.4-5.7-3.2-2.2-.8-4.5-1.2-6.9-1.2-2.4,0-4.7.4-6.8,1.2-2.1.8-4,1.8-5.6,3.2-1.6,1.3-2.9,2.9-3.8,4.7-.9,1.8-1.4,3.7-1.4,5.8,0,2.4.5,4.6,1.4,6.6.9,2.1,2.2,3.9,3.8,5.4,1.6,1.6,3.5,2.8,5.6,3.7,2.1.9,4.4,1.3,6.8,1.3s4.8-.4,7-1.3c2.2-.9,4.1-2.1,5.7-3.7,1.6-1.6,2.9-3.4,3.8-5.4.9-2.1,1.4-4.3,1.4-6.6h0ZM180,149.7c0,5-.8,9.6-2.5,13.8-1.7,4.2-4,7.8-7,10.8-3,3-6.6,5.3-10.7,7-4.2,1.7-8.7,2.6-13.7,2.6s-7.8-.6-11.2-1.9c-3.5-1.3-6.7-3-9.5-5.3-2.9-2.3-5.4-5-7.4-8.2-2.1-3.2-3.6-6.9-4.6-10.9l15.3-4.4c1.2,4.8,3.3,8.5,6.5,11,3.1,2.5,7,3.8,11.7,3.8s5-.4,7.2-1.3c2.2-.9,4-2.1,5.5-3.6,1.5-1.5,2.7-3.3,3.6-5.4.9-2.1,1.3-4.4,1.3-7,0-2.5-.5-4.9-1.5-7.2-1-2.3-2.3-4-4.1-5.3-.6-.4-1.1-.7-1.5-1-.4-.2-1-.4-1.6-.5-.6,0-1.5-.2-2.5-.3-1,0-2.5-.2-4.3-.3h-1.8v-15.9.4h3.8c3.1,0,5.5-.8,7.2-2.5,1.7-1.7,2.5-4.1,2.5-7.2,0-3.8-1.3-7-4-9.5-2.7-2.5-6-3.7-10.1-3.7-6.6,0-11.5,3.2-14.8,9.7l-14.5-5.4c2.5-6.3,6.4-11.2,11.5-14.8,5.1-3.6,10.9-5.4,17.4-5.4,4.1,0,8,.8,11.7,2.3,3.7,1.6,6.9,3.7,9.6,6.5,2.7,2.7,4.9,5.9,6.5,9.6,1.6,3.7,2.3,7.6,2.3,11.7,0,2.9-.4,5.6-1.2,7.9-.8,2.3-2.3,5.1-4.4,8.2,1.9,1.7,3.4,3.3,4.6,4.8,1.2,1.5,2.1,3.1,2.9,4.8.7,1.7,1.2,3.4,1.5,5.4.3,1.9.4,4.1.4,6.5h0Z"/>
  </g>
  <g id="text_2">
    <g>
      <path class="st3" d="M247.3,92.8V27h11.2v31.5l25.3-31.5h12.6l-25.8,30.9,27.7,34.8h-13.3l-26.6-33.7v33.7h-11.2Z"/>
      <path class="st3" d="M317.9,93.6c-2.7,0-5.2-.5-7.5-1.5s-4.1-2.6-5.5-4.6-2.1-4.6-2.1-7.7,1.3-7.6,4-9.8,6.4-3.7,11.2-4.5,10.4-1.3,16.9-1.4v-2.9c0-3.5-.9-6-2.6-7.3s-4-2-6.7-2-5.4.7-7.3,2.1-2.9,3.7-2.9,6.9h-10c0-4,.9-7.2,2.6-9.5s4.1-4.1,7.1-5.2,6.6-1.6,10.6-1.6,5.2.2,7.6.7,4.5,1.3,6.3,2.6,3.2,2.9,4.2,5,1.5,4.9,1.5,8.2v31.9h-9.9l-.4-6.7c-2.1,2.3-4.5,4.2-7.3,5.5-2.8,1.3-6,2-9.6,2ZM321.1,86.1c2.9,0,5.5-.7,7.8-2.1s4.3-3.1,5.8-5.1v-8.6c-7.7,0-13.2.7-16.5,2.1s-4.9,3.7-4.9,6.8.7,3.9,2.1,5.1,3.3,1.8,5.7,1.8Z"/>
      <path class="st3" d="M359.4,92.8v-47.6h10.2l.2,7.2c1.5-2,3.6-3.8,6.3-5.4s6.1-2.5,10.1-2.5,8.8,1.5,11.2,4.6,3.7,7.3,3.7,12.8v30.9h-10.6v-29.4c0-2-.2-3.8-.7-5.3s-1.3-2.8-2.4-3.6-2.8-1.3-4.8-1.3c-2.9,0-5.4.7-7.5,2.1s-3.8,3-5.1,4.8v32.8h-10.6ZM421.7,92.8v-29.4c0-2-.2-3.8-.7-5.3s-1.3-2.8-2.4-3.6-2.8-1.3-4.8-1.3c-2.9,0-5.4.7-7.5,2s-3.8,2.9-5.3,4.7l-1.4-7c2-2.1,4.4-4,7.3-5.7s6.4-2.6,10.5-2.6,8.7,1.5,11.2,4.6,3.7,7.3,3.7,12.8v30.9h-10.5Z"/>
      <path class="st3" d="M467.4,93.6c-5.2,0-9.5-1-13-3.1s-6.1-5-7.8-8.7-2.6-8-2.6-13,.8-9.3,2.5-12.9,4.2-6.5,7.5-8.5,7.5-3.1,12.5-3.1,12.1,2,16,6.1,5.9,9.8,5.9,17.3,0,1,0,1.7-.1,1.1-.2,1.4h-33.6c0,2.7.5,5.2,1.3,7.4s2.2,4.1,4.1,5.4,4.3,2.1,7.4,2.1,5.8-.7,7.7-2.2,2.8-3.6,2.9-6.4h10.4c-.2,3.5-1.1,6.5-2.9,9s-4.2,4.3-7.2,5.6-6.7,1.9-10.9,1.9ZM454.6,63.8h23.3c0-3.8-1.2-6.8-3.2-8.8s-4.8-3-8.2-3-6.3,1-8.4,3-3.2,4.9-3.5,8.7Z"/>
      <path class="st3" d="M500.7,92.8V27h10.4v25.3c1.6-2,3.7-3.8,6.3-5.4s6.1-2.5,10.3-2.5,8.9,1.5,11.4,4.5,3.8,7.3,3.8,13v30.9h-10.6v-29.4c0-2-.2-3.8-.7-5.3s-1.3-2.8-2.4-3.6-2.7-1.3-4.8-1.3c-3.1,0-5.7.7-7.8,2.1s-3.9,3-5.3,4.8v32.8h-10.6Z"/>
      <path class="st3" d="M569.8,93.6c-2.7,0-5.2-.5-7.5-1.5s-4.1-2.6-5.5-4.6-2.1-4.6-2.1-7.7,1.3-7.6,4-9.8,6.4-3.7,11.2-4.5,10.4-1.3,16.9-1.4v-2.9c0-3.5-.9-6-2.6-7.3s-4-2-6.7-2-5.4.7-7.3,2.1-2.9,3.7-2.9,6.9h-10c0-4,.9-7.2,2.6-9.5s4.1-4.1,7.1-5.2,6.6-1.6,10.6-1.6,5.2.2,7.6.7,4.5,1.3,6.3,2.6,3.2,2.9,4.2,5,1.5,4.9,1.5,8.2v31.9h-9.9l-.4-6.7c-2.1,2.3-4.5,4.2-7.3,5.5-2.8,1.3-6,2-9.6,2ZM573,86.1c2.9,0,5.5-.7,7.8-2.1s4.3-3.1,5.8-5.1v-8.6c-7.7,0-13.2.7-16.5,2.1s-4.9,3.7-4.9,6.8.7,3.9,2.1,5.1,3.3,1.8,5.7,1.8Z"/>
      <path class="st3" d="M611.3,92.8v-47.6h10.2l.2,7.2c1.5-2,3.6-3.8,6.3-5.4s6.1-2.5,10.1-2.5,8.8,1.5,11.2,4.6,3.7,7.3,3.7,12.8v30.9h-10.6v-29.4c0-2-.2-3.8-.7-5.3s-1.3-2.8-2.4-3.6-2.8-1.3-4.8-1.3c-2.9,0-5.4.7-7.5,2.1s-3.8,3-5.1,4.8v32.8h-10.6ZM673.6,92.8v-29.4c0-2-.2-3.8-.7-5.3s-1.3-2.8-2.4-3.6c-1.2-.9-2.8-1.3-4.8-1.3-2.9,0-5.4.7-7.5,2s-3.8,2.9-5.3,4.7l-1.4-7c2-2.1,4.4-4,7.3-5.7s6.4-2.6,10.5-2.6,8.7,1.5,11.2,4.6,3.7,7.3,3.7,12.8v30.9h-10.5Z"/>
      <path class="st3" d="M719.3,93.6c-5.2,0-9.5-1-13-3.1s-6.1-5-7.8-8.7c-1.7-3.7-2.6-8-2.6-13s.8-9.3,2.5-12.9c1.7-3.7,4.2-6.5,7.5-8.5,3.3-2,7.5-3.1,12.5-3.1s12.1,2,16,6.1,5.9,9.8,5.9,17.3,0,1,0,1.7-.1,1.1-.2,1.4h-33.6c0,2.7.5,5.2,1.3,7.4.9,2.3,2.2,4.1,4.1,5.4,1.9,1.4,4.3,2.1,7.4,2.1s5.8-.7,7.7-2.2,2.8-3.6,2.9-6.4h10.4c-.2,3.5-1.1,6.5-2.9,9-1.7,2.5-4.2,4.3-7.2,5.6s-6.7,1.9-10.9,1.9ZM706.5,63.8h23.3c0-3.8-1.2-6.8-3.2-8.8-2-2-4.8-3-8.2-3s-6.3,1-8.4,3c-2.1,2-3.2,4.9-3.5,8.7Z"/>
      <path class="st3" d="M752.6,92.8V27h10.4v25.3c1.6-2,3.7-3.8,6.3-5.4,2.7-1.6,6.1-2.5,10.3-2.5s8.9,1.5,11.4,4.5c2.5,3,3.8,7.3,3.8,13v30.9h-10.6v-29.4c0-2-.2-3.8-.7-5.3-.5-1.5-1.3-2.8-2.4-3.6-1.1-.9-2.7-1.3-4.8-1.3-3.1,0-5.7.7-7.8,2.1-2.1,1.4-3.9,3-5.3,4.8v32.8h-10.6Z"/>
      <path class="st3" d="M821.7,93.6c-2.7,0-5.2-.5-7.5-1.5s-4.1-2.6-5.5-4.6c-1.4-2.1-2.1-4.6-2.1-7.7s1.3-7.6,4-9.8c2.7-2.2,6.4-3.7,11.2-4.5,4.8-.8,10.4-1.3,16.9-1.4v-2.9c0-3.5-.9-6-2.6-7.3s-4-2-6.7-2-5.4.7-7.3,2.1-2.9,3.7-2.9,6.9h-10c0-4,.9-7.2,2.6-9.5s4.1-4.1,7.1-5.2c3-1.1,6.6-1.6,10.6-1.6s5.2.2,7.6.7c2.4.5,4.5,1.3,6.3,2.6s3.2,2.9,4.2,5,1.5,4.9,1.5,8.2v31.9h-9.9l-.4-6.7c-2.1,2.3-4.5,4.2-7.3,5.5-2.8,1.3-6,2-9.6,2ZM824.9,86.1c2.9,0,5.5-.7,7.8-2.1s4.3-3.1,5.8-5.1v-8.6c-7.7,0-13.2.7-16.5,2.1-3.3,1.4-4.9,3.7-4.9,6.8s.7,3.9,2.1,5.1c1.4,1.2,3.3,1.8,5.7,1.8Z"/>
      <path class="st3" d="M884.4,92.8V27h11.2v26.7h32.9v-26.7h11.2v65.7h-11.2v-29.2h-32.9v29.2h-11.2Z"/>
      <path class="st3" d="M960.7,37.5c-2,0-3.5-.5-4.6-1.6s-1.6-2.3-1.6-3.9.5-3,1.6-4,2.6-1.6,4.6-1.6,3.5.5,4.6,1.6c1.1,1,1.6,2.4,1.6,4s-.5,2.9-1.6,4c-1.1,1-2.6,1.6-4.6,1.6ZM955.4,92.8v-47.6h10.6v47.6h-10.6Z"/>
      <path class="st3" d="M998.4,111.2c-5.4,0-9.7-.6-12.9-1.8s-5.5-2.7-7-4.7c-1.4-1.9-2.1-4-2.1-6.2s1.2-5.2,3.7-7.3c2.5-2.1,6.3-3.6,11.6-4.4l1.8-3.7h6.2c7.9,0,13.6,1.1,17,3.2,3.5,2.1,5.2,5.4,5.2,9.8s-2,8-6,10.8c-4,2.8-9.9,4.2-17.6,4.2ZM991.6,90.9c-3.3-.4-5.9-1-7.8-2-1.9-1-3.3-2.1-4.2-3.3-.9-1.3-1.3-2.5-1.3-3.6,0-1.8.7-3.4,2.1-4.8,1.4-1.4,3.6-2.6,6.6-3.5l5.4,2.5c-1.7.4-3.1,1-4.2,1.7-1.1.7-1.6,1.5-1.6,2.4s.3,1.2,1,1.7c.7.5,1.8.8,3.4,1.1,1.6.3,3.8.4,6.6.4l-5.9,7.7ZM997.6,77.5c-4.1,0-7.6-.8-10.5-2.3s-5.1-3.5-6.5-6c-1.5-2.5-2.2-5.2-2.2-8.1s.7-5.8,2.2-8.3c1.5-2.5,3.7-4.5,6.6-6,2.9-1.5,6.5-2.2,10.7-2.2s7.9.7,10.7,2.2,5,3.5,6.4,6,2.1,5.2,2.1,8.3-.7,5.7-2.2,8.2c-1.4,2.5-3.6,4.5-6.5,6-2.9,1.5-6.5,2.2-10.8,2.2ZM998.2,104.1c4.9,0,8.4-.7,10.5-2,2-1.3,3.1-3,3.1-5s-.4-2.2-1-3.1c-.7-.9-1.9-1.5-3.7-2-1.7-.5-4.2-.7-7.3-.7h-7.9c-1.8.5-3.1,1.3-4.1,2.5-1,1.1-1.5,2.4-1.5,3.9s.9,3.1,2.8,4.5c1.9,1.3,4.9,2,9.2,2ZM997.6,70.8c2.8,0,5.1-.8,6.9-2.5,1.8-1.6,2.7-4.1,2.7-7.3s-.9-5.8-2.6-7.4c-1.7-1.6-4-2.4-6.7-2.4s-5.1.8-6.9,2.5-2.7,4.1-2.7,7.3.9,5.6,2.8,7.3c1.9,1.6,4,2.4,6.4,2.4ZM1010.6,50.9l-3.5-4c1.3-3.2,3.2-5.4,5.7-6.6,2.5-1.2,5.5-1.8,9.2-1.8v8.2c-2.4,0-4.6.2-6.6.7s-3.6,1.7-4.7,3.5Z"/>
      <path class="st3" d="M1030.5,92.8V27h10.4v25.3c1.6-2,3.7-3.8,6.3-5.4,2.7-1.6,6.1-2.5,10.3-2.5s8.9,1.5,11.4,4.5c2.5,3,3.8,7.3,3.8,13v30.9h-10.6v-29.4c0-2-.2-3.8-.7-5.3-.5-1.5-1.3-2.8-2.4-3.6-1.1-.9-2.7-1.3-4.8-1.3-3.1,0-5.7.7-7.8,2.1-2.1,1.4-3.9,3-5.3,4.8v32.8h-10.6Z"/>
      <path class="st3" d="M1094.6,92.8l-15.1-47.6h10.8l10.2,36,10.3-36h11.3l10.4,36,10.1-36h10.2l-15.1,47.6h-10.9l-10.6-36.5-10.6,36.5h-10.9Z"/>
      <path class="st3" d="M1172.5,93.6c-2.7,0-5.2-.5-7.5-1.5s-4.1-2.6-5.5-4.6c-1.4-2.1-2.1-4.6-2.1-7.7s1.3-7.6,4-9.8c2.7-2.2,6.4-3.7,11.2-4.5,4.8-.8,10.4-1.3,16.9-1.4v-2.9c0-3.5-.9-6-2.6-7.3s-4-2-6.7-2-5.4.7-7.3,2.1-2.9,3.7-2.9,6.9h-10c0-4,.9-7.2,2.6-9.5s4.1-4.1,7.1-5.2c3-1.1,6.6-1.6,10.6-1.6s5.2.2,7.6.7c2.4.5,4.5,1.3,6.3,2.6s3.2,2.9,4.2,5,1.5,4.9,1.5,8.2v31.9h-9.9l-.4-6.7c-2.1,2.3-4.5,4.2-7.3,5.5-2.8,1.3-6,2-9.6,2ZM1175.7,86.1c2.9,0,5.5-.7,7.8-2.1s4.3-3.1,5.8-5.1v-8.6c-7.7,0-13.2.7-16.5,2.1-3.3,1.4-4.9,3.7-4.9,6.8s.7,3.9,2.1,5.1c1.4,1.2,3.3,1.8,5.7,1.8Z"/>
      <path class="st3" d="M1211.8,110.2v-8.6h4.2c1.9,0,3.5-.4,4.7-1.2s2.3-2.2,3.1-4.1l1.4-3.5-18.8-47.6h11l13.4,37.1,12.2-37.1h10.7l-17.5,47.6-2,5.2c-1.2,3.1-2.5,5.6-3.9,7.3-1.4,1.8-3.2,3-5.3,3.8-2.1.7-4.7,1.1-7.9,1.1h-5.4Z"/>
      <path class="st3" d="M247.3,202.8v-65.7h25.9c4,0,7.6.6,10.8,1.8s5.8,3.1,7.7,5.7,2.9,6,2.9,10.3-1.1,7.7-3.4,10.6-5.7,4.9-10.2,6.1c2.6.4,4.8,1.3,6.4,2.5s3,2.9,4,5,1.9,4.7,2.8,7.8l4.3,15.9h-11.7l-3.4-13.9c-.7-2.8-1.4-5.1-2.3-7s-2.1-3.3-3.5-4.2-3.5-1.4-6-1.4h-13.1v26.5h-11.2ZM258.5,167h13c2.3,0,4.3-.4,6-1.2s3.1-2,4.1-3.5,1.5-3.4,1.5-5.6c0-3.3-1-5.8-3-7.6s-4.7-2.6-8.2-2.6h-13.5v20.6Z"/>
      <path class="st3" d="M329.2,203.6c-5.2,0-9.5-1-13-3.1s-6.1-5-7.8-8.7-2.6-8-2.6-13,.8-9.3,2.5-12.9,4.2-6.5,7.5-8.5,7.5-3.1,12.5-3.1,12.1,2,16,6.1,5.9,9.8,5.9,17.3,0,1,0,1.7-.1,1.1-.2,1.4h-33.6c0,2.7.5,5.2,1.3,7.4s2.2,4.1,4.1,5.4,4.3,2.1,7.4,2.1,5.8-.7,7.7-2.2,2.8-3.6,2.9-6.4h10.4c-.2,3.5-1.1,6.5-2.9,9s-4.2,4.3-7.2,5.6-6.7,1.9-10.9,1.9ZM316.5,173.8h23.3c0-3.8-1.2-6.8-3.2-8.8s-4.8-3-8.2-3-6.3,1-8.4,3-3.2,4.9-3.5,8.7Z"/>
      <path class="st3" d="M380.1,203.6c-2.7,0-5.2-.3-7.7-.8s-4.7-1.4-6.6-2.7-3.5-2.9-4.6-4.9-1.7-4.6-1.7-7.6h10c0,3.2,1,5.4,3.1,6.7s4.6,1.9,7.6,1.9,5-.5,6.7-1.5,2.5-2.6,2.5-5-.9-3.6-2.6-4.6-4.7-2-9-3c-3.5-.9-6.6-1.9-9.2-3s-4.6-2.6-6-4.5-2.1-4.3-2.1-7.2.5-4.2,1.5-5.9,2.4-3,4.2-4.1,3.8-1.9,6.1-2.4,4.7-.8,7.2-.8,4.8.3,7.1.8,4.3,1.4,6.1,2.6,3.2,2.8,4.2,4.7,1.6,4.3,1.6,7.2h-9.9c0-2.9-.9-4.9-2.7-6.1s-3.9-1.8-6.4-1.8-4.7.4-6.2,1.3-2.3,2.2-2.3,4.1.4,2,1.2,2.8,2.1,1.5,4,2.1,4.3,1.3,7.4,2c3.3.8,6.2,1.8,8.6,2.9s4.3,2.7,5.6,4.5,2,4.3,2,7.3-.5,4.9-1.6,6.8-2.5,3.4-4.3,4.6-3.9,2.1-6.3,2.6c-2.4.6-4.9.8-7.6.8Z"/>
      <path class="st3" d="M417.5,147.5c-2,0-3.5-.5-4.6-1.6s-1.6-2.3-1.6-3.9.5-3,1.6-4,2.6-1.6,4.6-1.6,3.5.5,4.6,1.6,1.6,2.4,1.6,4-.5,2.9-1.6,4-2.6,1.6-4.6,1.6ZM412.1,202.8v-47.6h10.6v47.6h-10.6Z"/>
      <path class="st3" d="M453.3,202.8c-4.4,0-7.7-.6-10.1-1.8s-4-3-4.9-5.3-1.3-5.3-1.3-8.9v-49.8h10.5v49.1c0,2.7.4,4.8,1.1,6.2s2.4,2.1,5.1,2.1h2.6v8.3h-3Z"/>
      <path class="st3" d="M470.6,147.5c-2,0-3.5-.5-4.6-1.6s-1.6-2.3-1.6-3.9.5-3,1.6-4,2.6-1.6,4.6-1.6,3.5.5,4.6,1.6,1.6,2.4,1.6,4-.5,2.9-1.6,4-2.6,1.6-4.6,1.6ZM465.3,202.8v-47.6h10.6v47.6h-10.6Z"/>
      <path class="st3" d="M511.5,203.6c-5.2,0-9.5-1-13-3.1s-6.1-5-7.8-8.7-2.6-8-2.6-13,.8-9.3,2.5-12.9,4.2-6.5,7.5-8.5,7.5-3.1,12.5-3.1,12.1,2,16,6.1,5.9,9.8,5.9,17.3,0,1,0,1.7-.1,1.1-.2,1.4h-33.6c0,2.7.5,5.2,1.3,7.4s2.2,4.1,4.1,5.4,4.3,2.1,7.4,2.1,5.8-.7,7.7-2.2,2.8-3.6,2.9-6.4h10.4c-.2,3.5-1.1,6.5-2.9,9s-4.2,4.3-7.2,5.6-6.7,1.9-10.9,1.9ZM498.7,173.8h23.3c0-3.8-1.2-6.8-3.2-8.8s-4.8-3-8.2-3-6.3,1-8.4,3-3.2,4.9-3.5,8.7Z"/>
      <path class="st3" d="M544.8,202.8v-47.6h10.2l.2,7.2c1.6-2,3.7-3.8,6.3-5.4s6.1-2.5,10.3-2.5,8.8,1.5,11.4,4.5,3.8,7.3,3.8,12.9v30.9h-10.5v-29.4c0-2-.2-3.8-.7-5.3s-1.3-2.8-2.5-3.6-2.7-1.3-4.8-1.3c-3.1,0-5.7.7-7.8,2.1s-3.9,3-5.3,4.8v32.8h-10.6Z"/>
      <path class="st3" d="M621.7,203.5c-4.4,0-8.3-.9-11.8-2.6s-6.2-4.4-8.2-8-3-8.2-3-13.7,1-10.2,2.9-13.8,4.6-6.4,8.1-8.2,7.4-2.7,12-2.7,7.3.6,10.4,1.9,5.6,3.2,7.4,5.7,2.8,5.7,2.9,9.6h-10.3c-.2-2.8-1.1-4.9-2.9-6.5s-4.2-2.4-7.4-2.4-7.3,1.4-9.3,4.3-3,6.9-3,12.1.4,6.3,1.3,8.7,2.2,4.2,4,5.5,4.1,1.9,6.9,1.9,5.7-.8,7.7-2.5,2.9-4.1,3-7.3h10.3c0,4-1.1,7.3-2.9,10s-4.4,4.7-7.5,6.1-6.7,2-10.7,2Z"/>
      <path class="st3" d="M675.8,203.6c-5.2,0-9.5-1-13-3.1s-6.1-5-7.8-8.7-2.6-8-2.6-13,.8-9.3,2.5-12.9,4.2-6.5,7.5-8.5,7.5-3.1,12.5-3.1,12.1,2,16,6.1,5.9,9.8,5.9,17.3,0,1,0,1.7-.1,1.1-.2,1.4h-33.6c0,2.7.5,5.2,1.3,7.4s2.2,4.1,4.1,5.4,4.3,2.1,7.4,2.1,5.8-.7,7.7-2.2,2.8-3.6,2.9-6.4h10.4c-.2,3.5-1.1,6.5-2.9,9s-4.2,4.3-7.2,5.6-6.7,1.9-10.9,1.9ZM663.1,173.8h23.3c0-3.8-1.2-6.8-3.2-8.8s-4.8-3-8.2-3-6.3,1-8.4,3-3.2,4.9-3.5,8.7Z"/>
      <path class="st3" d="M730.3,202.8v-65.7h24.8c4.2,0,8,.8,11.4,2.3,3.4,1.5,6.1,3.8,8.1,6.9s3,6.9,3,11.5-1,8.2-3,11.3-4.7,5.3-8.1,6.8c-3.4,1.5-7.2,2.3-11.4,2.3h-13.5v24.7h-11.2ZM741.5,169h12.5c3.5,0,6.4-.9,8.7-2.8,2.2-1.9,3.3-4.7,3.3-8.4s-1.1-6.9-3.4-8.7-5.1-2.8-8.6-2.8h-12.5v22.8Z"/>
      <path class="st3" d="M801.6,202.8c-4.4,0-7.7-.6-10.1-1.8-2.4-1.2-4-3-4.9-5.3-.9-2.4-1.3-5.3-1.3-8.9v-49.8h10.5v49.1c0,2.7.4,4.8,1.1,6.2.7,1.4,2.4,2.1,5.1,2.1h2.6v8.3h-3Z"/>
      <path class="st3" d="M826.9,203.6c-2.7,0-5.2-.5-7.5-1.5s-4.1-2.6-5.5-4.6c-1.4-2.1-2.1-4.6-2.1-7.7s1.3-7.6,4-9.8c2.7-2.2,6.4-3.7,11.2-4.5,4.8-.8,10.4-1.3,16.9-1.4v-2.9c0-3.5-.9-6-2.6-7.3s-4-2-6.7-2-5.4.7-7.3,2.1-2.9,3.7-2.9,6.9h-10c0-4,.9-7.2,2.6-9.5s4.1-4.1,7.1-5.2c3-1.1,6.6-1.6,10.6-1.6s5.2.2,7.6.7c2.4.5,4.5,1.3,6.3,2.6s3.2,2.9,4.2,5,1.5,4.9,1.5,8.2v31.9h-9.9l-.4-6.7c-2.1,2.3-4.5,4.2-7.3,5.5-2.8,1.3-6,2-9.6,2ZM830.1,196.1c2.9,0,5.5-.7,7.8-2.1s4.3-3.1,5.8-5.1v-8.6c-7.7,0-13.2.7-16.5,2.1-3.3,1.4-4.9,3.7-4.9,6.8s.7,3.9,2.1,5.1c1.4,1.2,3.3,1.8,5.7,1.8Z"/>
      <path class="st3" d="M868.4,202.8v-47.6h10.2l.2,7.2c1.6-2,3.7-3.8,6.3-5.4,2.7-1.6,6.1-2.5,10.3-2.5s8.8,1.5,11.4,4.5c2.5,3,3.8,7.3,3.8,12.9v30.9h-10.5v-29.4c0-2-.2-3.8-.7-5.3s-1.3-2.8-2.5-3.6c-1.2-.9-2.7-1.3-4.8-1.3-3.1,0-5.7.7-7.8,2.1-2.1,1.4-3.9,3-5.3,4.8v32.8h-10.6Z"/>
    </g>
  </g>
  <g id="white_outline">
    <path class="st3" d="M111.5,8.5c12.4,0,24.3,6.5,35,16.9,24.3,22.7,44.1,50.2,57.6,80.6,9.9,21.2,15.4,44.7,4.1,66.6v.2c-11.3,22.8-34.3,32.5-58,37.1-1.8.4-3.7.7-5.5,1l-26.6,3.2c-3.7.2-7.3.3-11,.3-5.8,0-11.6-.3-17.4-.9-20-2.1-41.6-4.8-58.3-16.7-11-7.8-18.1-19.3-21.2-32l-1.7-14.2c0-5.3.6-10.6,2-15.7,2.3-9.5,6.2-18.5,10.3-27.3,15.7-33.5,36.9-65.2,65.3-89.3,8.5-6.8,17.1-9.8,25.5-9.8M111.5,2.5c-10.2,0-20.1,3.7-29.3,11.1h0c0,0,0,.1,0,.1-26.4,22.4-48.9,53.2-66.8,91.3h0s0,0,0,0c-4.2,9.3-8.2,18.4-10.6,28.4-1.4,5.6-2.2,11.4-2.2,17.2v.3s0,.3,0,.3l1.7,14.2v.4s.1.3.1.3c3.5,14.6,11.9,27.2,23.5,35.5,18.5,13.2,42.2,15.7,61.2,17.8,5.9.6,12,.9,18.1.9s7.5-.1,11.3-.3h.2s.2,0,.2,0l26.6-3.2h.2s.2,0,.2,0c2.1-.4,4-.7,5.7-1.1,31.4-6.1,51.7-19.3,62.1-40.3v-.2c10.5-20.2,9.2-43.7-4-71.7-13.6-30.6-33.9-59.1-58.9-82.5-12.5-12.2-26-18.6-39.2-18.6h0Z"/>
  </g>
</svg>